G75*
G70*
%OFA0B0*%
%FSLAX24Y24*%
%IPPOS*%
%LPD*%
%AMOC8*
5,1,8,0,0,1.08239X$1,22.5*
%
%ADD10R,0.0236X0.0866*%
%ADD11R,0.2126X0.2441*%
%ADD12R,0.0394X0.0630*%
%ADD13R,0.0630X0.0512*%
%ADD14R,0.0512X0.0630*%
%ADD15R,0.1161X0.1063*%
%ADD16OC8,0.0520*%
%ADD17C,0.0600*%
%ADD18R,0.0394X0.0591*%
%ADD19R,0.0591X0.0551*%
%ADD20R,0.0551X0.0394*%
%ADD21R,0.0394X0.0551*%
%ADD22R,0.0866X0.0236*%
%ADD23OC8,0.0436*%
%ADD24R,0.0945X0.0945*%
%ADD25C,0.0160*%
%ADD26C,0.0357*%
%ADD27C,0.1660*%
D10*
X007334Y016066D03*
X007834Y016066D03*
X008334Y016066D03*
X008834Y016066D03*
X009334Y016066D03*
X009834Y016066D03*
X010334Y016066D03*
X010334Y018113D03*
X009834Y018113D03*
X009334Y018113D03*
X008834Y018113D03*
X008334Y018113D03*
X007834Y018113D03*
X007334Y018113D03*
X017834Y018113D03*
X018334Y018113D03*
X018834Y018113D03*
X019334Y018113D03*
X019834Y018113D03*
X020334Y018113D03*
X020834Y018113D03*
X020834Y016066D03*
X020334Y016066D03*
X019834Y016066D03*
X019334Y016066D03*
X018834Y016066D03*
X018334Y016066D03*
X017834Y016066D03*
D11*
X009334Y010323D03*
D12*
X008437Y007449D03*
X010232Y007449D03*
D13*
X007459Y007445D03*
X007459Y008233D03*
X006584Y013465D03*
X006584Y014213D03*
X006584Y014945D03*
X006584Y015733D03*
X006584Y016695D03*
X006584Y017483D03*
X006584Y018445D03*
X006584Y019233D03*
X006584Y019965D03*
X006584Y020713D03*
X011084Y020713D03*
X011084Y019965D03*
X011084Y019233D03*
X011084Y018445D03*
X011084Y015733D03*
X011084Y014945D03*
X011084Y014213D03*
X011084Y013465D03*
X016459Y011233D03*
X016459Y010445D03*
X017334Y009608D03*
X017334Y008820D03*
X018709Y007963D03*
X018709Y007215D03*
X019709Y007215D03*
X019709Y007963D03*
X021334Y008820D03*
X021334Y009608D03*
X017084Y013465D03*
X017084Y014213D03*
X017084Y014945D03*
X017084Y015733D03*
X017084Y016695D03*
X017084Y017483D03*
X017084Y018445D03*
X017084Y019233D03*
X017084Y019965D03*
X017084Y020713D03*
X021584Y020713D03*
X021584Y019965D03*
X021584Y019233D03*
X021584Y018445D03*
X021584Y015983D03*
X021584Y015195D03*
X021584Y014463D03*
X021584Y013715D03*
X015459Y008733D03*
X015459Y007945D03*
D14*
X012853Y008964D03*
X012066Y008964D03*
X016335Y012339D03*
X017083Y012339D03*
X018085Y012714D03*
X018833Y012714D03*
X019835Y012714D03*
X020583Y012714D03*
X022710Y013964D03*
X023458Y013964D03*
X023458Y015964D03*
X022710Y015964D03*
X022710Y017964D03*
X023458Y017964D03*
X023458Y019964D03*
X022710Y019964D03*
X020583Y021464D03*
X019835Y021464D03*
X018833Y021464D03*
X018085Y021464D03*
X012958Y019964D03*
X012210Y019964D03*
X010083Y021464D03*
X009335Y021464D03*
X008333Y021464D03*
X007585Y021464D03*
X012210Y017964D03*
X012958Y017964D03*
X012958Y015964D03*
X012210Y015964D03*
X012210Y013964D03*
X012958Y013964D03*
X010083Y012714D03*
X009335Y012714D03*
X008333Y012714D03*
X007585Y012714D03*
D15*
X011506Y007714D03*
X014163Y007714D03*
D16*
X013084Y014964D03*
X012084Y014964D03*
X012084Y016964D03*
X013084Y016964D03*
X013084Y018964D03*
X012084Y018964D03*
X012084Y020964D03*
X013084Y020964D03*
X022584Y020964D03*
X023584Y020964D03*
X023584Y018964D03*
X022584Y018964D03*
X022584Y016964D03*
X023584Y016964D03*
X023584Y014964D03*
X022584Y014964D03*
D17*
X022659Y012911D02*
X023259Y012911D01*
X023259Y011911D02*
X022659Y011911D01*
X022659Y010688D02*
X023259Y010688D01*
X023259Y009688D02*
X022659Y009688D01*
X022659Y008464D02*
X023259Y008464D01*
X023259Y007464D02*
X022659Y007464D01*
X012384Y009964D02*
X011784Y009964D01*
X011784Y010964D02*
X012384Y010964D01*
X012384Y011964D02*
X011784Y011964D01*
X006884Y011589D02*
X006284Y011589D01*
X006284Y010589D02*
X006884Y010589D01*
D18*
X007332Y013552D03*
X008336Y013552D03*
X009332Y013552D03*
X010336Y013552D03*
X017832Y013552D03*
X018836Y013552D03*
X019832Y013552D03*
X020836Y013552D03*
X020836Y020627D03*
X019832Y020627D03*
X018836Y020627D03*
X017832Y020627D03*
X010336Y020627D03*
X009332Y020627D03*
X008336Y020627D03*
X007332Y020627D03*
D19*
X007834Y019091D03*
X009834Y019091D03*
X009834Y015087D03*
X007834Y015087D03*
X018334Y015087D03*
X020334Y015087D03*
X020334Y019091D03*
X018334Y019091D03*
D20*
X015392Y012713D03*
X015392Y011965D03*
X014526Y012339D03*
X017892Y007963D03*
X017892Y007215D03*
X017026Y007589D03*
D21*
X020460Y007156D03*
X021208Y007156D03*
X020834Y008022D03*
D22*
X020358Y008964D03*
X020358Y009464D03*
X020358Y009964D03*
X020358Y010464D03*
X020358Y010964D03*
X020358Y011464D03*
X020358Y011964D03*
X018311Y011964D03*
X018311Y011464D03*
X018311Y010964D03*
X018311Y010464D03*
X018311Y009964D03*
X018311Y009464D03*
X018311Y008964D03*
D23*
X015959Y014089D03*
X014959Y014089D03*
X013959Y014089D03*
X013959Y016089D03*
X014959Y016089D03*
X015959Y016089D03*
X015959Y018089D03*
X014959Y018089D03*
X013959Y018089D03*
D24*
X006209Y009080D03*
X006209Y007348D03*
D25*
X005439Y006944D02*
X005439Y021732D01*
X007149Y021732D01*
X007149Y021512D01*
X007537Y021512D01*
X007537Y021416D01*
X007149Y021416D01*
X007149Y021126D01*
X007150Y021122D01*
X007053Y021122D01*
X007041Y021110D01*
X006982Y021169D01*
X006187Y021169D01*
X006069Y021052D01*
X006069Y020374D01*
X006105Y020339D01*
X006069Y020304D01*
X006069Y020245D01*
X006030Y020245D01*
X005927Y020203D01*
X005801Y020077D01*
X005722Y019998D01*
X005679Y019895D01*
X005679Y016783D01*
X005706Y016719D01*
X005706Y016639D01*
X005764Y016500D01*
X005870Y016393D01*
X006009Y016336D01*
X006090Y016336D01*
X006187Y016240D01*
X006237Y016240D01*
X006216Y016189D01*
X006187Y016189D01*
X006069Y016072D01*
X006069Y015394D01*
X006124Y015339D01*
X006069Y015284D01*
X006069Y014607D01*
X006115Y014561D01*
X006102Y014539D01*
X006089Y014493D01*
X006089Y014261D01*
X006536Y014261D01*
X006536Y014165D01*
X006089Y014165D01*
X006089Y013934D01*
X006102Y013888D01*
X006121Y013855D01*
X006069Y013804D01*
X006069Y013126D01*
X006187Y013009D01*
X006982Y013009D01*
X007041Y013068D01*
X007053Y013056D01*
X007129Y013056D01*
X007129Y012316D01*
X007247Y012199D01*
X007924Y012199D01*
X007959Y012234D01*
X007995Y012199D01*
X008672Y012199D01*
X008789Y012316D01*
X008789Y012444D01*
X008868Y012477D01*
X008879Y012488D01*
X008879Y012316D01*
X008997Y012199D01*
X009674Y012199D01*
X009725Y012250D01*
X009758Y012231D01*
X009804Y012219D01*
X010035Y012219D01*
X010035Y012666D01*
X010131Y012666D01*
X010131Y012219D01*
X010363Y012219D01*
X010409Y012231D01*
X010450Y012255D01*
X010483Y012289D01*
X010507Y012330D01*
X010519Y012376D01*
X010519Y012619D01*
X010620Y012518D01*
X010759Y012461D01*
X010817Y012461D01*
X010926Y012352D01*
X011029Y012309D01*
X011140Y012309D01*
X011422Y012309D01*
X011360Y012247D01*
X011284Y012064D01*
X011284Y011865D01*
X011360Y011681D01*
X011501Y011540D01*
X011685Y011464D01*
X012484Y011464D01*
X012668Y011540D01*
X012808Y011681D01*
X012810Y011684D01*
X012968Y011684D01*
X013179Y011473D01*
X013179Y009658D01*
X013222Y009556D01*
X014176Y008602D01*
X014279Y008559D01*
X014944Y008559D01*
X014944Y008394D01*
X015013Y008325D01*
X015000Y008312D01*
X014977Y008271D01*
X014964Y008225D01*
X014964Y007993D01*
X015411Y007993D01*
X015411Y007898D01*
X014964Y007898D01*
X014964Y007666D01*
X014977Y007620D01*
X015000Y007579D01*
X015034Y007546D01*
X015075Y007522D01*
X015121Y007510D01*
X015411Y007510D01*
X015411Y007898D01*
X015507Y007898D01*
X015507Y007993D01*
X015954Y007993D01*
X015954Y008225D01*
X015942Y008271D01*
X015918Y008312D01*
X015905Y008325D01*
X015974Y008394D01*
X015974Y008559D01*
X016015Y008559D01*
X016118Y008602D01*
X016197Y008681D01*
X016590Y009074D01*
X016633Y009177D01*
X016633Y009367D01*
X016819Y009553D01*
X016819Y009269D01*
X016874Y009214D01*
X016819Y009159D01*
X016819Y008482D01*
X016937Y008365D01*
X017732Y008365D01*
X017849Y008482D01*
X017849Y008646D01*
X018059Y008646D01*
X018097Y008556D01*
X018176Y008477D01*
X018272Y008380D01*
X018224Y008331D01*
X018192Y008340D01*
X017911Y008340D01*
X017911Y007982D01*
X017874Y007982D01*
X017874Y008340D01*
X017593Y008340D01*
X017547Y008328D01*
X017506Y008304D01*
X017473Y008271D01*
X017449Y008230D01*
X017437Y008184D01*
X017437Y007982D01*
X017874Y007982D01*
X017874Y007945D01*
X017437Y007945D01*
X017437Y007934D01*
X017385Y007986D01*
X016668Y007986D01*
X016649Y007968D01*
X016634Y007968D01*
X016495Y007910D01*
X016389Y007804D01*
X016331Y007664D01*
X016331Y007514D01*
X016389Y007375D01*
X016495Y007268D01*
X016634Y007211D01*
X016649Y007211D01*
X016668Y007192D01*
X017385Y007192D01*
X017417Y007224D01*
X017417Y006944D01*
X010521Y006944D01*
X010629Y007052D01*
X010629Y007169D01*
X010725Y007169D01*
X010725Y007100D01*
X010842Y006983D01*
X012169Y006983D01*
X012286Y007100D01*
X012286Y008329D01*
X012169Y008446D01*
X011864Y008446D01*
X011864Y008449D01*
X012404Y008449D01*
X012473Y008518D01*
X012487Y008505D01*
X012528Y008481D01*
X012573Y008469D01*
X012805Y008469D01*
X012805Y008916D01*
X012901Y008916D01*
X012901Y008469D01*
X013133Y008469D01*
X013178Y008481D01*
X013219Y008505D01*
X013253Y008539D01*
X013277Y008580D01*
X013289Y008626D01*
X013289Y008916D01*
X012901Y008916D01*
X012901Y009012D01*
X013289Y009012D01*
X013289Y009303D01*
X013277Y009349D01*
X013253Y009390D01*
X013219Y009423D01*
X013178Y009447D01*
X013133Y009459D01*
X012901Y009459D01*
X012901Y009012D01*
X012805Y009012D01*
X012805Y009459D01*
X012573Y009459D01*
X012528Y009447D01*
X012487Y009423D01*
X012473Y009410D01*
X012419Y009464D01*
X012484Y009464D01*
X012668Y009540D01*
X012808Y009681D01*
X012884Y009865D01*
X012884Y010064D01*
X012808Y010247D01*
X012668Y010388D01*
X012484Y010464D01*
X011685Y010464D01*
X011501Y010388D01*
X011360Y010247D01*
X011284Y010064D01*
X011284Y009865D01*
X011360Y009681D01*
X011501Y009540D01*
X011685Y009464D01*
X011712Y009464D01*
X011610Y009362D01*
X011610Y009226D01*
X011551Y009202D01*
X011426Y009077D01*
X011347Y008998D01*
X011304Y008895D01*
X011304Y008446D01*
X010842Y008446D01*
X010725Y008329D01*
X010725Y007729D01*
X010629Y007729D01*
X010629Y007847D01*
X010512Y007964D01*
X009952Y007964D01*
X009835Y007847D01*
X009835Y007052D01*
X009943Y006944D01*
X008726Y006944D01*
X008834Y007052D01*
X008834Y007847D01*
X008716Y007964D01*
X008157Y007964D01*
X008040Y007847D01*
X008040Y007725D01*
X007974Y007725D01*
X007974Y007784D01*
X007905Y007853D01*
X007918Y007866D01*
X007942Y007907D01*
X007954Y007953D01*
X007954Y008185D01*
X007507Y008185D01*
X007507Y008281D01*
X007411Y008281D01*
X007411Y008185D01*
X006964Y008185D01*
X006964Y007953D01*
X006977Y007907D01*
X007000Y007866D01*
X007013Y007853D01*
X006944Y007784D01*
X006944Y007725D01*
X006882Y007725D01*
X006882Y007903D01*
X006765Y008020D01*
X005654Y008020D01*
X005537Y007903D01*
X005537Y006944D01*
X005439Y006944D01*
X005439Y007098D02*
X005537Y007098D01*
X005537Y007257D02*
X005439Y007257D01*
X005439Y007415D02*
X005537Y007415D01*
X005537Y007574D02*
X005439Y007574D01*
X005439Y007732D02*
X005537Y007732D01*
X005537Y007891D02*
X005439Y007891D01*
X005439Y008049D02*
X006964Y008049D01*
X006986Y007891D02*
X006882Y007891D01*
X006882Y007732D02*
X006944Y007732D01*
X007411Y008208D02*
X005439Y008208D01*
X005439Y008366D02*
X006964Y008366D01*
X006964Y008281D02*
X007411Y008281D01*
X007411Y008669D01*
X007121Y008669D01*
X007075Y008657D01*
X007034Y008633D01*
X007000Y008599D01*
X006977Y008558D01*
X006964Y008512D01*
X006964Y008281D01*
X006765Y008408D02*
X006882Y008525D01*
X006882Y009636D01*
X006765Y009753D01*
X006644Y009753D01*
X006822Y009931D01*
X006864Y010033D01*
X006864Y010089D01*
X006984Y010089D01*
X007168Y010165D01*
X007308Y010306D01*
X007384Y010490D01*
X007384Y010689D01*
X007308Y010872D01*
X007168Y011013D01*
X006984Y011089D01*
X006185Y011089D01*
X006001Y011013D01*
X005860Y010872D01*
X005784Y010689D01*
X005784Y010490D01*
X005860Y010306D01*
X006001Y010165D01*
X006185Y010089D01*
X006188Y010089D01*
X006051Y009952D01*
X005972Y009873D01*
X005929Y009770D01*
X005929Y009753D01*
X005654Y009753D01*
X005537Y009636D01*
X005537Y008525D01*
X005654Y008408D01*
X006765Y008408D01*
X006881Y008525D02*
X006968Y008525D01*
X006882Y008683D02*
X011304Y008683D01*
X011304Y008525D02*
X007951Y008525D01*
X007954Y008512D02*
X007942Y008558D01*
X007918Y008599D01*
X007885Y008633D01*
X007844Y008657D01*
X007798Y008669D01*
X007507Y008669D01*
X007507Y008281D01*
X007954Y008281D01*
X007954Y008512D01*
X007954Y008366D02*
X010763Y008366D01*
X010725Y008208D02*
X007507Y008208D01*
X007507Y008366D02*
X007411Y008366D01*
X007411Y008525D02*
X007507Y008525D01*
X007954Y008049D02*
X010725Y008049D01*
X010725Y007891D02*
X010585Y007891D01*
X010629Y007732D02*
X010725Y007732D01*
X010232Y007449D02*
X011241Y007449D01*
X011506Y007714D01*
X011584Y007793D01*
X011584Y008839D01*
X011709Y008964D01*
X012066Y008964D01*
X012084Y008983D01*
X012084Y009964D01*
X012574Y010427D02*
X013179Y010427D01*
X013179Y010585D02*
X012679Y010585D01*
X012697Y010598D02*
X012750Y010651D01*
X012795Y010713D01*
X012829Y010780D01*
X012852Y010852D01*
X012864Y010926D01*
X012864Y010944D01*
X012104Y010944D01*
X012104Y010484D01*
X012422Y010484D01*
X012497Y010496D01*
X012569Y010519D01*
X012636Y010554D01*
X012697Y010598D01*
X012811Y010744D02*
X013179Y010744D01*
X013179Y010902D02*
X012860Y010902D01*
X012864Y010984D02*
X012864Y011002D01*
X012852Y011077D01*
X012829Y011148D01*
X012795Y011216D01*
X012750Y011277D01*
X012697Y011330D01*
X012636Y011375D01*
X012569Y011409D01*
X012497Y011432D01*
X012422Y011444D01*
X012104Y011444D01*
X012104Y010984D01*
X012064Y010984D01*
X012064Y010944D01*
X011304Y010944D01*
X011304Y010926D01*
X011316Y010852D01*
X011339Y010780D01*
X011374Y010713D01*
X011418Y010651D01*
X011472Y010598D01*
X011533Y010554D01*
X011600Y010519D01*
X011672Y010496D01*
X011747Y010484D01*
X012064Y010484D01*
X012064Y010944D01*
X012104Y010944D01*
X012104Y010984D01*
X012864Y010984D01*
X012855Y011061D02*
X013179Y011061D01*
X013179Y011219D02*
X012792Y011219D01*
X012630Y011378D02*
X013179Y011378D01*
X013116Y011536D02*
X012658Y011536D01*
X012104Y011378D02*
X012064Y011378D01*
X012064Y011444D02*
X011747Y011444D01*
X011672Y011432D01*
X011600Y011409D01*
X011533Y011375D01*
X011472Y011330D01*
X011418Y011277D01*
X011374Y011216D01*
X011339Y011148D01*
X011316Y011077D01*
X011304Y011002D01*
X011304Y010984D01*
X012064Y010984D01*
X012064Y011444D01*
X012064Y011219D02*
X012104Y011219D01*
X012104Y011061D02*
X012064Y011061D01*
X012064Y010902D02*
X012104Y010902D01*
X012104Y010744D02*
X012064Y010744D01*
X012064Y010585D02*
X012104Y010585D01*
X011594Y010427D02*
X010577Y010427D01*
X010577Y010403D02*
X010577Y011568D01*
X010565Y011613D01*
X010541Y011654D01*
X010508Y011688D01*
X010467Y011712D01*
X010421Y011724D01*
X009414Y011724D01*
X009414Y010403D01*
X010577Y010403D01*
X010577Y010243D02*
X009414Y010243D01*
X009414Y008923D01*
X010421Y008923D01*
X010467Y008935D01*
X010508Y008959D01*
X010541Y008992D01*
X010565Y009033D01*
X010577Y009079D01*
X010577Y010243D01*
X010577Y010110D02*
X011303Y010110D01*
X011284Y009951D02*
X010577Y009951D01*
X010577Y009793D02*
X011314Y009793D01*
X011407Y009634D02*
X010577Y009634D01*
X010577Y009476D02*
X011657Y009476D01*
X011610Y009317D02*
X010577Y009317D01*
X010577Y009159D02*
X011508Y009159D01*
X011349Y009000D02*
X010546Y009000D01*
X011304Y008842D02*
X006882Y008842D01*
X006882Y009000D02*
X008123Y009000D01*
X008127Y008992D02*
X008161Y008959D01*
X008202Y008935D01*
X008248Y008923D01*
X009254Y008923D01*
X009254Y010243D01*
X009414Y010243D01*
X009414Y010403D01*
X009254Y010403D01*
X009254Y010243D01*
X008091Y010243D01*
X008091Y009079D01*
X008104Y009033D01*
X008127Y008992D01*
X008091Y009159D02*
X006882Y009159D01*
X006882Y009317D02*
X008091Y009317D01*
X008091Y009476D02*
X006882Y009476D01*
X006882Y009634D02*
X008091Y009634D01*
X008091Y009793D02*
X006684Y009793D01*
X006830Y009951D02*
X008091Y009951D01*
X008091Y010110D02*
X007033Y010110D01*
X007270Y010268D02*
X009254Y010268D01*
X009254Y010403D02*
X008091Y010403D01*
X008091Y011568D01*
X008104Y011613D01*
X008127Y011654D01*
X008161Y011688D01*
X008202Y011712D01*
X008248Y011724D01*
X009254Y011724D01*
X009254Y010403D01*
X009254Y010427D02*
X009414Y010427D01*
X009414Y010585D02*
X009254Y010585D01*
X009254Y010744D02*
X009414Y010744D01*
X009414Y010902D02*
X009254Y010902D01*
X009254Y011061D02*
X009414Y011061D01*
X009414Y011219D02*
X009254Y011219D01*
X009254Y011378D02*
X009414Y011378D01*
X009414Y011536D02*
X009254Y011536D01*
X009254Y011695D02*
X009414Y011695D01*
X008879Y012329D02*
X008789Y012329D01*
X008878Y012487D02*
X008879Y012487D01*
X008709Y012714D02*
X008333Y012714D01*
X008709Y012714D02*
X008834Y012839D01*
X008834Y014089D01*
X009709Y014089D01*
X009833Y014213D01*
X011084Y014213D01*
X010569Y014493D02*
X009778Y014493D01*
X009689Y014456D01*
X009713Y014514D01*
X009713Y014612D01*
X010212Y014612D01*
X010314Y014713D01*
X010319Y014708D01*
X010422Y014665D01*
X010569Y014665D01*
X010569Y014607D01*
X010597Y014579D01*
X010569Y014552D01*
X010569Y014493D01*
X010569Y014548D02*
X009713Y014548D01*
X009334Y014589D02*
X009209Y014714D01*
X009209Y015339D01*
X009334Y015464D01*
X009334Y016066D01*
X009334Y016839D01*
X008459Y016839D01*
X008334Y016714D01*
X008334Y016066D01*
X007834Y016066D02*
X007834Y015087D01*
X007797Y015089D01*
X007334Y015089D01*
X007191Y014945D01*
X006584Y014945D01*
X006069Y015023D02*
X005439Y015023D01*
X005439Y014865D02*
X006069Y014865D01*
X006069Y014706D02*
X005439Y014706D01*
X005439Y014548D02*
X006107Y014548D01*
X006089Y014389D02*
X005439Y014389D01*
X005439Y014231D02*
X006536Y014231D01*
X006632Y014231D02*
X008483Y014231D01*
X008456Y014164D02*
X008514Y014304D01*
X008554Y014344D01*
X008554Y015452D01*
X008535Y015432D01*
X008330Y015432D01*
X008330Y014729D01*
X008212Y014612D01*
X007456Y014612D01*
X007354Y014713D01*
X007349Y014708D01*
X007246Y014665D01*
X007099Y014665D01*
X007099Y014607D01*
X007054Y014561D01*
X007067Y014539D01*
X007079Y014493D01*
X007079Y014261D01*
X006632Y014261D01*
X006632Y014165D01*
X007079Y014165D01*
X007079Y014047D01*
X007612Y014047D01*
X007729Y013930D01*
X007729Y013755D01*
X007763Y013789D01*
X007866Y013832D01*
X007939Y013832D01*
X007939Y013930D01*
X008057Y014047D01*
X008456Y014047D01*
X008456Y014164D01*
X008456Y014072D02*
X007079Y014072D01*
X007079Y014389D02*
X008554Y014389D01*
X008554Y014548D02*
X007062Y014548D01*
X007345Y014706D02*
X007362Y014706D01*
X007099Y015250D02*
X007099Y015284D01*
X007044Y015339D01*
X007099Y015394D01*
X007099Y015453D01*
X007113Y015453D01*
X007133Y015432D01*
X007339Y015432D01*
X007339Y015369D01*
X007279Y015369D01*
X007176Y015327D01*
X007099Y015250D01*
X007045Y015340D02*
X007209Y015340D01*
X007334Y015714D02*
X007334Y016066D01*
X007016Y016155D02*
X006982Y016189D01*
X006953Y016189D01*
X006932Y016240D01*
X006982Y016240D01*
X007016Y016274D01*
X007016Y016155D01*
X007316Y015733D02*
X007334Y015714D01*
X007316Y015733D02*
X006584Y015733D01*
X006584Y016089D01*
X006130Y016133D02*
X005439Y016133D01*
X005439Y016291D02*
X006135Y016291D01*
X006069Y015974D02*
X005439Y015974D01*
X005439Y015816D02*
X006069Y015816D01*
X006069Y015657D02*
X005439Y015657D01*
X005439Y015499D02*
X006069Y015499D01*
X006123Y015340D02*
X005439Y015340D01*
X005439Y015182D02*
X006069Y015182D01*
X006089Y014072D02*
X005439Y014072D01*
X005439Y013914D02*
X006095Y013914D01*
X006069Y013755D02*
X005439Y013755D01*
X005439Y013597D02*
X006069Y013597D01*
X006069Y013438D02*
X005439Y013438D01*
X005439Y013280D02*
X006069Y013280D01*
X006075Y013121D02*
X005439Y013121D01*
X005439Y012963D02*
X007129Y012963D01*
X007129Y012804D02*
X005439Y012804D01*
X005439Y012646D02*
X007129Y012646D01*
X007129Y012487D02*
X005439Y012487D01*
X005439Y012329D02*
X007129Y012329D01*
X007069Y012034D02*
X006997Y012057D01*
X006922Y012069D01*
X006604Y012069D01*
X006604Y011609D01*
X006564Y011609D01*
X006564Y011569D01*
X005804Y011569D01*
X005804Y011551D01*
X005816Y011477D01*
X005839Y011405D01*
X005874Y011338D01*
X005918Y011276D01*
X005972Y011223D01*
X006033Y011179D01*
X006100Y011144D01*
X006172Y011121D01*
X006247Y011109D01*
X006564Y011109D01*
X006564Y011569D01*
X006604Y011569D01*
X006604Y011109D01*
X006922Y011109D01*
X006997Y011121D01*
X007069Y011144D01*
X007136Y011179D01*
X007197Y011223D01*
X007250Y011276D01*
X007295Y011338D01*
X007329Y011405D01*
X007352Y011477D01*
X007364Y011551D01*
X007364Y011569D01*
X006604Y011569D01*
X006604Y011609D01*
X007364Y011609D01*
X007364Y011627D01*
X007352Y011702D01*
X007329Y011773D01*
X007295Y011841D01*
X007250Y011902D01*
X007197Y011955D01*
X007136Y012000D01*
X007069Y012034D01*
X007112Y012012D02*
X011284Y012012D01*
X011289Y011853D02*
X007286Y011853D01*
X007354Y011695D02*
X008172Y011695D01*
X008091Y011536D02*
X007362Y011536D01*
X007315Y011378D02*
X008091Y011378D01*
X008091Y011219D02*
X007192Y011219D01*
X007053Y011061D02*
X008091Y011061D01*
X008091Y010902D02*
X007278Y010902D01*
X007362Y010744D02*
X008091Y010744D01*
X008091Y010585D02*
X007384Y010585D01*
X007358Y010427D02*
X008091Y010427D01*
X009254Y010110D02*
X009414Y010110D01*
X009414Y010268D02*
X011381Y010268D01*
X011489Y010585D02*
X010577Y010585D01*
X010577Y010744D02*
X011358Y010744D01*
X011308Y010902D02*
X010577Y010902D01*
X010577Y011061D02*
X011314Y011061D01*
X011376Y011219D02*
X010577Y011219D01*
X010577Y011378D02*
X011539Y011378D01*
X011511Y011536D02*
X010577Y011536D01*
X010496Y011695D02*
X011355Y011695D01*
X011328Y012170D02*
X005439Y012170D01*
X005439Y012012D02*
X006056Y012012D01*
X006033Y012000D02*
X005972Y011955D01*
X005918Y011902D01*
X005874Y011841D01*
X005839Y011773D01*
X005816Y011702D01*
X005804Y011627D01*
X005804Y011609D01*
X006564Y011609D01*
X006564Y012069D01*
X006247Y012069D01*
X006172Y012057D01*
X006100Y012034D01*
X006033Y012000D01*
X005883Y011853D02*
X005439Y011853D01*
X005439Y011695D02*
X005815Y011695D01*
X005807Y011536D02*
X005439Y011536D01*
X005439Y011378D02*
X005853Y011378D01*
X005977Y011219D02*
X005439Y011219D01*
X005439Y011061D02*
X006116Y011061D01*
X005890Y010902D02*
X005439Y010902D01*
X005439Y010744D02*
X005807Y010744D01*
X005784Y010585D02*
X005439Y010585D01*
X005439Y010427D02*
X005810Y010427D01*
X005898Y010268D02*
X005439Y010268D01*
X005439Y010110D02*
X006135Y010110D01*
X006051Y009952D02*
X006051Y009952D01*
X006050Y009951D02*
X005439Y009951D01*
X005439Y009793D02*
X005939Y009793D01*
X006209Y009714D02*
X006209Y009080D01*
X005537Y009159D02*
X005439Y009159D01*
X005439Y009317D02*
X005537Y009317D01*
X005537Y009476D02*
X005439Y009476D01*
X005439Y009634D02*
X005537Y009634D01*
X005537Y009000D02*
X005439Y009000D01*
X005439Y008842D02*
X005537Y008842D01*
X005537Y008683D02*
X005439Y008683D01*
X005439Y008525D02*
X005537Y008525D01*
X006307Y007445D02*
X006209Y007348D01*
X006307Y007445D02*
X007459Y007445D01*
X008433Y007445D01*
X008437Y007449D01*
X008040Y007165D02*
X008040Y007052D01*
X008147Y006944D01*
X006882Y006944D01*
X006882Y007165D01*
X006944Y007165D01*
X006944Y007107D01*
X007062Y006990D01*
X007857Y006990D01*
X007974Y007107D01*
X007974Y007165D01*
X008040Y007165D01*
X008040Y007098D02*
X007966Y007098D01*
X007974Y007732D02*
X008040Y007732D01*
X008083Y007891D02*
X007932Y007891D01*
X008790Y007891D02*
X009879Y007891D01*
X009835Y007732D02*
X008834Y007732D01*
X008834Y007574D02*
X009835Y007574D01*
X009835Y007415D02*
X008834Y007415D01*
X008834Y007257D02*
X009835Y007257D01*
X009835Y007098D02*
X008834Y007098D01*
X010629Y007098D02*
X010727Y007098D01*
X012285Y007098D02*
X013423Y007098D01*
X013415Y007113D02*
X013438Y007072D01*
X013472Y007039D01*
X013513Y007015D01*
X013559Y007003D01*
X014083Y007003D01*
X014083Y007634D01*
X014243Y007634D01*
X014243Y007003D01*
X014767Y007003D01*
X014813Y007015D01*
X014854Y007039D01*
X014888Y007072D01*
X014911Y007113D01*
X014924Y007159D01*
X014924Y007634D01*
X014243Y007634D01*
X014243Y007794D01*
X014924Y007794D01*
X014924Y008269D01*
X014911Y008315D01*
X014888Y008356D01*
X014854Y008390D01*
X014813Y008413D01*
X014767Y008426D01*
X014243Y008426D01*
X014243Y007794D01*
X014083Y007794D01*
X014083Y007634D01*
X013402Y007634D01*
X013402Y007159D01*
X013415Y007113D01*
X013402Y007257D02*
X012286Y007257D01*
X012286Y007415D02*
X013402Y007415D01*
X013402Y007574D02*
X012286Y007574D01*
X012286Y007732D02*
X014083Y007732D01*
X014083Y007794D02*
X013402Y007794D01*
X013402Y008269D01*
X013415Y008315D01*
X013438Y008356D01*
X013472Y008390D01*
X013513Y008413D01*
X013559Y008426D01*
X014083Y008426D01*
X014083Y007794D01*
X014083Y007891D02*
X014243Y007891D01*
X014243Y008049D02*
X014083Y008049D01*
X014083Y008208D02*
X014243Y008208D01*
X014243Y008366D02*
X014083Y008366D01*
X014094Y008683D02*
X013289Y008683D01*
X013289Y008842D02*
X013936Y008842D01*
X013777Y009000D02*
X012901Y009000D01*
X012901Y008842D02*
X012805Y008842D01*
X012805Y008683D02*
X012901Y008683D01*
X012901Y008525D02*
X012805Y008525D01*
X013239Y008525D02*
X014944Y008525D01*
X014972Y008366D02*
X014878Y008366D01*
X014924Y008208D02*
X014964Y008208D01*
X014964Y008049D02*
X014924Y008049D01*
X014924Y007891D02*
X014964Y007891D01*
X014964Y007732D02*
X014243Y007732D01*
X014243Y007574D02*
X014083Y007574D01*
X014083Y007415D02*
X014243Y007415D01*
X014243Y007257D02*
X014083Y007257D01*
X014083Y007098D02*
X014243Y007098D01*
X014903Y007098D02*
X017417Y007098D01*
X017502Y007580D02*
X017502Y007627D01*
X017506Y007622D01*
X017530Y007608D01*
X017502Y007580D01*
X017437Y008049D02*
X015954Y008049D01*
X015954Y007898D02*
X015507Y007898D01*
X015507Y007510D01*
X015798Y007510D01*
X015844Y007522D01*
X015885Y007546D01*
X015918Y007579D01*
X015942Y007620D01*
X015954Y007666D01*
X015954Y007898D01*
X015954Y007891D02*
X016476Y007891D01*
X016359Y007732D02*
X015954Y007732D01*
X015913Y007574D02*
X016331Y007574D01*
X016372Y007415D02*
X014924Y007415D01*
X014924Y007257D02*
X016523Y007257D01*
X016709Y007589D02*
X017026Y007589D01*
X017443Y008208D02*
X015954Y008208D01*
X015946Y008366D02*
X016935Y008366D01*
X016819Y008525D02*
X015974Y008525D01*
X016199Y008683D02*
X016819Y008683D01*
X016819Y008842D02*
X016358Y008842D01*
X016516Y009000D02*
X016819Y009000D01*
X016819Y009159D02*
X016625Y009159D01*
X016633Y009317D02*
X016819Y009317D01*
X016819Y009476D02*
X016742Y009476D01*
X016353Y009483D02*
X016353Y009233D01*
X015959Y008839D01*
X015566Y008839D01*
X015459Y008733D01*
X015353Y008839D01*
X014334Y008839D01*
X013459Y009714D01*
X013459Y011589D01*
X013084Y011964D01*
X012084Y011964D01*
X012084Y012339D01*
X011834Y012589D01*
X011084Y012589D01*
X010834Y012839D01*
X010695Y012487D02*
X010519Y012487D01*
X010506Y012329D02*
X010982Y012329D01*
X011213Y012869D02*
X011213Y012914D01*
X011173Y013009D01*
X011482Y013009D01*
X011599Y013126D01*
X011599Y013804D01*
X011564Y013839D01*
X011599Y013874D01*
X011599Y014552D01*
X011572Y014579D01*
X011599Y014607D01*
X011599Y015284D01*
X011544Y015339D01*
X011599Y015394D01*
X011599Y016072D01*
X011482Y016189D01*
X011364Y016189D01*
X011364Y016223D01*
X011770Y016628D01*
X011894Y016504D01*
X012275Y016504D01*
X012544Y016774D01*
X012544Y017155D01*
X012275Y017424D01*
X011894Y017424D01*
X011714Y017244D01*
X011654Y017244D01*
X011551Y017202D01*
X011472Y017123D01*
X010847Y016498D01*
X010804Y016395D01*
X010804Y016189D01*
X010687Y016189D01*
X010652Y016155D01*
X010652Y016581D01*
X010535Y016699D01*
X010133Y016699D01*
X010084Y016650D01*
X010035Y016699D01*
X009633Y016699D01*
X009614Y016680D01*
X009614Y017499D01*
X009633Y017480D01*
X010035Y017480D01*
X010084Y017529D01*
X010133Y017480D01*
X010535Y017480D01*
X010652Y017597D01*
X010652Y018024D01*
X010687Y017990D01*
X011482Y017990D01*
X011599Y018107D01*
X011599Y018165D01*
X011621Y018165D01*
X011724Y018208D01*
X011774Y018258D01*
X011774Y018012D01*
X012162Y018012D01*
X012162Y017916D01*
X011774Y017916D01*
X011774Y017626D01*
X011787Y017580D01*
X011810Y017539D01*
X011844Y017505D01*
X011885Y017481D01*
X011931Y017469D01*
X012162Y017469D01*
X012162Y017916D01*
X012258Y017916D01*
X012258Y017469D01*
X012490Y017469D01*
X012536Y017481D01*
X012568Y017500D01*
X012620Y017449D01*
X012995Y017449D01*
X013029Y017435D01*
X013040Y017435D01*
X013050Y017432D01*
X013095Y017435D01*
X013140Y017435D01*
X013150Y017439D01*
X013161Y017440D01*
X013179Y017449D01*
X013297Y017449D01*
X013414Y017566D01*
X013414Y018362D01*
X013364Y018412D01*
X013364Y018594D01*
X013544Y018774D01*
X013544Y019155D01*
X013275Y019424D01*
X012894Y019424D01*
X012624Y019155D01*
X012624Y018774D01*
X012804Y018594D01*
X012804Y018479D01*
X012620Y018479D01*
X012568Y018428D01*
X012536Y018447D01*
X012490Y018459D01*
X012258Y018459D01*
X012258Y018012D01*
X012162Y018012D01*
X012162Y018459D01*
X011975Y018459D01*
X012020Y018504D01*
X012275Y018504D01*
X012544Y018774D01*
X012544Y019155D01*
X012275Y019424D01*
X011894Y019424D01*
X011624Y019155D01*
X011624Y018900D01*
X011554Y018830D01*
X011544Y018839D01*
X011599Y018894D01*
X011599Y019572D01*
X011554Y019617D01*
X011567Y019640D01*
X011579Y019686D01*
X011579Y019917D01*
X011132Y019917D01*
X011132Y020013D01*
X011579Y020013D01*
X011579Y020245D01*
X011567Y020291D01*
X011548Y020323D01*
X011599Y020374D01*
X011599Y021052D01*
X011482Y021169D01*
X010687Y021169D01*
X010628Y021110D01*
X010616Y021122D01*
X010539Y021122D01*
X010539Y021732D01*
X017649Y021732D01*
X017649Y021512D01*
X018037Y021512D01*
X018037Y021416D01*
X017649Y021416D01*
X017649Y021126D01*
X017650Y021122D01*
X017553Y021122D01*
X017541Y021110D01*
X017482Y021169D01*
X016687Y021169D01*
X016569Y021052D01*
X016569Y020374D01*
X016605Y020339D01*
X016569Y020304D01*
X016569Y020244D01*
X016529Y020244D01*
X016426Y020202D01*
X016301Y020077D01*
X016222Y019998D01*
X016179Y019895D01*
X016179Y019094D01*
X016139Y019054D01*
X016081Y018914D01*
X016081Y018764D01*
X016139Y018625D01*
X016179Y018584D01*
X016179Y018432D01*
X016124Y018487D01*
X015959Y018487D01*
X015794Y018487D01*
X015561Y018254D01*
X015561Y018089D01*
X015561Y017924D01*
X015794Y017691D01*
X015959Y017691D01*
X015959Y018089D01*
X015561Y018089D01*
X015959Y018089D01*
X015959Y018089D01*
X015959Y018089D01*
X015959Y017691D01*
X016124Y017691D01*
X016179Y017746D01*
X016179Y016783D01*
X016222Y016681D01*
X016347Y016556D01*
X016426Y016477D01*
X016529Y016434D01*
X016569Y016434D01*
X016569Y016357D01*
X016687Y016240D01*
X016737Y016240D01*
X016716Y016189D01*
X016687Y016189D01*
X016569Y016072D01*
X016569Y015394D01*
X016624Y015339D01*
X016569Y015284D01*
X016569Y014607D01*
X016615Y014561D01*
X016602Y014539D01*
X016589Y014493D01*
X016589Y014261D01*
X017036Y014261D01*
X017036Y014165D01*
X016589Y014165D01*
X016589Y013934D01*
X016602Y013888D01*
X016621Y013855D01*
X016569Y013804D01*
X016569Y013126D01*
X016687Y013009D01*
X017482Y013009D01*
X017541Y013068D01*
X017553Y013056D01*
X017629Y013056D01*
X017629Y012565D01*
X017618Y012577D01*
X017539Y012609D01*
X017539Y012737D01*
X017422Y012854D01*
X016745Y012854D01*
X016709Y012819D01*
X016674Y012854D01*
X015997Y012854D01*
X015879Y012737D01*
X015879Y012530D01*
X015848Y012499D01*
X015848Y012695D01*
X015411Y012695D01*
X015411Y012732D01*
X015374Y012732D01*
X015374Y013090D01*
X015106Y013090D01*
X015697Y013681D01*
X015728Y013757D01*
X015794Y013691D01*
X015959Y013691D01*
X015959Y014089D01*
X015959Y014089D01*
X015959Y013691D01*
X016124Y013691D01*
X016357Y013924D01*
X016357Y014089D01*
X015959Y014089D01*
X015959Y014487D01*
X015794Y014487D01*
X015739Y014432D01*
X015739Y015746D01*
X015794Y015691D01*
X015959Y015691D01*
X015959Y016089D01*
X015959Y016089D01*
X015959Y015691D01*
X016124Y015691D01*
X016357Y015924D01*
X016357Y016089D01*
X015959Y016089D01*
X015959Y016487D01*
X015794Y016487D01*
X015739Y016432D01*
X015739Y017645D01*
X015697Y017748D01*
X015618Y017827D01*
X015377Y018067D01*
X015377Y018262D01*
X015133Y018507D01*
X014786Y018507D01*
X014541Y018262D01*
X014541Y017916D01*
X014786Y017671D01*
X014981Y017671D01*
X015179Y017473D01*
X015179Y016460D01*
X015133Y016507D01*
X014786Y016507D01*
X014541Y016262D01*
X014541Y015916D01*
X014786Y015671D01*
X015133Y015671D01*
X015179Y015718D01*
X015179Y014460D01*
X015133Y014507D01*
X014786Y014507D01*
X014541Y014262D01*
X014541Y014067D01*
X013718Y013244D01*
X013339Y013244D01*
X013299Y013285D01*
X013160Y013343D01*
X013009Y013343D01*
X012870Y013285D01*
X012764Y013179D01*
X012706Y013039D01*
X012706Y012889D01*
X012764Y012750D01*
X012870Y012643D01*
X013009Y012586D01*
X013160Y012586D01*
X013299Y012643D01*
X013339Y012684D01*
X013890Y012684D01*
X013993Y012727D01*
X014206Y012940D01*
X014206Y012889D01*
X014264Y012750D01*
X014277Y012736D01*
X014168Y012736D01*
X014149Y012718D01*
X014134Y012718D01*
X013995Y012660D01*
X013889Y012554D01*
X013831Y012414D01*
X013831Y012264D01*
X013889Y012125D01*
X013995Y012018D01*
X014134Y011961D01*
X014149Y011961D01*
X014168Y011942D01*
X014885Y011942D01*
X014917Y011974D01*
X014917Y011740D01*
X014689Y011759D01*
X014689Y011759D01*
X014254Y011649D01*
X013879Y011404D01*
X013879Y011404D01*
X013879Y011404D01*
X013739Y011224D01*
X013739Y011645D01*
X013697Y011748D01*
X013618Y011827D01*
X013243Y012202D01*
X013140Y012244D01*
X012810Y012244D01*
X012808Y012247D01*
X012668Y012388D01*
X012484Y012464D01*
X012336Y012464D01*
X012322Y012498D01*
X012243Y012577D01*
X012072Y012748D01*
X011993Y012827D01*
X011890Y012869D01*
X011213Y012869D01*
X011193Y012963D02*
X012706Y012963D01*
X012740Y013121D02*
X011594Y013121D01*
X011599Y013280D02*
X012865Y013280D01*
X012995Y013449D02*
X012620Y013449D01*
X012568Y013500D01*
X012536Y013481D01*
X012490Y013469D01*
X012258Y013469D01*
X012258Y013916D01*
X012162Y013916D01*
X011774Y013916D01*
X011774Y013626D01*
X011787Y013580D01*
X011810Y013539D01*
X011844Y013505D01*
X011885Y013481D01*
X011931Y013469D01*
X012162Y013469D01*
X012162Y013916D01*
X012162Y014012D01*
X011774Y014012D01*
X011774Y014303D01*
X011787Y014349D01*
X011810Y014390D01*
X011844Y014423D01*
X011885Y014447D01*
X011931Y014459D01*
X012162Y014459D01*
X012162Y014012D01*
X012258Y014012D01*
X012258Y014459D01*
X012490Y014459D01*
X012536Y014447D01*
X012568Y014428D01*
X012620Y014479D01*
X012804Y014479D01*
X012804Y014594D01*
X012624Y014774D01*
X012624Y015155D01*
X012894Y015424D01*
X013275Y015424D01*
X013544Y015155D01*
X013544Y014774D01*
X013364Y014594D01*
X013364Y014412D01*
X013414Y014362D01*
X013414Y013566D01*
X013297Y013449D01*
X013179Y013449D01*
X013161Y013440D01*
X013150Y013439D01*
X013140Y013435D01*
X013095Y013435D01*
X013050Y013432D01*
X013040Y013435D01*
X013029Y013435D01*
X012995Y013449D01*
X013021Y013438D02*
X011599Y013438D01*
X011599Y013597D02*
X011782Y013597D01*
X011774Y013755D02*
X011599Y013755D01*
X011599Y013914D02*
X011774Y013914D01*
X011774Y014072D02*
X011599Y014072D01*
X011599Y014231D02*
X011774Y014231D01*
X011810Y014389D02*
X011599Y014389D01*
X011599Y014548D02*
X011850Y014548D01*
X011894Y014504D02*
X012275Y014504D01*
X012544Y014774D01*
X012544Y015155D01*
X012275Y015424D01*
X011894Y015424D01*
X011624Y015155D01*
X011624Y014774D01*
X011894Y014504D01*
X011692Y014706D02*
X011599Y014706D01*
X011599Y014865D02*
X011624Y014865D01*
X011624Y015023D02*
X011599Y015023D01*
X011599Y015182D02*
X011651Y015182D01*
X011545Y015340D02*
X011810Y015340D01*
X011885Y015481D02*
X011931Y015469D01*
X012162Y015469D01*
X012162Y015916D01*
X011774Y015916D01*
X011774Y015626D01*
X011787Y015580D01*
X011810Y015539D01*
X011844Y015505D01*
X011885Y015481D01*
X011855Y015499D02*
X011599Y015499D01*
X011599Y015657D02*
X011774Y015657D01*
X011774Y015816D02*
X011599Y015816D01*
X011599Y015974D02*
X012162Y015974D01*
X012162Y016012D02*
X012162Y015916D01*
X012258Y015916D01*
X012258Y015469D01*
X012490Y015469D01*
X012536Y015481D01*
X012568Y015500D01*
X012620Y015449D01*
X012995Y015449D01*
X013029Y015435D01*
X013040Y015435D01*
X013050Y015432D01*
X013095Y015435D01*
X013140Y015435D01*
X013150Y015439D01*
X013161Y015440D01*
X013179Y015449D01*
X013297Y015449D01*
X013414Y015566D01*
X013414Y016362D01*
X013364Y016412D01*
X013364Y016594D01*
X013544Y016774D01*
X013544Y017155D01*
X013275Y017424D01*
X012894Y017424D01*
X012624Y017155D01*
X012624Y016774D01*
X012804Y016594D01*
X012804Y016479D01*
X012620Y016479D01*
X012568Y016428D01*
X012536Y016447D01*
X012490Y016459D01*
X012258Y016459D01*
X012258Y016012D01*
X012162Y016012D01*
X011774Y016012D01*
X011774Y016303D01*
X011787Y016349D01*
X011810Y016390D01*
X011844Y016423D01*
X011885Y016447D01*
X011931Y016459D01*
X012162Y016459D01*
X012162Y016012D01*
X012162Y016133D02*
X012258Y016133D01*
X012258Y016291D02*
X012162Y016291D01*
X012162Y016450D02*
X012258Y016450D01*
X012379Y016608D02*
X012790Y016608D01*
X012631Y016767D02*
X012537Y016767D01*
X012544Y016925D02*
X012624Y016925D01*
X012624Y017084D02*
X012544Y017084D01*
X012457Y017242D02*
X012712Y017242D01*
X012870Y017401D02*
X012298Y017401D01*
X012258Y017559D02*
X012162Y017559D01*
X012162Y017718D02*
X012258Y017718D01*
X012258Y017876D02*
X012162Y017876D01*
X012162Y018035D02*
X012258Y018035D01*
X012258Y018193D02*
X012162Y018193D01*
X012162Y018352D02*
X012258Y018352D01*
X012281Y018510D02*
X012804Y018510D01*
X012729Y018669D02*
X012439Y018669D01*
X012544Y018827D02*
X012624Y018827D01*
X012624Y018986D02*
X012544Y018986D01*
X012544Y019144D02*
X012624Y019144D01*
X012772Y019303D02*
X012396Y019303D01*
X012490Y019469D02*
X012258Y019469D01*
X012258Y019916D01*
X012162Y019916D01*
X011774Y019916D01*
X011774Y019626D01*
X011787Y019580D01*
X011810Y019539D01*
X011844Y019505D01*
X011885Y019481D01*
X011931Y019469D01*
X012162Y019469D01*
X012162Y019916D01*
X012162Y020012D01*
X011774Y020012D01*
X011774Y020303D01*
X011787Y020349D01*
X011810Y020390D01*
X011844Y020423D01*
X011885Y020447D01*
X011931Y020459D01*
X012162Y020459D01*
X012162Y020012D01*
X012258Y020012D01*
X012258Y020459D01*
X012490Y020459D01*
X012536Y020447D01*
X012568Y020428D01*
X012620Y020479D01*
X012804Y020479D01*
X012804Y020594D01*
X012624Y020774D01*
X012624Y021155D01*
X012894Y021424D01*
X013275Y021424D01*
X013544Y021155D01*
X013544Y020774D01*
X013364Y020594D01*
X013364Y020412D01*
X013414Y020362D01*
X013414Y019566D01*
X013297Y019449D01*
X013179Y019449D01*
X013161Y019440D01*
X013150Y019439D01*
X013140Y019435D01*
X013095Y019435D01*
X013050Y019432D01*
X013040Y019435D01*
X013029Y019435D01*
X012995Y019449D01*
X012620Y019449D01*
X012568Y019500D01*
X012536Y019481D01*
X012490Y019469D01*
X012608Y019461D02*
X011599Y019461D01*
X011599Y019303D02*
X011772Y019303D01*
X011624Y019144D02*
X011599Y019144D01*
X011599Y018986D02*
X011624Y018986D01*
X012084Y018964D02*
X011566Y018445D01*
X011084Y018445D01*
X010353Y018445D01*
X010334Y018464D01*
X010334Y018113D01*
X010652Y017876D02*
X011774Y017876D01*
X011774Y017718D02*
X010652Y017718D01*
X010615Y017559D02*
X011799Y017559D01*
X011870Y017401D02*
X009614Y017401D01*
X009614Y017242D02*
X011649Y017242D01*
X011433Y017084D02*
X009614Y017084D01*
X009614Y016925D02*
X011274Y016925D01*
X011116Y016767D02*
X009614Y016767D01*
X009334Y016839D02*
X009334Y018113D01*
X009334Y019464D01*
X008334Y019464D01*
X008334Y018113D01*
X007834Y018113D02*
X007834Y019091D01*
X007797Y019089D01*
X007334Y019089D01*
X007191Y019233D01*
X006584Y019233D01*
X007099Y019513D02*
X007099Y019572D01*
X007072Y019599D01*
X007099Y019626D01*
X007099Y019685D01*
X008159Y019685D01*
X008097Y019623D01*
X008074Y019567D01*
X007456Y019567D01*
X007354Y019465D01*
X007349Y019470D01*
X007246Y019513D01*
X007099Y019513D01*
X007093Y019620D02*
X008096Y019620D01*
X008583Y019965D02*
X008584Y019964D01*
X008834Y020214D01*
X008834Y021339D01*
X008959Y021464D01*
X009335Y021464D01*
X008875Y021732D02*
X008801Y021702D01*
X008789Y021690D01*
X008789Y021732D01*
X008875Y021732D01*
X008336Y021586D02*
X008333Y021464D01*
X008336Y021586D02*
X008336Y020627D01*
X007939Y020571D02*
X007729Y020571D01*
X007729Y020729D02*
X007939Y020729D01*
X007939Y020888D02*
X007729Y020888D01*
X007729Y020969D02*
X007865Y020969D01*
X007911Y020981D01*
X007939Y020998D01*
X007939Y020248D01*
X007943Y020245D01*
X007726Y020245D01*
X007729Y020248D01*
X007729Y020969D01*
X007332Y020627D02*
X006671Y020627D01*
X006584Y020713D01*
X006069Y020729D02*
X005439Y020729D01*
X005439Y020571D02*
X006069Y020571D01*
X006069Y020412D02*
X005439Y020412D01*
X005439Y020254D02*
X006069Y020254D01*
X006085Y019965D02*
X005959Y019839D01*
X005959Y016839D01*
X006084Y016714D01*
X006566Y016714D01*
X006584Y016695D01*
X007099Y016665D02*
X007099Y017034D01*
X007030Y017103D01*
X007043Y017116D01*
X007067Y017157D01*
X007079Y017203D01*
X007079Y017435D01*
X006632Y017435D01*
X006632Y017531D01*
X007079Y017531D01*
X007079Y017534D01*
X007133Y017480D01*
X007535Y017480D01*
X007584Y017529D01*
X007633Y017480D01*
X008035Y017480D01*
X008084Y017529D01*
X008133Y017480D01*
X008535Y017480D01*
X008598Y017543D01*
X008606Y017536D01*
X008647Y017512D01*
X008693Y017500D01*
X008834Y017500D01*
X008834Y018113D01*
X008834Y018726D01*
X008693Y018726D01*
X008647Y018714D01*
X008614Y018695D01*
X008614Y019184D01*
X009054Y019184D01*
X009054Y018695D01*
X009022Y018714D01*
X008976Y018726D01*
X008834Y018726D01*
X008834Y018113D01*
X008834Y018113D01*
X008834Y018113D01*
X008834Y017500D01*
X008976Y017500D01*
X009022Y017512D01*
X009054Y017531D01*
X009054Y017119D01*
X008404Y017119D01*
X008301Y017077D01*
X008222Y016998D01*
X008097Y016873D01*
X008054Y016770D01*
X008054Y016680D01*
X008035Y016699D01*
X007633Y016699D01*
X007584Y016650D01*
X007535Y016699D01*
X007133Y016699D01*
X007099Y016665D01*
X007099Y016767D02*
X008054Y016767D01*
X008149Y016925D02*
X007099Y016925D01*
X007050Y017084D02*
X008318Y017084D01*
X008834Y017559D02*
X008834Y017559D01*
X008834Y017718D02*
X008834Y017718D01*
X008834Y017876D02*
X008834Y017876D01*
X008834Y018035D02*
X008834Y018035D01*
X008834Y018193D02*
X008834Y018193D01*
X008834Y018352D02*
X008834Y018352D01*
X008834Y018510D02*
X008834Y018510D01*
X008834Y018669D02*
X008834Y018669D01*
X008614Y018827D02*
X009054Y018827D01*
X009054Y018986D02*
X008614Y018986D01*
X008614Y019144D02*
X009054Y019144D01*
X009595Y019567D02*
X009572Y019623D01*
X009493Y019702D01*
X009390Y019744D01*
X008760Y019744D01*
X008993Y019977D01*
X009072Y020056D01*
X009103Y020131D01*
X009612Y020131D01*
X009729Y020248D01*
X009729Y020347D01*
X009802Y020347D01*
X009905Y020389D01*
X009939Y020423D01*
X009939Y020248D01*
X010057Y020131D01*
X010589Y020131D01*
X010589Y020013D01*
X011036Y020013D01*
X011036Y019917D01*
X010589Y019917D01*
X010589Y019686D01*
X010602Y019640D01*
X010615Y019617D01*
X010569Y019572D01*
X010569Y019513D01*
X010422Y019513D01*
X010319Y019470D01*
X010314Y019465D01*
X010212Y019567D01*
X009595Y019567D01*
X009573Y019620D02*
X010613Y019620D01*
X010589Y019778D02*
X008794Y019778D01*
X008953Y019937D02*
X011036Y019937D01*
X011132Y019937D02*
X012162Y019937D01*
X012162Y020095D02*
X012258Y020095D01*
X012258Y020254D02*
X012162Y020254D01*
X012162Y020412D02*
X012258Y020412D01*
X012275Y020504D02*
X012544Y020774D01*
X012544Y021155D01*
X012275Y021424D01*
X011894Y021424D01*
X011624Y021155D01*
X011624Y020774D01*
X011894Y020504D01*
X012275Y020504D01*
X012341Y020571D02*
X012804Y020571D01*
X012669Y020729D02*
X012500Y020729D01*
X012544Y020888D02*
X012624Y020888D01*
X012624Y021046D02*
X012544Y021046D01*
X012494Y021205D02*
X012674Y021205D01*
X012833Y021363D02*
X012336Y021363D01*
X011833Y021363D02*
X010539Y021363D01*
X010539Y021205D02*
X011674Y021205D01*
X011624Y021046D02*
X011599Y021046D01*
X011599Y020888D02*
X011624Y020888D01*
X011599Y020729D02*
X011669Y020729D01*
X011599Y020571D02*
X011827Y020571D01*
X011833Y020412D02*
X011599Y020412D01*
X011577Y020254D02*
X011774Y020254D01*
X011774Y020095D02*
X011579Y020095D01*
X011579Y019778D02*
X011774Y019778D01*
X011776Y019620D02*
X011555Y019620D01*
X012162Y019620D02*
X012258Y019620D01*
X012258Y019778D02*
X012162Y019778D01*
X012958Y019964D02*
X013084Y019715D01*
X013084Y020964D01*
X013544Y020888D02*
X013602Y020888D01*
X013603Y020892D02*
X013458Y020468D01*
X013458Y020019D01*
X013603Y019595D01*
X013879Y019241D01*
X014254Y018996D01*
X014254Y018996D01*
X014689Y018886D01*
X015136Y018923D01*
X015136Y018923D01*
X015547Y019103D01*
X015547Y019103D01*
X015877Y019407D01*
X016091Y019801D01*
X016165Y020244D01*
X016091Y020686D01*
X016091Y020686D01*
X015877Y021081D01*
X015547Y021384D01*
X015136Y021565D01*
X014689Y021602D01*
X014254Y021492D01*
X013879Y021246D01*
X013603Y020892D01*
X013603Y020892D01*
X013544Y021046D02*
X013723Y021046D01*
X013847Y021205D02*
X013494Y021205D01*
X013336Y021363D02*
X014058Y021363D01*
X013879Y021246D02*
X013879Y021246D01*
X013879Y021246D01*
X014254Y021492D02*
X014254Y021492D01*
X014373Y021522D02*
X010539Y021522D01*
X010539Y021680D02*
X017649Y021680D01*
X017649Y021522D02*
X015234Y021522D01*
X015136Y021565D02*
X015136Y021565D01*
X015547Y021384D02*
X015547Y021384D01*
X015570Y021363D02*
X017649Y021363D01*
X017649Y021205D02*
X015742Y021205D01*
X015877Y021081D02*
X015877Y021081D01*
X015896Y021046D02*
X016569Y021046D01*
X016569Y020888D02*
X015982Y020888D01*
X016067Y020729D02*
X016569Y020729D01*
X016569Y020571D02*
X016110Y020571D01*
X016136Y020412D02*
X016569Y020412D01*
X016569Y020254D02*
X016163Y020254D01*
X016140Y020095D02*
X016319Y020095D01*
X016197Y019937D02*
X016113Y019937D01*
X016091Y019801D02*
X016091Y019801D01*
X016078Y019778D02*
X016179Y019778D01*
X016179Y019620D02*
X015992Y019620D01*
X015907Y019461D02*
X016179Y019461D01*
X016179Y019303D02*
X015764Y019303D01*
X015877Y019407D02*
X015877Y019407D01*
X015592Y019144D02*
X016179Y019144D01*
X016110Y018986D02*
X015280Y018986D01*
X014689Y018886D02*
X014689Y018886D01*
X014294Y018986D02*
X013544Y018986D01*
X013544Y019144D02*
X014027Y019144D01*
X013879Y019241D02*
X013879Y019241D01*
X013831Y019303D02*
X013396Y019303D01*
X013309Y019461D02*
X013708Y019461D01*
X013603Y019595D02*
X013603Y019595D01*
X013595Y019620D02*
X013414Y019620D01*
X013414Y019778D02*
X013541Y019778D01*
X013486Y019937D02*
X013414Y019937D01*
X013414Y020095D02*
X013458Y020095D01*
X013458Y020254D02*
X013414Y020254D01*
X013458Y020412D02*
X013364Y020412D01*
X013364Y020571D02*
X013493Y020571D01*
X013500Y020729D02*
X013547Y020729D01*
X014689Y021602D02*
X014689Y021602D01*
X016459Y019839D02*
X016584Y019964D01*
X017085Y019964D01*
X017084Y019965D01*
X017085Y019964D02*
X019084Y019964D01*
X019334Y020214D01*
X019334Y021339D01*
X019459Y021464D01*
X019835Y021464D01*
X019375Y021732D02*
X019301Y021702D01*
X019289Y021690D01*
X019289Y021732D01*
X019375Y021732D01*
X018836Y021461D02*
X018833Y021464D01*
X018836Y021461D02*
X018836Y020627D01*
X018439Y020571D02*
X018229Y020571D01*
X018229Y020729D02*
X018439Y020729D01*
X018439Y020888D02*
X018229Y020888D01*
X018229Y020969D02*
X018365Y020969D01*
X018411Y020981D01*
X018439Y020998D01*
X018439Y020248D01*
X018444Y020244D01*
X018225Y020244D01*
X018229Y020248D01*
X018229Y020969D01*
X017832Y020627D02*
X017171Y020627D01*
X017084Y020713D01*
X016459Y019839D02*
X016459Y018839D01*
X016459Y016839D01*
X016584Y016714D01*
X017066Y016714D01*
X017084Y016695D01*
X017599Y016665D02*
X017599Y017034D01*
X017530Y017103D01*
X017543Y017116D01*
X017567Y017157D01*
X017579Y017203D01*
X017579Y017435D01*
X017132Y017435D01*
X017132Y017531D01*
X017579Y017531D01*
X017579Y017534D01*
X017633Y017480D01*
X018035Y017480D01*
X018084Y017529D01*
X018133Y017480D01*
X018535Y017480D01*
X018584Y017529D01*
X018633Y017480D01*
X019035Y017480D01*
X019098Y017543D01*
X019106Y017536D01*
X019147Y017512D01*
X019193Y017500D01*
X019334Y017500D01*
X019334Y018113D01*
X019334Y018726D01*
X019193Y018726D01*
X019147Y018714D01*
X019114Y018695D01*
X019114Y019184D01*
X019554Y019184D01*
X019554Y018695D01*
X019522Y018714D01*
X019476Y018726D01*
X019334Y018726D01*
X019334Y018113D01*
X019334Y018113D01*
X019334Y018113D01*
X019334Y017500D01*
X019476Y017500D01*
X019522Y017512D01*
X019554Y017531D01*
X019554Y017119D01*
X018904Y017119D01*
X018801Y017077D01*
X018676Y016952D01*
X018597Y016873D01*
X018554Y016770D01*
X018554Y016680D01*
X018535Y016699D01*
X018133Y016699D01*
X018084Y016650D01*
X018035Y016699D01*
X017633Y016699D01*
X017599Y016665D01*
X017599Y016767D02*
X018554Y016767D01*
X018649Y016925D02*
X017599Y016925D01*
X017550Y017084D02*
X018818Y017084D01*
X018959Y016839D02*
X018834Y016714D01*
X018834Y016066D01*
X018834Y014339D01*
X018566Y014072D02*
X017579Y014072D01*
X017579Y014047D02*
X017579Y014165D01*
X017132Y014165D01*
X017132Y014261D01*
X017579Y014261D01*
X017579Y014493D01*
X017567Y014539D01*
X017554Y014561D01*
X017599Y014607D01*
X017599Y014665D01*
X017746Y014665D01*
X017849Y014708D01*
X017854Y014713D01*
X017956Y014612D01*
X018554Y014612D01*
X018554Y014594D01*
X018514Y014554D01*
X018456Y014414D01*
X018456Y014264D01*
X018514Y014125D01*
X018591Y014047D01*
X018557Y014047D01*
X018439Y013930D01*
X018439Y013832D01*
X018366Y013832D01*
X018263Y013789D01*
X018229Y013755D01*
X018229Y013930D01*
X018112Y014047D01*
X017579Y014047D01*
X017579Y014389D02*
X018456Y014389D01*
X018470Y014231D02*
X017132Y014231D01*
X017036Y014231D02*
X016357Y014231D01*
X016357Y014254D02*
X016124Y014487D01*
X015959Y014487D01*
X015959Y014089D01*
X015959Y014089D01*
X015959Y014089D01*
X016357Y014089D01*
X016357Y014254D01*
X016357Y014072D02*
X016589Y014072D01*
X016595Y013914D02*
X016347Y013914D01*
X016188Y013755D02*
X016569Y013755D01*
X016569Y013597D02*
X015613Y013597D01*
X015728Y013755D02*
X015730Y013755D01*
X015959Y013755D02*
X015959Y013755D01*
X015959Y013914D02*
X015959Y013914D01*
X015959Y014072D02*
X015959Y014072D01*
X015959Y014231D02*
X015959Y014231D01*
X015959Y014389D02*
X015959Y014389D01*
X016222Y014389D02*
X016589Y014389D01*
X016607Y014548D02*
X015739Y014548D01*
X015739Y014706D02*
X016569Y014706D01*
X016569Y014865D02*
X015739Y014865D01*
X015739Y015023D02*
X016569Y015023D01*
X016569Y015182D02*
X015739Y015182D01*
X015739Y015340D02*
X016623Y015340D01*
X016569Y015499D02*
X015739Y015499D01*
X015739Y015657D02*
X016569Y015657D01*
X016569Y015816D02*
X016249Y015816D01*
X016357Y015974D02*
X016569Y015974D01*
X016630Y016133D02*
X016357Y016133D01*
X016357Y016089D02*
X016357Y016254D01*
X016124Y016487D01*
X015959Y016487D01*
X015959Y016089D01*
X015959Y016089D01*
X015959Y016089D01*
X016357Y016089D01*
X016320Y016291D02*
X016635Y016291D01*
X016491Y016450D02*
X016162Y016450D01*
X015959Y016450D02*
X015959Y016450D01*
X015959Y016291D02*
X015959Y016291D01*
X015959Y016133D02*
X015959Y016133D01*
X015959Y015974D02*
X015959Y015974D01*
X015959Y015816D02*
X015959Y015816D01*
X015179Y015657D02*
X013414Y015657D01*
X013414Y015816D02*
X013642Y015816D01*
X013541Y015916D02*
X013786Y015671D01*
X014133Y015671D01*
X014377Y015916D01*
X014377Y016262D01*
X014133Y016507D01*
X013786Y016507D01*
X013541Y016262D01*
X013541Y015916D01*
X013541Y015974D02*
X013414Y015974D01*
X013414Y016133D02*
X013541Y016133D01*
X013570Y016291D02*
X013414Y016291D01*
X013364Y016450D02*
X013729Y016450D01*
X013537Y016767D02*
X015179Y016767D01*
X015179Y016925D02*
X013544Y016925D01*
X013544Y017084D02*
X015179Y017084D01*
X015179Y017242D02*
X013457Y017242D01*
X013298Y017401D02*
X015179Y017401D01*
X015093Y017559D02*
X013407Y017559D01*
X013414Y017718D02*
X013740Y017718D01*
X013786Y017671D02*
X014133Y017671D01*
X014377Y017916D01*
X014377Y018262D01*
X014133Y018507D01*
X013786Y018507D01*
X013541Y018262D01*
X013541Y017916D01*
X013786Y017671D01*
X013581Y017876D02*
X013414Y017876D01*
X013414Y018035D02*
X013541Y018035D01*
X013541Y018193D02*
X013414Y018193D01*
X013414Y018352D02*
X013631Y018352D01*
X013364Y018510D02*
X016179Y018510D01*
X016120Y018669D02*
X013439Y018669D01*
X013544Y018827D02*
X016081Y018827D01*
X015959Y018487D02*
X015959Y018089D01*
X015959Y018487D01*
X015959Y018352D02*
X015959Y018352D01*
X015959Y018193D02*
X015959Y018193D01*
X015959Y018089D02*
X015959Y018089D01*
X015959Y018035D02*
X015959Y018035D01*
X015959Y017876D02*
X015959Y017876D01*
X015959Y017718D02*
X015959Y017718D01*
X015768Y017718D02*
X015709Y017718D01*
X015739Y017559D02*
X016179Y017559D01*
X016179Y017401D02*
X015739Y017401D01*
X015739Y017242D02*
X016179Y017242D01*
X016179Y017084D02*
X015739Y017084D01*
X015739Y016925D02*
X016179Y016925D01*
X016186Y016767D02*
X015739Y016767D01*
X015739Y016608D02*
X016294Y016608D01*
X015757Y016450D02*
X015739Y016450D01*
X015179Y016608D02*
X013379Y016608D01*
X013084Y016964D02*
X013084Y015715D01*
X012958Y015964D01*
X012570Y015499D02*
X012565Y015499D01*
X012359Y015340D02*
X012810Y015340D01*
X012651Y015182D02*
X012517Y015182D01*
X012544Y015023D02*
X012624Y015023D01*
X012624Y014865D02*
X012544Y014865D01*
X012477Y014706D02*
X012692Y014706D01*
X012804Y014548D02*
X012318Y014548D01*
X012258Y014389D02*
X012162Y014389D01*
X012162Y014231D02*
X012258Y014231D01*
X012258Y014072D02*
X012162Y014072D01*
X012162Y013914D02*
X012258Y013914D01*
X012258Y013755D02*
X012162Y013755D01*
X012162Y013597D02*
X012258Y013597D01*
X012958Y013964D02*
X013084Y013715D01*
X013084Y014964D01*
X013544Y015023D02*
X015179Y015023D01*
X015179Y014865D02*
X013544Y014865D01*
X013477Y014706D02*
X015179Y014706D01*
X015179Y014548D02*
X013364Y014548D01*
X013387Y014389D02*
X013668Y014389D01*
X013786Y014507D02*
X013541Y014262D01*
X013541Y013916D01*
X013786Y013671D01*
X014133Y013671D01*
X014377Y013916D01*
X014377Y014262D01*
X014133Y014507D01*
X013786Y014507D01*
X013541Y014231D02*
X013414Y014231D01*
X013414Y014072D02*
X013541Y014072D01*
X013544Y013914D02*
X013414Y013914D01*
X013414Y013755D02*
X013702Y013755D01*
X013414Y013597D02*
X014071Y013597D01*
X014217Y013755D02*
X014229Y013755D01*
X014375Y013914D02*
X014388Y013914D01*
X014377Y014072D02*
X014541Y014072D01*
X014541Y014231D02*
X014377Y014231D01*
X014251Y014389D02*
X014668Y014389D01*
X014959Y014089D02*
X013834Y012964D01*
X013084Y012964D01*
X012741Y012804D02*
X012015Y012804D01*
X012072Y012748D02*
X012072Y012748D01*
X012174Y012646D02*
X012868Y012646D01*
X012727Y012329D02*
X013831Y012329D01*
X013861Y012487D02*
X012326Y012487D01*
X013147Y013438D02*
X013912Y013438D01*
X013754Y013280D02*
X013304Y013280D01*
X014070Y012804D02*
X014241Y012804D01*
X013981Y012646D02*
X013301Y012646D01*
X013274Y012170D02*
X013870Y012170D01*
X014011Y012012D02*
X013433Y012012D01*
X013591Y011853D02*
X014917Y011853D01*
X015002Y012330D02*
X015002Y012377D01*
X015006Y012372D01*
X015030Y012358D01*
X015002Y012330D01*
X014937Y012684D02*
X014888Y012733D01*
X014905Y012750D01*
X014937Y012826D01*
X014937Y012732D01*
X015374Y012732D01*
X015374Y012695D01*
X014937Y012695D01*
X014937Y012684D01*
X014928Y012804D02*
X014937Y012804D01*
X015137Y013121D02*
X016575Y013121D01*
X016569Y013280D02*
X015296Y013280D01*
X015411Y013090D02*
X015411Y012732D01*
X015848Y012732D01*
X015848Y012934D01*
X015836Y012980D01*
X015812Y013021D01*
X015779Y013054D01*
X015737Y013078D01*
X015692Y013090D01*
X015411Y013090D01*
X015411Y012963D02*
X015374Y012963D01*
X015374Y012804D02*
X015411Y012804D01*
X015848Y012804D02*
X015947Y012804D01*
X015879Y012646D02*
X015848Y012646D01*
X016084Y012339D02*
X016335Y012339D01*
X016084Y012339D02*
X015710Y011965D01*
X015392Y011965D01*
X015868Y011727D02*
X015869Y011728D01*
X015981Y011840D01*
X015997Y011824D01*
X016298Y011824D01*
X016222Y011748D01*
X016198Y011689D01*
X016062Y011689D01*
X015944Y011572D01*
X015944Y011114D01*
X015877Y011238D01*
X015547Y011542D01*
X015487Y011568D01*
X015751Y011568D01*
X015868Y011685D01*
X015868Y011727D01*
X015868Y011695D02*
X016200Y011695D01*
X016459Y011589D02*
X016459Y011233D01*
X016459Y011589D02*
X016584Y011714D01*
X016959Y011714D01*
X017084Y011839D01*
X017084Y012338D01*
X017083Y012339D01*
X017459Y012339D01*
X017834Y011964D01*
X018311Y011964D01*
X018311Y011464D02*
X017584Y011464D01*
X016959Y010839D01*
X016959Y010714D01*
X016834Y010589D01*
X016603Y010589D01*
X016459Y010445D01*
X016464Y009990D02*
X016096Y009990D01*
X016091Y009959D01*
X016091Y009959D01*
X015877Y009564D01*
X015877Y009564D01*
X015547Y009260D01*
X015547Y009260D01*
X015384Y009189D01*
X015857Y009189D01*
X015885Y009161D01*
X016073Y009349D01*
X016073Y009539D01*
X016116Y009641D01*
X016464Y009990D01*
X016425Y009951D02*
X016087Y009951D01*
X016001Y009793D02*
X016267Y009793D01*
X016113Y009634D02*
X015915Y009634D01*
X015781Y009476D02*
X016073Y009476D01*
X016041Y009317D02*
X015609Y009317D01*
X016353Y009483D02*
X017334Y010464D01*
X017834Y010964D01*
X018311Y010964D01*
X019459Y010964D01*
X019584Y010839D01*
X019584Y009964D01*
X018311Y009964D01*
X018311Y009464D02*
X017478Y009464D01*
X017334Y009608D01*
X017330Y010064D02*
X017352Y010086D01*
X017410Y010086D01*
X017549Y010143D01*
X017655Y010250D01*
X017678Y010304D01*
X017678Y010263D01*
X017727Y010214D01*
X017678Y010165D01*
X017678Y010064D01*
X017330Y010064D01*
X017467Y010110D02*
X017678Y010110D01*
X017663Y010268D02*
X017678Y010268D01*
X018311Y010464D02*
X019084Y010464D01*
X019584Y009964D02*
X020358Y009964D01*
X020358Y009464D02*
X019834Y009464D01*
X019209Y008839D01*
X018944Y009109D02*
X018944Y009113D01*
X018947Y009112D01*
X018944Y009109D01*
X019084Y009464D02*
X018311Y009464D01*
X018311Y008964D02*
X017478Y008964D01*
X017334Y008820D01*
X017316Y008964D01*
X017849Y008525D02*
X018128Y008525D01*
X018259Y008366D02*
X017734Y008366D01*
X017874Y008208D02*
X017911Y008208D01*
X017911Y008049D02*
X017874Y008049D01*
X018459Y008589D02*
X018334Y008714D01*
X018334Y008941D01*
X018311Y008964D01*
X018459Y008589D02*
X018584Y008589D01*
X018709Y008464D01*
X018709Y007963D01*
X019189Y007589D02*
X019209Y007569D01*
X019230Y007589D01*
X019209Y007609D01*
X019189Y007589D01*
X019205Y007574D02*
X019214Y007574D01*
X019709Y007215D02*
X019709Y007156D01*
X020460Y007156D01*
X020470Y007632D02*
X020224Y007632D01*
X020224Y008302D01*
X020217Y008309D01*
X020265Y008309D01*
X020368Y008352D01*
X020447Y008431D01*
X020493Y008477D01*
X020572Y008556D01*
X020609Y008646D01*
X020819Y008646D01*
X020819Y008498D01*
X020555Y008498D01*
X020437Y008381D01*
X020437Y007664D01*
X020470Y007632D01*
X020437Y007732D02*
X020224Y007732D01*
X020224Y007891D02*
X020437Y007891D01*
X020437Y008049D02*
X020224Y008049D01*
X020224Y008208D02*
X020437Y008208D01*
X020437Y008366D02*
X020382Y008366D01*
X020447Y008431D02*
X020447Y008431D01*
X020493Y008477D02*
X020493Y008477D01*
X020541Y008525D02*
X020819Y008525D01*
X021231Y008365D02*
X021464Y008365D01*
X021401Y008302D01*
X021231Y008302D01*
X021231Y008365D01*
X021517Y008022D02*
X020834Y008022D01*
X021231Y007742D02*
X021573Y007742D01*
X021676Y007785D01*
X022075Y008184D01*
X022234Y008184D01*
X022235Y008181D01*
X022376Y008040D01*
X022560Y007964D01*
X023359Y007964D01*
X023543Y008040D01*
X023683Y008181D01*
X023759Y008365D01*
X023759Y008564D01*
X023683Y008747D01*
X023543Y008888D01*
X023359Y008964D01*
X022560Y008964D01*
X022376Y008888D01*
X022235Y008747D01*
X022234Y008744D01*
X021904Y008744D01*
X021849Y008722D01*
X021849Y009159D01*
X021794Y009214D01*
X021849Y009269D01*
X021849Y009947D01*
X021732Y010064D01*
X020991Y010064D01*
X020991Y010165D01*
X020928Y010228D01*
X020935Y010236D01*
X020959Y010277D01*
X020971Y010322D01*
X020971Y010464D01*
X020358Y010464D01*
X020358Y010464D01*
X020971Y010464D01*
X020971Y010606D01*
X020959Y010652D01*
X020935Y010693D01*
X020914Y010714D01*
X020935Y010736D01*
X020959Y010777D01*
X020971Y010822D01*
X020971Y010964D01*
X020358Y010964D01*
X020358Y010464D01*
X020358Y010464D01*
X020358Y010762D01*
X020358Y010964D01*
X020358Y010964D01*
X020358Y010964D01*
X020358Y011464D01*
X020358Y010964D01*
X020971Y010964D01*
X020971Y011106D01*
X020959Y011152D01*
X020935Y011193D01*
X020914Y011214D01*
X020935Y011236D01*
X020959Y011277D01*
X020971Y011322D01*
X020971Y011464D01*
X020358Y011464D01*
X020358Y011464D01*
X020358Y011464D01*
X020358Y011166D01*
X020358Y010964D01*
X020358Y010964D01*
X020358Y010902D02*
X020358Y010902D01*
X020358Y010744D02*
X020358Y010744D01*
X020358Y010585D02*
X020358Y010585D01*
X020358Y011061D02*
X020358Y011061D01*
X020358Y011219D02*
X020358Y011219D01*
X020358Y011378D02*
X020358Y011378D01*
X020358Y011464D02*
X019745Y011464D01*
X019745Y011322D01*
X019757Y011277D01*
X019781Y011236D01*
X019802Y011214D01*
X019781Y011193D01*
X019757Y011152D01*
X019745Y011106D01*
X019745Y011075D01*
X019743Y011077D01*
X019618Y011202D01*
X019610Y011205D01*
X019655Y011250D01*
X019713Y011389D01*
X019713Y011539D01*
X019655Y011679D01*
X019614Y011719D01*
X019614Y012199D01*
X019759Y012199D01*
X019725Y012165D01*
X019725Y011763D01*
X019788Y011700D01*
X019781Y011693D01*
X019757Y011652D01*
X019745Y011606D01*
X019745Y011464D01*
X020358Y011464D01*
X020358Y011464D01*
X020971Y011464D01*
X020971Y011606D01*
X020959Y011652D01*
X020935Y011693D01*
X020928Y011700D01*
X020991Y011763D01*
X020991Y012165D01*
X020919Y012237D01*
X020950Y012255D01*
X020983Y012289D01*
X021007Y012330D01*
X021019Y012376D01*
X021019Y012666D01*
X020631Y012666D01*
X020631Y012762D01*
X021019Y012762D01*
X021019Y013053D01*
X021018Y013056D01*
X021116Y013056D01*
X021233Y013174D01*
X021233Y013259D01*
X021982Y013259D01*
X022099Y013376D01*
X022099Y014054D01*
X022064Y014089D01*
X022099Y014124D01*
X022099Y014802D01*
X022072Y014829D01*
X022099Y014857D01*
X022099Y015534D01*
X022044Y015589D01*
X022099Y015644D01*
X022099Y016322D01*
X022031Y016390D01*
X022270Y016628D01*
X022394Y016504D01*
X022775Y016504D01*
X023044Y016774D01*
X023044Y017155D01*
X022775Y017424D01*
X022394Y017424D01*
X022214Y017244D01*
X022154Y017244D01*
X022051Y017202D01*
X021972Y017123D01*
X021347Y016498D01*
X021323Y016439D01*
X021187Y016439D01*
X021152Y016405D01*
X021152Y016581D01*
X021035Y016699D01*
X020633Y016699D01*
X020584Y016650D01*
X020535Y016699D01*
X020133Y016699D01*
X020114Y016680D01*
X020114Y017499D01*
X020133Y017480D01*
X020535Y017480D01*
X020584Y017529D01*
X020633Y017480D01*
X021035Y017480D01*
X021152Y017597D01*
X021152Y018024D01*
X021187Y017990D01*
X021982Y017990D01*
X022099Y018107D01*
X022099Y018165D01*
X022121Y018165D01*
X022224Y018208D01*
X022274Y018258D01*
X022274Y018012D01*
X022662Y018012D01*
X022662Y017916D01*
X022274Y017916D01*
X022274Y017626D01*
X022287Y017580D01*
X022310Y017539D01*
X022344Y017505D01*
X022385Y017481D01*
X022431Y017469D01*
X022662Y017469D01*
X022662Y017916D01*
X022758Y017916D01*
X022758Y017469D01*
X022990Y017469D01*
X023036Y017481D01*
X023068Y017500D01*
X023120Y017449D01*
X023495Y017449D01*
X023529Y017435D01*
X023540Y017435D01*
X023550Y017432D01*
X023595Y017435D01*
X023640Y017435D01*
X023650Y017439D01*
X023661Y017440D01*
X023679Y017449D01*
X023797Y017449D01*
X023914Y017566D01*
X023914Y018362D01*
X023864Y018412D01*
X023864Y018594D01*
X024044Y018774D01*
X024044Y019155D01*
X023775Y019424D01*
X023394Y019424D01*
X023124Y019155D01*
X023124Y018774D01*
X023304Y018594D01*
X023304Y018479D01*
X023120Y018479D01*
X023068Y018428D01*
X023036Y018447D01*
X022990Y018459D01*
X022758Y018459D01*
X022758Y018012D01*
X022662Y018012D01*
X022662Y018459D01*
X022475Y018459D01*
X022520Y018504D01*
X022775Y018504D01*
X023044Y018774D01*
X023044Y019155D01*
X022775Y019424D01*
X022394Y019424D01*
X022124Y019155D01*
X022124Y018900D01*
X022054Y018830D01*
X022044Y018839D01*
X022099Y018894D01*
X022099Y019572D01*
X022054Y019617D01*
X022067Y019640D01*
X022079Y019686D01*
X022079Y019917D01*
X021632Y019917D01*
X021632Y020013D01*
X022079Y020013D01*
X022079Y020245D01*
X022067Y020291D01*
X022048Y020323D01*
X022099Y020374D01*
X022099Y021052D01*
X021982Y021169D01*
X021187Y021169D01*
X021128Y021110D01*
X021116Y021122D01*
X021039Y021122D01*
X021039Y021732D01*
X024164Y021732D01*
X024164Y006944D01*
X021585Y006944D01*
X021585Y007138D01*
X021227Y007138D01*
X021227Y007175D01*
X021190Y007175D01*
X021190Y007612D01*
X021179Y007612D01*
X021231Y007664D01*
X021231Y007742D01*
X021231Y007732D02*
X022261Y007732D01*
X022249Y007716D02*
X022293Y007777D01*
X022347Y007830D01*
X022408Y007875D01*
X022475Y007909D01*
X022547Y007932D01*
X022622Y007944D01*
X022939Y007944D01*
X022939Y007484D01*
X022939Y007444D01*
X022179Y007444D01*
X022179Y007426D01*
X022191Y007352D01*
X022214Y007280D01*
X022249Y007213D01*
X022293Y007151D01*
X022347Y007098D01*
X022408Y007054D01*
X022475Y007019D01*
X022547Y006996D01*
X022622Y006984D01*
X022939Y006984D01*
X022939Y007444D01*
X022979Y007444D01*
X022979Y006984D01*
X023297Y006984D01*
X023372Y006996D01*
X023444Y007019D01*
X023511Y007054D01*
X023572Y007098D01*
X023625Y007151D01*
X023670Y007213D01*
X023704Y007280D01*
X023727Y007352D01*
X023739Y007426D01*
X023739Y007444D01*
X022979Y007444D01*
X022979Y007484D01*
X022939Y007484D01*
X022179Y007484D01*
X022179Y007502D01*
X022191Y007577D01*
X022214Y007648D01*
X022249Y007716D01*
X022191Y007574D02*
X021518Y007574D01*
X021516Y007576D02*
X021475Y007599D01*
X021429Y007612D01*
X021227Y007612D01*
X021227Y007175D01*
X021585Y007175D01*
X021585Y007455D01*
X021573Y007501D01*
X021549Y007542D01*
X021516Y007576D01*
X021585Y007415D02*
X022181Y007415D01*
X022226Y007257D02*
X021585Y007257D01*
X021585Y007098D02*
X022346Y007098D01*
X022939Y007098D02*
X022979Y007098D01*
X022979Y007257D02*
X022939Y007257D01*
X022939Y007415D02*
X022979Y007415D01*
X022979Y007484D02*
X023739Y007484D01*
X023739Y007502D01*
X023727Y007577D01*
X023704Y007648D01*
X023670Y007716D01*
X023625Y007777D01*
X023572Y007830D01*
X023511Y007875D01*
X023444Y007909D01*
X023372Y007932D01*
X023297Y007944D01*
X022979Y007944D01*
X022979Y007484D01*
X022979Y007574D02*
X022939Y007574D01*
X022939Y007732D02*
X022979Y007732D01*
X022979Y007891D02*
X022939Y007891D01*
X023480Y007891D02*
X024164Y007891D01*
X024164Y008049D02*
X023551Y008049D01*
X023694Y008208D02*
X024164Y008208D01*
X024164Y008366D02*
X023759Y008366D01*
X023759Y008525D02*
X024164Y008525D01*
X024164Y008683D02*
X023710Y008683D01*
X023589Y008842D02*
X024164Y008842D01*
X024164Y009000D02*
X021849Y009000D01*
X021849Y008842D02*
X022330Y008842D01*
X022547Y009219D02*
X022622Y009208D01*
X022939Y009208D01*
X022939Y009668D01*
X022179Y009668D01*
X022179Y009650D01*
X022191Y009575D01*
X022214Y009503D01*
X022249Y009436D01*
X022293Y009375D01*
X022347Y009321D01*
X022408Y009277D01*
X022475Y009243D01*
X022547Y009219D01*
X022353Y009317D02*
X021849Y009317D01*
X021849Y009159D02*
X024164Y009159D01*
X024164Y009317D02*
X023566Y009317D01*
X023572Y009321D02*
X023625Y009375D01*
X023670Y009436D01*
X023704Y009503D01*
X023727Y009575D01*
X023739Y009650D01*
X023739Y009668D01*
X022979Y009668D01*
X022979Y009708D01*
X022939Y009708D01*
X022939Y010168D01*
X022622Y010168D01*
X022547Y010156D01*
X022475Y010132D01*
X022408Y010098D01*
X022347Y010054D01*
X022293Y010000D01*
X022249Y009939D01*
X022214Y009872D01*
X022191Y009800D01*
X022179Y009725D01*
X022179Y009708D01*
X022939Y009708D01*
X022939Y009668D01*
X022979Y009668D01*
X022979Y009208D01*
X023297Y009208D01*
X023372Y009219D01*
X023444Y009243D01*
X023511Y009277D01*
X023572Y009321D01*
X023690Y009476D02*
X024164Y009476D01*
X024164Y009634D02*
X023737Y009634D01*
X023739Y009708D02*
X023739Y009725D01*
X023727Y009800D01*
X023704Y009872D01*
X023670Y009939D01*
X023625Y010000D01*
X023572Y010054D01*
X023511Y010098D01*
X023444Y010132D01*
X023372Y010156D01*
X023297Y010168D01*
X022979Y010168D01*
X022979Y009708D01*
X023739Y009708D01*
X023729Y009793D02*
X024164Y009793D01*
X024164Y009951D02*
X023661Y009951D01*
X023488Y010110D02*
X024164Y010110D01*
X024164Y010268D02*
X023547Y010268D01*
X023543Y010264D02*
X023683Y010404D01*
X023759Y010588D01*
X023759Y010787D01*
X023683Y010971D01*
X023543Y011111D01*
X023359Y011188D01*
X022560Y011188D01*
X022376Y011111D01*
X022235Y010971D01*
X022159Y010787D01*
X022159Y010588D01*
X022235Y010404D01*
X022376Y010264D01*
X022560Y010188D01*
X023359Y010188D01*
X023543Y010264D01*
X023692Y010427D02*
X024164Y010427D01*
X024164Y010585D02*
X023758Y010585D01*
X023759Y010744D02*
X024164Y010744D01*
X024164Y010902D02*
X023712Y010902D01*
X023593Y011061D02*
X024164Y011061D01*
X024164Y011219D02*
X020919Y011219D01*
X020971Y011061D02*
X022325Y011061D01*
X022207Y010902D02*
X020971Y010902D01*
X020940Y010744D02*
X022159Y010744D01*
X022161Y010585D02*
X020971Y010585D01*
X020971Y010427D02*
X022226Y010427D01*
X022372Y010268D02*
X020954Y010268D01*
X020991Y010110D02*
X022430Y010110D01*
X022258Y009951D02*
X021845Y009951D01*
X021849Y009793D02*
X022190Y009793D01*
X022182Y009634D02*
X021849Y009634D01*
X021849Y009476D02*
X022229Y009476D01*
X022939Y009476D02*
X022979Y009476D01*
X022979Y009634D02*
X022939Y009634D01*
X022939Y009793D02*
X022979Y009793D01*
X022979Y009951D02*
X022939Y009951D01*
X022939Y010110D02*
X022979Y010110D01*
X022979Y009317D02*
X022939Y009317D01*
X022959Y008464D02*
X021959Y008464D01*
X021517Y008022D01*
X021782Y007891D02*
X022439Y007891D01*
X022367Y008049D02*
X021940Y008049D01*
X021227Y007574D02*
X021190Y007574D01*
X021190Y007415D02*
X021227Y007415D01*
X021227Y007257D02*
X021190Y007257D01*
X020854Y007518D02*
X020825Y007547D01*
X020872Y007547D01*
X020867Y007542D01*
X020854Y007518D01*
X019709Y007963D02*
X019709Y008464D01*
X019834Y008589D01*
X020209Y008589D01*
X020334Y008714D01*
X020334Y008941D01*
X020358Y008964D01*
X021191Y008964D01*
X021334Y008820D01*
X021191Y009464D02*
X020358Y009464D01*
X019658Y009684D02*
X019463Y009489D01*
X019463Y009539D01*
X019405Y009679D01*
X019399Y009684D01*
X019658Y009684D01*
X019608Y009634D02*
X019424Y009634D01*
X019725Y008959D02*
X019588Y008822D01*
X019588Y008764D01*
X019570Y008721D01*
X019597Y008748D01*
X019676Y008827D01*
X019725Y008847D01*
X019725Y008959D01*
X019712Y008842D02*
X019608Y008842D01*
X019432Y008527D02*
X019429Y008520D01*
X019429Y008419D01*
X019312Y008419D01*
X019209Y008317D01*
X019107Y008419D01*
X018989Y008419D01*
X018989Y008520D01*
X018986Y008527D01*
X018995Y008518D01*
X019134Y008461D01*
X019285Y008461D01*
X019424Y008518D01*
X019432Y008527D01*
X019430Y008525D02*
X019431Y008525D01*
X019259Y008366D02*
X019160Y008366D01*
X018989Y008525D02*
X018987Y008525D01*
X018709Y007215D02*
X017892Y007215D01*
X015507Y007574D02*
X015411Y007574D01*
X015411Y007732D02*
X015507Y007732D01*
X015507Y007891D02*
X015411Y007891D01*
X015006Y007574D02*
X014924Y007574D01*
X013402Y007891D02*
X012286Y007891D01*
X012286Y008049D02*
X013402Y008049D01*
X013402Y008208D02*
X012286Y008208D01*
X012249Y008366D02*
X013448Y008366D01*
X013289Y009159D02*
X013619Y009159D01*
X013460Y009317D02*
X013285Y009317D01*
X013302Y009476D02*
X012512Y009476D01*
X012761Y009634D02*
X013189Y009634D01*
X013179Y009793D02*
X012854Y009793D01*
X012884Y009951D02*
X013179Y009951D01*
X013179Y010110D02*
X012865Y010110D01*
X012787Y010268D02*
X013179Y010268D01*
X012901Y009317D02*
X012805Y009317D01*
X012805Y009159D02*
X012901Y009159D01*
X013739Y011378D02*
X013859Y011378D01*
X013739Y011536D02*
X014082Y011536D01*
X014254Y011649D02*
X014254Y011649D01*
X014435Y011695D02*
X013719Y011695D01*
X014209Y012339D02*
X014526Y012339D01*
X014584Y012964D02*
X015459Y013839D01*
X015459Y017589D01*
X014959Y018089D01*
X014631Y018352D02*
X014288Y018352D01*
X014377Y018193D02*
X014541Y018193D01*
X014541Y018035D02*
X014377Y018035D01*
X014338Y017876D02*
X014581Y017876D01*
X014740Y017718D02*
X014179Y017718D01*
X015288Y018352D02*
X015659Y018352D01*
X015561Y018193D02*
X015377Y018193D01*
X015410Y018035D02*
X015561Y018035D01*
X015568Y017876D02*
X015609Y017876D01*
X016151Y017718D02*
X016179Y017718D01*
X016739Y017917D02*
X016745Y017919D01*
X016739Y017933D01*
X016739Y017917D01*
X017084Y018089D02*
X017084Y018445D01*
X017728Y018445D01*
X017834Y018339D01*
X017834Y018113D01*
X017516Y018024D02*
X017516Y017876D01*
X017510Y017883D01*
X017469Y017907D01*
X017423Y017919D01*
X017453Y017990D01*
X017482Y017990D01*
X017516Y018024D01*
X018334Y018113D02*
X018334Y019091D01*
X018297Y019089D01*
X017834Y019089D01*
X017691Y019233D01*
X017084Y019233D01*
X017599Y019513D02*
X017599Y019572D01*
X017572Y019599D01*
X017599Y019626D01*
X017599Y019684D01*
X018658Y019684D01*
X018597Y019623D01*
X018574Y019567D01*
X017956Y019567D01*
X017854Y019465D01*
X017849Y019470D01*
X017746Y019513D01*
X017599Y019513D01*
X017593Y019620D02*
X018596Y019620D01*
X018834Y019464D02*
X019834Y019464D01*
X019834Y018113D01*
X019834Y016839D01*
X018959Y016839D01*
X019554Y017242D02*
X017579Y017242D01*
X017579Y017401D02*
X019554Y017401D01*
X019334Y017559D02*
X019334Y017559D01*
X019334Y017718D02*
X019334Y017718D01*
X019334Y017876D02*
X019334Y017876D01*
X019334Y018035D02*
X019334Y018035D01*
X019334Y018193D02*
X019334Y018193D01*
X019334Y018352D02*
X019334Y018352D01*
X019334Y018510D02*
X019334Y018510D01*
X019334Y018669D02*
X019334Y018669D01*
X019114Y018827D02*
X019554Y018827D01*
X019554Y018986D02*
X019114Y018986D01*
X019114Y019144D02*
X019554Y019144D01*
X020095Y019567D02*
X020072Y019623D01*
X019993Y019702D01*
X019890Y019744D01*
X019260Y019744D01*
X019322Y019806D01*
X019572Y020056D01*
X019603Y020131D01*
X020112Y020131D01*
X020229Y020248D01*
X020229Y020347D01*
X020302Y020347D01*
X020405Y020389D01*
X020439Y020423D01*
X020439Y020248D01*
X020557Y020131D01*
X021089Y020131D01*
X021089Y020013D01*
X021536Y020013D01*
X021536Y019917D01*
X021089Y019917D01*
X021089Y019686D01*
X021102Y019640D01*
X021115Y019617D01*
X021069Y019572D01*
X021069Y019513D01*
X020922Y019513D01*
X020819Y019470D01*
X020814Y019465D01*
X020712Y019567D01*
X020095Y019567D01*
X020073Y019620D02*
X021113Y019620D01*
X021089Y019778D02*
X019294Y019778D01*
X019322Y019806D02*
X019322Y019806D01*
X019453Y019937D02*
X021536Y019937D01*
X021632Y019937D02*
X022662Y019937D01*
X022662Y019916D02*
X022274Y019916D01*
X022274Y019626D01*
X022287Y019580D01*
X022310Y019539D01*
X022344Y019505D01*
X022385Y019481D01*
X022431Y019469D01*
X022662Y019469D01*
X022662Y019916D01*
X022662Y020012D01*
X022274Y020012D01*
X022274Y020303D01*
X022287Y020349D01*
X022310Y020390D01*
X022344Y020423D01*
X022385Y020447D01*
X022431Y020459D01*
X022662Y020459D01*
X022662Y020012D01*
X022758Y020012D01*
X022758Y020459D01*
X022990Y020459D01*
X023036Y020447D01*
X023068Y020428D01*
X023120Y020479D01*
X023304Y020479D01*
X023304Y020594D01*
X023124Y020774D01*
X023124Y021155D01*
X023394Y021424D01*
X023775Y021424D01*
X024044Y021155D01*
X024044Y020774D01*
X023864Y020594D01*
X023864Y020412D01*
X023914Y020362D01*
X023914Y019566D01*
X023797Y019449D01*
X023679Y019449D01*
X023661Y019440D01*
X023650Y019439D01*
X023640Y019435D01*
X023595Y019435D01*
X023550Y019432D01*
X023540Y019435D01*
X023529Y019435D01*
X023495Y019449D01*
X023120Y019449D01*
X023068Y019500D01*
X023036Y019481D01*
X022990Y019469D01*
X022758Y019469D01*
X022758Y019916D01*
X022662Y019916D01*
X022662Y019778D02*
X022758Y019778D01*
X022758Y019620D02*
X022662Y019620D01*
X022896Y019303D02*
X023272Y019303D01*
X023124Y019144D02*
X023044Y019144D01*
X023044Y018986D02*
X023124Y018986D01*
X023124Y018827D02*
X023044Y018827D01*
X022939Y018669D02*
X023229Y018669D01*
X023304Y018510D02*
X022781Y018510D01*
X022758Y018352D02*
X022662Y018352D01*
X022662Y018193D02*
X022758Y018193D01*
X022758Y018035D02*
X022662Y018035D01*
X022662Y017876D02*
X022758Y017876D01*
X022758Y017718D02*
X022662Y017718D01*
X022662Y017559D02*
X022758Y017559D01*
X022798Y017401D02*
X023370Y017401D01*
X023394Y017424D02*
X023124Y017155D01*
X023124Y016774D01*
X023304Y016594D01*
X023304Y016479D01*
X023120Y016479D01*
X023068Y016428D01*
X023036Y016447D01*
X022990Y016459D01*
X022758Y016459D01*
X022758Y016012D01*
X022662Y016012D01*
X022662Y015916D01*
X022274Y015916D01*
X022274Y015626D01*
X022287Y015580D01*
X022310Y015539D01*
X022344Y015505D01*
X022385Y015481D01*
X022431Y015469D01*
X022662Y015469D01*
X022662Y015916D01*
X022758Y015916D01*
X022758Y015469D01*
X022990Y015469D01*
X023036Y015481D01*
X023068Y015500D01*
X023120Y015449D01*
X023495Y015449D01*
X023529Y015435D01*
X023540Y015435D01*
X023550Y015432D01*
X023595Y015435D01*
X023640Y015435D01*
X023650Y015439D01*
X023661Y015440D01*
X023679Y015449D01*
X023797Y015449D01*
X023914Y015566D01*
X023914Y016362D01*
X023864Y016412D01*
X023864Y016594D01*
X024044Y016774D01*
X024044Y017155D01*
X023775Y017424D01*
X023394Y017424D01*
X023212Y017242D02*
X022957Y017242D01*
X023044Y017084D02*
X023124Y017084D01*
X023124Y016925D02*
X023044Y016925D01*
X023037Y016767D02*
X023131Y016767D01*
X023290Y016608D02*
X022879Y016608D01*
X022758Y016450D02*
X022662Y016450D01*
X022662Y016459D02*
X022431Y016459D01*
X022385Y016447D01*
X022344Y016423D01*
X022310Y016390D01*
X022287Y016349D01*
X022274Y016303D01*
X022274Y016012D01*
X022662Y016012D01*
X022662Y016459D01*
X022662Y016291D02*
X022758Y016291D01*
X022758Y016133D02*
X022662Y016133D01*
X022662Y015974D02*
X022099Y015974D01*
X022099Y015816D02*
X022274Y015816D01*
X022274Y015657D02*
X022099Y015657D01*
X022099Y015499D02*
X022355Y015499D01*
X022394Y015424D02*
X022124Y015155D01*
X022124Y014774D01*
X022394Y014504D01*
X022775Y014504D01*
X023044Y014774D01*
X023044Y015155D01*
X022775Y015424D01*
X022394Y015424D01*
X022310Y015340D02*
X022099Y015340D01*
X022099Y015182D02*
X022151Y015182D01*
X022124Y015023D02*
X022099Y015023D01*
X022099Y014865D02*
X022124Y014865D01*
X022099Y014706D02*
X022192Y014706D01*
X022099Y014548D02*
X022350Y014548D01*
X022385Y014447D02*
X022344Y014423D01*
X022310Y014390D01*
X022287Y014349D01*
X022274Y014303D01*
X022274Y014012D01*
X022662Y014012D01*
X022662Y013916D01*
X022274Y013916D01*
X022274Y013626D01*
X022287Y013580D01*
X022310Y013539D01*
X022344Y013505D01*
X022385Y013481D01*
X022431Y013469D01*
X022662Y013469D01*
X022662Y013916D01*
X022758Y013916D01*
X022758Y013469D01*
X022990Y013469D01*
X023036Y013481D01*
X023068Y013500D01*
X023120Y013449D01*
X023495Y013449D01*
X023529Y013435D01*
X023540Y013435D01*
X023550Y013432D01*
X023595Y013435D01*
X023640Y013435D01*
X023650Y013439D01*
X023661Y013440D01*
X023679Y013449D01*
X023797Y013449D01*
X023914Y013566D01*
X023914Y014362D01*
X023864Y014412D01*
X023864Y014594D01*
X024044Y014774D01*
X024044Y015155D01*
X023775Y015424D01*
X023394Y015424D01*
X023124Y015155D01*
X023124Y014774D01*
X023304Y014594D01*
X023304Y014479D01*
X023120Y014479D01*
X023068Y014428D01*
X023036Y014447D01*
X022990Y014459D01*
X022758Y014459D01*
X022758Y014012D01*
X022662Y014012D01*
X022662Y014459D01*
X022431Y014459D01*
X022385Y014447D01*
X022310Y014389D02*
X022099Y014389D01*
X022099Y014231D02*
X022274Y014231D01*
X022274Y014072D02*
X022081Y014072D01*
X022099Y013914D02*
X022274Y013914D01*
X022274Y013755D02*
X022099Y013755D01*
X022099Y013597D02*
X022282Y013597D01*
X022099Y013438D02*
X023521Y013438D01*
X023543Y013335D02*
X023359Y013411D01*
X022560Y013411D01*
X022376Y013335D01*
X022235Y013194D01*
X022159Y013010D01*
X022159Y012812D01*
X022235Y012628D01*
X022376Y012487D01*
X022560Y012411D01*
X023359Y012411D01*
X023543Y012487D01*
X024164Y012487D01*
X024164Y012329D02*
X023497Y012329D01*
X023511Y012322D02*
X023444Y012356D01*
X023372Y012379D01*
X023297Y012391D01*
X022979Y012391D01*
X022979Y011931D01*
X022939Y011931D01*
X022939Y011891D01*
X022179Y011891D01*
X022179Y011873D01*
X022191Y011799D01*
X022214Y011727D01*
X022249Y011659D01*
X022293Y011598D01*
X022347Y011545D01*
X022408Y011500D01*
X022475Y011466D01*
X022547Y011443D01*
X022622Y011431D01*
X022939Y011431D01*
X022939Y011891D01*
X022979Y011891D01*
X022979Y011431D01*
X023297Y011431D01*
X023372Y011443D01*
X023444Y011466D01*
X023511Y011500D01*
X023572Y011545D01*
X023625Y011598D01*
X023670Y011659D01*
X023704Y011727D01*
X023727Y011799D01*
X023739Y011873D01*
X023739Y011891D01*
X022979Y011891D01*
X022979Y011931D01*
X023739Y011931D01*
X023739Y011949D01*
X023727Y012023D01*
X023704Y012095D01*
X023670Y012163D01*
X023625Y012224D01*
X023572Y012277D01*
X023511Y012322D01*
X023543Y012487D02*
X023683Y012628D01*
X023759Y012812D01*
X023759Y013010D01*
X023683Y013194D01*
X023543Y013335D01*
X023598Y013280D02*
X024164Y013280D01*
X024164Y013438D02*
X023647Y013438D01*
X023914Y013597D02*
X024164Y013597D01*
X024164Y013755D02*
X023914Y013755D01*
X023914Y013914D02*
X024164Y013914D01*
X024164Y014072D02*
X023914Y014072D01*
X023914Y014231D02*
X024164Y014231D01*
X024164Y014389D02*
X023887Y014389D01*
X023864Y014548D02*
X024164Y014548D01*
X024164Y014706D02*
X023977Y014706D01*
X024044Y014865D02*
X024164Y014865D01*
X024164Y015023D02*
X024044Y015023D01*
X024017Y015182D02*
X024164Y015182D01*
X024164Y015340D02*
X023859Y015340D01*
X023847Y015499D02*
X024164Y015499D01*
X024164Y015657D02*
X023914Y015657D01*
X023914Y015816D02*
X024164Y015816D01*
X024164Y015974D02*
X023914Y015974D01*
X023914Y016133D02*
X024164Y016133D01*
X024164Y016291D02*
X023914Y016291D01*
X023864Y016450D02*
X024164Y016450D01*
X024164Y016608D02*
X023879Y016608D01*
X024037Y016767D02*
X024164Y016767D01*
X024164Y016925D02*
X024044Y016925D01*
X024044Y017084D02*
X024164Y017084D01*
X024164Y017242D02*
X023957Y017242D01*
X023798Y017401D02*
X024164Y017401D01*
X024164Y017559D02*
X023907Y017559D01*
X023914Y017718D02*
X024164Y017718D01*
X024164Y017876D02*
X023914Y017876D01*
X023914Y018035D02*
X024164Y018035D01*
X024164Y018193D02*
X023914Y018193D01*
X023914Y018352D02*
X024164Y018352D01*
X024164Y018510D02*
X023864Y018510D01*
X023939Y018669D02*
X024164Y018669D01*
X024164Y018827D02*
X024044Y018827D01*
X024044Y018986D02*
X024164Y018986D01*
X024164Y019144D02*
X024044Y019144D01*
X024164Y019303D02*
X023896Y019303D01*
X023809Y019461D02*
X024164Y019461D01*
X024164Y019620D02*
X023914Y019620D01*
X023914Y019778D02*
X024164Y019778D01*
X024164Y019937D02*
X023914Y019937D01*
X023914Y020095D02*
X024164Y020095D01*
X024164Y020254D02*
X023914Y020254D01*
X023864Y020412D02*
X024164Y020412D01*
X024164Y020571D02*
X023864Y020571D01*
X024000Y020729D02*
X024164Y020729D01*
X024164Y020888D02*
X024044Y020888D01*
X024044Y021046D02*
X024164Y021046D01*
X024164Y021205D02*
X023994Y021205D01*
X023836Y021363D02*
X024164Y021363D01*
X024164Y021522D02*
X021039Y021522D01*
X021039Y021680D02*
X024164Y021680D01*
X023333Y021363D02*
X022836Y021363D01*
X022775Y021424D02*
X022394Y021424D01*
X022124Y021155D01*
X022124Y020774D01*
X022394Y020504D01*
X022775Y020504D01*
X023044Y020774D01*
X023044Y021155D01*
X022775Y021424D01*
X022994Y021205D02*
X023174Y021205D01*
X023124Y021046D02*
X023044Y021046D01*
X023044Y020888D02*
X023124Y020888D01*
X023169Y020729D02*
X023000Y020729D01*
X022841Y020571D02*
X023304Y020571D01*
X023584Y020964D02*
X023584Y019715D01*
X023458Y019964D01*
X023108Y019461D02*
X022099Y019461D01*
X022099Y019303D02*
X022272Y019303D01*
X022124Y019144D02*
X022099Y019144D01*
X022099Y018986D02*
X022124Y018986D01*
X022584Y018964D02*
X022066Y018445D01*
X021584Y018445D01*
X020853Y018445D01*
X020834Y018464D01*
X020834Y018113D01*
X021152Y017876D02*
X022274Y017876D01*
X022274Y017718D02*
X021152Y017718D01*
X021115Y017559D02*
X022299Y017559D01*
X022370Y017401D02*
X020114Y017401D01*
X020114Y017242D02*
X022149Y017242D01*
X021933Y017084D02*
X020114Y017084D01*
X020114Y016925D02*
X021774Y016925D01*
X021616Y016767D02*
X020114Y016767D01*
X019834Y016839D02*
X019834Y016066D01*
X019334Y016066D02*
X019334Y015089D01*
X019334Y014214D01*
X019335Y014213D01*
X020209Y014214D01*
X020458Y014463D01*
X021584Y014463D01*
X021069Y014183D02*
X020574Y014183D01*
X020408Y014016D01*
X020368Y013977D01*
X020368Y013977D01*
X020368Y013977D01*
X020316Y013955D01*
X020265Y013934D01*
X020265Y013934D01*
X020225Y013934D01*
X020229Y013930D01*
X020229Y013180D01*
X020258Y013197D01*
X020304Y013209D01*
X020439Y013209D01*
X020439Y013930D01*
X020557Y014047D01*
X021069Y014047D01*
X021069Y014054D01*
X021105Y014089D01*
X021069Y014124D01*
X021069Y014183D01*
X021088Y014072D02*
X020463Y014072D01*
X020439Y013914D02*
X020229Y013914D01*
X020265Y013934D02*
X020265Y013934D01*
X020229Y013755D02*
X020439Y013755D01*
X020439Y013597D02*
X020229Y013597D01*
X020229Y013438D02*
X020439Y013438D01*
X020439Y013280D02*
X020229Y013280D01*
X019832Y013552D02*
X019832Y012717D01*
X019835Y012714D01*
X019334Y012589D02*
X019209Y012714D01*
X018833Y012714D01*
X019209Y012714D02*
X019334Y012839D01*
X019334Y014214D01*
X019614Y014494D02*
X019614Y014834D01*
X019655Y014875D01*
X019713Y015014D01*
X019713Y015164D01*
X019655Y015304D01*
X019614Y015344D01*
X019614Y015452D01*
X019633Y015432D01*
X019839Y015432D01*
X019839Y014729D01*
X019956Y014612D01*
X020211Y014612D01*
X020093Y014494D01*
X019614Y014494D01*
X019614Y014548D02*
X020147Y014548D01*
X019862Y014706D02*
X019614Y014706D01*
X019645Y014865D02*
X019839Y014865D01*
X019839Y015023D02*
X019713Y015023D01*
X019706Y015182D02*
X019839Y015182D01*
X019839Y015340D02*
X019618Y015340D01*
X020334Y015087D02*
X021584Y015127D01*
X021584Y015195D01*
X021069Y015390D02*
X020830Y015383D01*
X020830Y015432D01*
X021035Y015432D01*
X021069Y015467D01*
X021069Y015390D01*
X020853Y015733D02*
X020834Y015839D01*
X020834Y016066D01*
X020834Y015983D01*
X021584Y015983D01*
X021584Y016339D01*
X022209Y016964D01*
X022584Y016964D01*
X022290Y016608D02*
X022249Y016608D01*
X022395Y016450D02*
X022091Y016450D01*
X022099Y016291D02*
X022274Y016291D01*
X022274Y016133D02*
X022099Y016133D01*
X022662Y015816D02*
X022758Y015816D01*
X022758Y015657D02*
X022662Y015657D01*
X022662Y015499D02*
X022758Y015499D01*
X022859Y015340D02*
X023310Y015340D01*
X023151Y015182D02*
X023017Y015182D01*
X023044Y015023D02*
X023124Y015023D01*
X023124Y014865D02*
X023044Y014865D01*
X022977Y014706D02*
X023192Y014706D01*
X023304Y014548D02*
X022818Y014548D01*
X022758Y014389D02*
X022662Y014389D01*
X022662Y014231D02*
X022758Y014231D01*
X022758Y014072D02*
X022662Y014072D01*
X022662Y013914D02*
X022758Y013914D01*
X022758Y013755D02*
X022662Y013755D01*
X022662Y013597D02*
X022758Y013597D01*
X022321Y013280D02*
X022003Y013280D01*
X022205Y013121D02*
X021181Y013121D01*
X021019Y012963D02*
X022159Y012963D01*
X022162Y012804D02*
X021019Y012804D01*
X021019Y012646D02*
X022228Y012646D01*
X022376Y012487D02*
X021019Y012487D01*
X021006Y012329D02*
X022422Y012329D01*
X022408Y012322D02*
X022347Y012277D01*
X022293Y012224D01*
X022249Y012163D01*
X022214Y012095D01*
X022191Y012023D01*
X022179Y011949D01*
X022179Y011931D01*
X022939Y011931D01*
X022939Y012391D01*
X022622Y012391D01*
X022547Y012379D01*
X022475Y012356D01*
X022408Y012322D01*
X022254Y012170D02*
X020986Y012170D01*
X020991Y012012D02*
X022189Y012012D01*
X022182Y011853D02*
X020991Y011853D01*
X020933Y011695D02*
X022231Y011695D01*
X022359Y011536D02*
X020971Y011536D01*
X020971Y011378D02*
X024164Y011378D01*
X024164Y011536D02*
X023560Y011536D01*
X023688Y011695D02*
X024164Y011695D01*
X024164Y011853D02*
X023736Y011853D01*
X023729Y012012D02*
X024164Y012012D01*
X024164Y012170D02*
X023664Y012170D01*
X023691Y012646D02*
X024164Y012646D01*
X024164Y012804D02*
X023756Y012804D01*
X023759Y012963D02*
X024164Y012963D01*
X024164Y013121D02*
X023713Y013121D01*
X023584Y013715D02*
X023458Y013964D01*
X023584Y013715D02*
X023584Y014964D01*
X023070Y015499D02*
X023065Y015499D01*
X023584Y015715D02*
X023458Y015964D01*
X023584Y015715D02*
X023584Y016964D01*
X023090Y016450D02*
X023025Y016450D01*
X023584Y017715D02*
X023458Y017964D01*
X023584Y017715D02*
X023584Y018964D01*
X022758Y020095D02*
X022662Y020095D01*
X022662Y020254D02*
X022758Y020254D01*
X022758Y020412D02*
X022662Y020412D01*
X022333Y020412D02*
X022099Y020412D01*
X022099Y020571D02*
X022327Y020571D01*
X022169Y020729D02*
X022099Y020729D01*
X022099Y020888D02*
X022124Y020888D01*
X022124Y021046D02*
X022099Y021046D01*
X022174Y021205D02*
X021039Y021205D01*
X021039Y021363D02*
X022333Y021363D01*
X021584Y020713D02*
X021498Y020627D01*
X020836Y020627D01*
X020439Y020412D02*
X020428Y020412D01*
X020439Y020254D02*
X020229Y020254D01*
X020247Y020627D02*
X020334Y020714D01*
X020334Y020964D01*
X020459Y021089D01*
X020459Y021340D01*
X020583Y021464D01*
X020247Y020627D02*
X019832Y020627D01*
X019588Y020095D02*
X021089Y020095D01*
X020978Y019233D02*
X020834Y019089D01*
X020372Y019089D01*
X020334Y019091D01*
X020334Y018113D01*
X020830Y018746D02*
X020830Y018809D01*
X020890Y018809D01*
X020993Y018852D01*
X021069Y018928D01*
X021069Y018894D01*
X021124Y018839D01*
X021069Y018784D01*
X021069Y018725D01*
X021056Y018725D01*
X021035Y018746D01*
X020830Y018746D01*
X020934Y018827D02*
X021112Y018827D01*
X020978Y019233D02*
X021584Y019233D01*
X022055Y019620D02*
X022276Y019620D01*
X022274Y019778D02*
X022079Y019778D01*
X022079Y020095D02*
X022274Y020095D01*
X022274Y020254D02*
X022077Y020254D01*
X022188Y018193D02*
X022274Y018193D01*
X022274Y018035D02*
X022027Y018035D01*
X021457Y016608D02*
X021126Y016608D01*
X021152Y016450D02*
X021327Y016450D01*
X020334Y016066D02*
X020334Y015087D01*
X020830Y014823D02*
X021095Y014831D01*
X021097Y014829D01*
X021069Y014802D01*
X021069Y014743D01*
X020830Y014743D01*
X020830Y014823D01*
X020836Y013715D02*
X020836Y013552D01*
X020836Y013715D02*
X021584Y013715D01*
X022939Y012329D02*
X022979Y012329D01*
X022979Y012170D02*
X022939Y012170D01*
X022939Y012012D02*
X022979Y012012D01*
X022979Y011853D02*
X022939Y011853D01*
X022939Y011695D02*
X022979Y011695D01*
X022979Y011536D02*
X022939Y011536D01*
X021334Y009608D02*
X021191Y009464D01*
X019797Y011219D02*
X019624Y011219D01*
X019708Y011378D02*
X019745Y011378D01*
X019745Y011536D02*
X019713Y011536D01*
X019783Y011695D02*
X019639Y011695D01*
X019614Y011853D02*
X019725Y011853D01*
X019725Y012012D02*
X019614Y012012D01*
X019614Y012170D02*
X019730Y012170D01*
X019334Y012589D02*
X019334Y011464D01*
X019054Y011719D02*
X019014Y011679D01*
X018956Y011539D01*
X018956Y011389D01*
X019014Y011250D01*
X019019Y011244D01*
X018925Y011244D01*
X018944Y011263D01*
X018944Y011665D01*
X018895Y011714D01*
X018944Y011763D01*
X018944Y012165D01*
X018910Y012199D01*
X019054Y012199D01*
X019054Y011719D01*
X019030Y011695D02*
X018914Y011695D01*
X018944Y011853D02*
X019054Y011853D01*
X019054Y012012D02*
X018944Y012012D01*
X018939Y012170D02*
X019054Y012170D01*
X018956Y011536D02*
X018944Y011536D01*
X018944Y011378D02*
X018961Y011378D01*
X017560Y011843D02*
X017509Y011843D01*
X017370Y011785D01*
X017361Y011776D01*
X017364Y011783D01*
X017364Y011824D01*
X017422Y011824D01*
X017500Y011902D01*
X017560Y011843D01*
X017549Y011853D02*
X017451Y011853D01*
X017224Y011583D02*
X017118Y011477D01*
X017015Y011434D01*
X016974Y011434D01*
X016974Y011250D01*
X017206Y011482D01*
X017206Y011539D01*
X017224Y011583D01*
X017206Y011536D02*
X017177Y011536D01*
X017102Y011378D02*
X016974Y011378D01*
X015944Y011378D02*
X015726Y011378D01*
X015877Y011238D02*
X015877Y011238D01*
X015887Y011219D02*
X015944Y011219D01*
X015944Y011536D02*
X015553Y011536D01*
X015840Y012963D02*
X017629Y012963D01*
X017629Y012804D02*
X017472Y012804D01*
X017539Y012646D02*
X017629Y012646D01*
X018085Y012714D02*
X018209Y012838D01*
X018209Y013089D01*
X018334Y013214D01*
X018334Y013464D01*
X018422Y013552D01*
X018836Y013552D01*
X018439Y013914D02*
X018229Y013914D01*
X018229Y013755D02*
X018229Y013755D01*
X017832Y013552D02*
X017171Y013552D01*
X017084Y013465D01*
X016569Y013438D02*
X015454Y013438D01*
X015179Y015182D02*
X013517Y015182D01*
X013359Y015340D02*
X015179Y015340D01*
X015179Y015499D02*
X013347Y015499D01*
X014277Y015816D02*
X014642Y015816D01*
X014541Y015974D02*
X014377Y015974D01*
X014377Y016133D02*
X014541Y016133D01*
X014570Y016291D02*
X014349Y016291D01*
X014190Y016450D02*
X014729Y016450D01*
X013084Y017715D02*
X012958Y017964D01*
X013084Y017715D02*
X013084Y018964D01*
X011774Y018193D02*
X011688Y018193D01*
X011774Y018035D02*
X011527Y018035D01*
X010569Y018725D02*
X010556Y018725D01*
X010535Y018746D01*
X010330Y018746D01*
X010330Y018809D01*
X010390Y018809D01*
X010493Y018852D01*
X010569Y018928D01*
X010569Y018894D01*
X010624Y018839D01*
X010569Y018784D01*
X010569Y018725D01*
X010612Y018827D02*
X010434Y018827D01*
X010334Y019089D02*
X009872Y019089D01*
X009834Y019091D01*
X009834Y018113D01*
X009054Y017401D02*
X007079Y017401D01*
X007079Y017242D02*
X009054Y017242D01*
X008834Y016066D02*
X008834Y014089D01*
X008336Y013552D02*
X007922Y013552D01*
X007834Y013464D01*
X007834Y013214D01*
X007709Y013089D01*
X007709Y012589D01*
X007584Y012590D01*
X007585Y012714D01*
X007709Y012715D01*
X007332Y013552D02*
X006671Y013552D01*
X006584Y013465D01*
X007729Y013755D02*
X007729Y013755D01*
X007729Y013914D02*
X007939Y013914D01*
X008307Y014706D02*
X008554Y014706D01*
X008554Y014865D02*
X008330Y014865D01*
X008330Y015023D02*
X008554Y015023D01*
X008554Y015182D02*
X008330Y015182D01*
X008330Y015340D02*
X008554Y015340D01*
X009834Y015087D02*
X009872Y015089D01*
X010334Y015089D01*
X010478Y014945D01*
X011084Y014945D01*
X010569Y015250D02*
X010493Y015327D01*
X010390Y015369D01*
X010330Y015369D01*
X010330Y015432D01*
X010535Y015432D01*
X010556Y015453D01*
X010569Y015453D01*
X010569Y015394D01*
X010624Y015339D01*
X010569Y015284D01*
X010569Y015250D01*
X010623Y015340D02*
X010460Y015340D01*
X010334Y015714D02*
X010334Y016066D01*
X010353Y015733D02*
X010334Y015714D01*
X010353Y015733D02*
X011084Y015733D01*
X011084Y016339D01*
X011709Y016964D01*
X012084Y016964D01*
X011790Y016608D02*
X011749Y016608D01*
X011895Y016450D02*
X011591Y016450D01*
X011432Y016291D02*
X011774Y016291D01*
X011774Y016133D02*
X011538Y016133D01*
X012162Y015816D02*
X012258Y015816D01*
X012258Y015657D02*
X012162Y015657D01*
X012162Y015499D02*
X012258Y015499D01*
X012525Y016450D02*
X012590Y016450D01*
X010957Y016608D02*
X010626Y016608D01*
X010652Y016450D02*
X010827Y016450D01*
X010804Y016291D02*
X010652Y016291D01*
X009834Y016066D02*
X009834Y015087D01*
X010307Y014706D02*
X010324Y014706D01*
X009939Y013923D02*
X009939Y013209D01*
X009804Y013209D01*
X009758Y013197D01*
X009729Y013180D01*
X009729Y013809D01*
X009765Y013809D01*
X009868Y013852D01*
X009939Y013923D01*
X009939Y013914D02*
X009930Y013914D01*
X009939Y013755D02*
X009729Y013755D01*
X009729Y013597D02*
X009939Y013597D01*
X009939Y013438D02*
X009729Y013438D01*
X009729Y013280D02*
X009939Y013280D01*
X010336Y013552D02*
X010998Y013552D01*
X011084Y013465D01*
X010131Y012646D02*
X010035Y012646D01*
X010035Y012487D02*
X010131Y012487D01*
X010131Y012329D02*
X010035Y012329D01*
X009335Y012714D02*
X009332Y012717D01*
X009332Y013552D01*
X006604Y012012D02*
X006564Y012012D01*
X006564Y011853D02*
X006604Y011853D01*
X006604Y011695D02*
X006564Y011695D01*
X006564Y011536D02*
X006604Y011536D01*
X006604Y011378D02*
X006564Y011378D01*
X006564Y011219D02*
X006604Y011219D01*
X006584Y010589D02*
X006584Y010089D01*
X006209Y009714D01*
X009254Y009793D02*
X009414Y009793D01*
X009414Y009951D02*
X009254Y009951D01*
X009254Y009634D02*
X009414Y009634D01*
X009414Y009476D02*
X009254Y009476D01*
X009254Y009317D02*
X009414Y009317D01*
X009414Y009159D02*
X009254Y009159D01*
X009254Y009000D02*
X009414Y009000D01*
X006953Y007098D02*
X006882Y007098D01*
X017084Y014945D02*
X017691Y014945D01*
X017834Y015089D01*
X018297Y015089D01*
X018334Y015087D01*
X018334Y016066D01*
X017834Y016066D02*
X017834Y015714D01*
X017816Y015733D01*
X017084Y015733D01*
X017084Y016089D01*
X017432Y016240D02*
X017482Y016240D01*
X017516Y016274D01*
X017516Y016155D01*
X017482Y016189D01*
X017453Y016189D01*
X017432Y016240D01*
X017599Y015453D02*
X017613Y015453D01*
X017633Y015432D01*
X017839Y015432D01*
X017839Y015369D01*
X017779Y015369D01*
X017676Y015327D01*
X017599Y015250D01*
X017599Y015284D01*
X017544Y015339D01*
X017599Y015394D01*
X017599Y015453D01*
X017545Y015340D02*
X017709Y015340D01*
X017845Y014706D02*
X017862Y014706D01*
X017562Y014548D02*
X018511Y014548D01*
X018834Y018113D02*
X018834Y019464D01*
X018439Y020254D02*
X018229Y020254D01*
X018229Y020412D02*
X018439Y020412D01*
X017599Y018928D02*
X017676Y018852D01*
X017779Y018809D01*
X017839Y018809D01*
X017839Y018746D01*
X017633Y018746D01*
X017613Y018725D01*
X017599Y018725D01*
X017599Y018784D01*
X017544Y018839D01*
X017599Y018894D01*
X017599Y018928D01*
X017556Y018827D02*
X017735Y018827D01*
X011084Y019233D02*
X010478Y019233D01*
X010334Y019089D01*
X010589Y020095D02*
X009088Y020095D01*
X008583Y019965D02*
X006584Y019965D01*
X006085Y019965D01*
X005819Y020095D02*
X005439Y020095D01*
X005439Y019937D02*
X005697Y019937D01*
X005679Y019778D02*
X005439Y019778D01*
X005439Y019620D02*
X005679Y019620D01*
X005679Y019461D02*
X005439Y019461D01*
X005439Y019303D02*
X005679Y019303D01*
X005679Y019144D02*
X005439Y019144D01*
X005439Y018986D02*
X005679Y018986D01*
X005679Y018827D02*
X005439Y018827D01*
X005439Y018669D02*
X005679Y018669D01*
X005679Y018510D02*
X005439Y018510D01*
X005439Y018352D02*
X005679Y018352D01*
X005679Y018193D02*
X005439Y018193D01*
X005439Y018035D02*
X005679Y018035D01*
X005679Y017876D02*
X005439Y017876D01*
X005439Y017718D02*
X005679Y017718D01*
X005679Y017559D02*
X005439Y017559D01*
X005439Y017401D02*
X005679Y017401D01*
X005679Y017242D02*
X005439Y017242D01*
X005439Y017084D02*
X005679Y017084D01*
X005679Y016925D02*
X005439Y016925D01*
X005439Y016767D02*
X005686Y016767D01*
X005719Y016608D02*
X005439Y016608D01*
X005439Y016450D02*
X005814Y016450D01*
X006239Y017917D02*
X006245Y017919D01*
X006239Y017933D01*
X006239Y017917D01*
X006584Y018089D02*
X006584Y018445D01*
X007316Y018445D01*
X007334Y018464D01*
X007334Y018113D01*
X007016Y018024D02*
X007016Y017876D01*
X007010Y017883D01*
X006969Y017907D01*
X006923Y017919D01*
X006953Y017990D01*
X006982Y017990D01*
X007016Y018024D01*
X007099Y018725D02*
X007099Y018784D01*
X007044Y018839D01*
X007099Y018894D01*
X007099Y018928D01*
X007176Y018852D01*
X007279Y018809D01*
X007339Y018809D01*
X007339Y018746D01*
X007133Y018746D01*
X007113Y018725D01*
X007099Y018725D01*
X007056Y018827D02*
X007235Y018827D01*
X007729Y020254D02*
X007939Y020254D01*
X007939Y020412D02*
X007729Y020412D01*
X007149Y021205D02*
X005439Y021205D01*
X005439Y021363D02*
X007149Y021363D01*
X007149Y021522D02*
X005439Y021522D01*
X005439Y021680D02*
X007149Y021680D01*
X006069Y021046D02*
X005439Y021046D01*
X005439Y020888D02*
X006069Y020888D01*
X009332Y020627D02*
X009747Y020627D01*
X009834Y020714D01*
X009834Y020964D01*
X009959Y021089D01*
X009959Y021464D01*
X010084Y021463D01*
X010083Y021464D01*
X010084Y021464D02*
X010084Y021463D01*
X010998Y020627D02*
X011084Y020713D01*
X010998Y020627D02*
X010336Y020627D01*
X009939Y020412D02*
X009928Y020412D01*
X009939Y020254D02*
X009729Y020254D01*
X023658Y007732D02*
X024164Y007732D01*
X024164Y007574D02*
X023728Y007574D01*
X023738Y007415D02*
X024164Y007415D01*
X024164Y007257D02*
X023692Y007257D01*
X023572Y007098D02*
X024164Y007098D01*
D26*
X019209Y008839D03*
X019084Y009464D03*
X019084Y010464D03*
X019334Y011464D03*
X017584Y011464D03*
X017334Y010464D03*
X014209Y012339D03*
X014584Y012964D03*
X013084Y012964D03*
X010834Y012839D03*
X008834Y014089D03*
X009334Y014589D03*
X006584Y016089D03*
X006084Y016714D03*
X006584Y018089D03*
X008834Y018964D03*
X011084Y017464D03*
X016459Y018839D03*
X017084Y018089D03*
X017084Y016089D03*
X018834Y014339D03*
X019334Y015089D03*
X021584Y017464D03*
X019334Y018964D03*
X016709Y007589D03*
D27*
X014802Y010401D03*
X014802Y020244D03*
M02*
