%
M48
M72
T01C0.0197
T02C0.0236
T03C0.0320
T04C0.0400
T05C0.1260
%
T01
X14209Y12339
X14584Y12964
X13084Y12964
X10834Y12839
X8834Y14089
X9334Y14589
X6584Y16089
X6084Y16714
X6584Y18089
X8834Y18964
X11084Y17464
X16459Y18839
X17084Y18089
X17084Y16089
X18834Y14339
X19334Y15089
X21584Y17464
X19334Y18964
X19334Y11464
X19084Y10464
X19084Y9464
X19209Y8839
X17334Y10464
X17584Y11464
X16709Y7589
T02
X15959Y14089
X14959Y14089
X13959Y14089
X13959Y16089
X14959Y16089
X15959Y16089
X15959Y18089
X14959Y18089
X13959Y18089
T03
X13084Y18964
X12084Y18964
X12084Y16964
X13084Y16964
X13084Y14964
X12084Y14964
X12084Y20964
X13084Y20964
X22584Y20964
X23584Y20964
X23584Y18964
X22584Y18964
X22584Y16964
X23584Y16964
X23584Y14964
X22584Y14964
T04
X12084Y9964
X12084Y10964
X12084Y11964
X6584Y11589
X6584Y10589
X22959Y10688
X22959Y9688
X22959Y8464
X22959Y7464
X22959Y11911
X22959Y12911
T05
X14802Y10401
X14802Y20244
M30
