G75*
G70*
%OFA0B0*%
%FSLAX24Y24*%
%IPPOS*%
%LPD*%
%AMOC8*
5,1,8,0,0,1.08239X$1,22.5*
%
%ADD10OC8,0.0520*%
%ADD11C,0.0600*%
%ADD12OC8,0.0436*%
%ADD13C,0.0160*%
%ADD14C,0.0357*%
%ADD15C,0.1660*%
D10*
X012084Y014964D03*
X013084Y014964D03*
X013084Y016964D03*
X012084Y016964D03*
X012084Y018964D03*
X013084Y018964D03*
X013084Y020964D03*
X012084Y020964D03*
X022584Y020964D03*
X023584Y020964D03*
X023584Y018964D03*
X022584Y018964D03*
X022584Y016964D03*
X023584Y016964D03*
X023584Y014964D03*
X022584Y014964D03*
D11*
X022659Y012911D02*
X023259Y012911D01*
X023259Y011911D02*
X022659Y011911D01*
X022659Y010688D02*
X023259Y010688D01*
X023259Y009688D02*
X022659Y009688D01*
X022659Y008464D02*
X023259Y008464D01*
X023259Y007464D02*
X022659Y007464D01*
X012384Y009964D02*
X011784Y009964D01*
X011784Y010964D02*
X012384Y010964D01*
X012384Y011964D02*
X011784Y011964D01*
X006884Y011589D02*
X006284Y011589D01*
X006284Y010589D02*
X006884Y010589D01*
D12*
X013959Y014089D03*
X014959Y014089D03*
X015959Y014089D03*
X015959Y016089D03*
X014959Y016089D03*
X013959Y016089D03*
X013959Y018089D03*
X014959Y018089D03*
X015959Y018089D03*
D13*
X005439Y021732D02*
X005439Y006944D01*
X024164Y006944D01*
X024164Y021732D01*
X005439Y021732D01*
X005439Y021680D02*
X024164Y021680D01*
X024164Y021522D02*
X015234Y021522D01*
X015136Y021565D02*
X015136Y021565D01*
X014689Y021602D01*
X014254Y021492D01*
X013879Y021246D01*
X013603Y020892D01*
X013458Y020468D01*
X013458Y020019D01*
X013603Y019595D01*
X013879Y019241D01*
X014254Y018996D01*
X014254Y018996D01*
X014426Y018952D01*
X013981Y018507D01*
X013786Y018507D01*
X013541Y018262D01*
X013541Y017916D01*
X013679Y017778D01*
X013679Y016400D01*
X013541Y016262D01*
X013541Y015916D01*
X013679Y015778D01*
X013679Y014400D01*
X013648Y014369D01*
X012904Y014369D01*
X012801Y014327D01*
X011195Y012721D01*
X011213Y012764D01*
X011213Y012914D01*
X011155Y013054D01*
X011114Y013094D01*
X011114Y013145D01*
X011072Y013248D01*
X009713Y014607D01*
X009713Y014664D01*
X009655Y014804D01*
X009549Y014910D01*
X009410Y014968D01*
X009259Y014968D01*
X009120Y014910D01*
X009014Y014804D01*
X008956Y014664D01*
X008956Y014514D01*
X008989Y014435D01*
X008910Y014468D01*
X008852Y014468D01*
X007993Y015327D01*
X007890Y015369D01*
X006325Y015369D01*
X006239Y015455D01*
X006239Y015933D01*
X006264Y015875D01*
X006370Y015768D01*
X006509Y015711D01*
X006660Y015711D01*
X006799Y015768D01*
X006839Y015809D01*
X010843Y015809D01*
X011624Y015028D01*
X011624Y014774D01*
X011894Y014504D01*
X012275Y014504D01*
X012544Y014774D01*
X012544Y015155D01*
X012275Y015424D01*
X012020Y015424D01*
X011197Y016248D01*
X011118Y016327D01*
X011015Y016369D01*
X006839Y016369D01*
X006799Y016410D01*
X006660Y016468D01*
X006509Y016468D01*
X006370Y016410D01*
X006264Y016304D01*
X006239Y016245D01*
X006239Y016369D01*
X006299Y016393D01*
X006405Y016500D01*
X006463Y016639D01*
X006463Y016789D01*
X006405Y016929D01*
X006299Y017035D01*
X006160Y017093D01*
X006009Y017093D01*
X005870Y017035D01*
X005764Y016929D01*
X005706Y016789D01*
X005706Y016709D01*
X005679Y016645D01*
X005679Y015283D01*
X005722Y015181D01*
X005972Y014931D01*
X006051Y014852D01*
X006154Y014809D01*
X007718Y014809D01*
X008456Y014072D01*
X008456Y014014D01*
X008514Y013875D01*
X008554Y013834D01*
X008554Y012033D01*
X008597Y011931D01*
X008676Y011852D01*
X009659Y010868D01*
X009738Y010789D01*
X009738Y010789D01*
X010801Y009727D01*
X010904Y009684D01*
X011359Y009684D01*
X011360Y009681D01*
X011501Y009540D01*
X011685Y009464D01*
X012484Y009464D01*
X012668Y009540D01*
X012804Y009677D01*
X012804Y009658D01*
X012847Y009556D01*
X012926Y009477D01*
X014051Y008352D01*
X014154Y008309D01*
X015515Y008309D01*
X015618Y008352D01*
X015697Y008431D01*
X015825Y008559D01*
X018954Y008559D01*
X018995Y008518D01*
X019134Y008461D01*
X019285Y008461D01*
X019424Y008518D01*
X019530Y008625D01*
X019588Y008764D01*
X019588Y008914D01*
X019530Y009054D01*
X019424Y009160D01*
X019347Y009192D01*
X019405Y009250D01*
X019463Y009389D01*
X019463Y009539D01*
X019405Y009679D01*
X019397Y009687D01*
X019493Y009727D01*
X020118Y010352D01*
X020197Y010431D01*
X020239Y010533D01*
X020239Y011598D01*
X021272Y012631D01*
X022234Y012631D01*
X022235Y012628D01*
X022376Y012487D01*
X022560Y012411D01*
X023359Y012411D01*
X023543Y012487D01*
X024164Y012487D01*
X024164Y012329D02*
X023497Y012329D01*
X023511Y012322D02*
X023444Y012356D01*
X023372Y012379D01*
X023297Y012391D01*
X022979Y012391D01*
X022979Y011931D01*
X022939Y011931D01*
X022939Y011891D01*
X022179Y011891D01*
X022179Y011873D01*
X022191Y011799D01*
X022214Y011727D01*
X022249Y011659D01*
X022293Y011598D01*
X022347Y011545D01*
X022408Y011500D01*
X022475Y011466D01*
X022547Y011443D01*
X022622Y011431D01*
X022939Y011431D01*
X022939Y011891D01*
X022979Y011891D01*
X022979Y011431D01*
X023297Y011431D01*
X023372Y011443D01*
X023444Y011466D01*
X023511Y011500D01*
X023572Y011545D01*
X023625Y011598D01*
X023670Y011659D01*
X023704Y011727D01*
X023727Y011799D01*
X023739Y011873D01*
X023739Y011891D01*
X022979Y011891D01*
X022979Y011931D01*
X023739Y011931D01*
X023739Y011949D01*
X023727Y012023D01*
X023704Y012095D01*
X023670Y012163D01*
X023625Y012224D01*
X023572Y012277D01*
X023511Y012322D01*
X023543Y012487D02*
X023683Y012628D01*
X023759Y012812D01*
X023759Y013010D01*
X023683Y013194D01*
X023543Y013335D01*
X023359Y013411D01*
X022560Y013411D01*
X022376Y013335D01*
X022235Y013194D01*
X022234Y013191D01*
X021100Y013191D01*
X020998Y013148D01*
X020919Y013070D01*
X019722Y011873D01*
X019679Y011770D01*
X019679Y011620D01*
X019655Y011679D01*
X019549Y011785D01*
X019410Y011843D01*
X019259Y011843D01*
X019120Y011785D01*
X019114Y011779D01*
X019114Y014084D01*
X019155Y014125D01*
X019213Y014264D01*
X019213Y014414D01*
X019155Y014554D01*
X019049Y014660D01*
X018910Y014718D01*
X018759Y014718D01*
X018620Y014660D01*
X018514Y014554D01*
X018456Y014414D01*
X018456Y014264D01*
X018514Y014125D01*
X018554Y014084D01*
X018554Y011205D01*
X018093Y010744D01*
X017885Y010744D01*
X017947Y010806D01*
X018322Y011181D01*
X018364Y011283D01*
X018364Y011645D01*
X018322Y011748D01*
X018243Y011827D01*
X017493Y012577D01*
X017390Y012619D01*
X014740Y012619D01*
X014799Y012643D01*
X014905Y012750D01*
X014963Y012889D01*
X014963Y013039D01*
X014905Y013179D01*
X014799Y013285D01*
X014660Y013343D01*
X014609Y013343D01*
X014697Y013431D01*
X014739Y013533D01*
X014739Y013718D01*
X014786Y013671D01*
X015133Y013671D01*
X015377Y013916D01*
X015377Y014262D01*
X015133Y014507D01*
X015023Y014507D01*
X015197Y014681D01*
X015239Y014783D01*
X015239Y015778D01*
X015377Y015916D01*
X015377Y016262D01*
X015133Y016507D01*
X014786Y016507D01*
X014541Y016262D01*
X014541Y015916D01*
X014679Y015778D01*
X014679Y014955D01*
X014239Y014515D01*
X014239Y015778D01*
X014377Y015916D01*
X014377Y016262D01*
X014239Y016400D01*
X014239Y017778D01*
X014377Y017916D01*
X014377Y018111D01*
X014825Y018559D01*
X016179Y018559D01*
X016179Y018432D01*
X016124Y018487D01*
X015959Y018487D01*
X015794Y018487D01*
X015561Y018254D01*
X015561Y018089D01*
X015561Y017924D01*
X015794Y017691D01*
X015959Y017691D01*
X015959Y018089D01*
X015561Y018089D01*
X015959Y018089D01*
X015959Y018089D01*
X015959Y018089D01*
X015959Y017691D01*
X016124Y017691D01*
X016179Y017746D01*
X016179Y016432D01*
X016124Y016487D01*
X015959Y016487D01*
X015794Y016487D01*
X015561Y016254D01*
X015561Y016089D01*
X015561Y015924D01*
X015794Y015691D01*
X015959Y015691D01*
X015959Y016089D01*
X015561Y016089D01*
X015959Y016089D01*
X015959Y016089D01*
X015959Y016089D01*
X015959Y015691D01*
X016124Y015691D01*
X016179Y015746D01*
X016179Y015408D01*
X016222Y015306D01*
X016301Y015227D01*
X016676Y014852D01*
X016779Y014809D01*
X019079Y014809D01*
X019120Y014768D01*
X019259Y014711D01*
X019410Y014711D01*
X019549Y014768D01*
X019655Y014875D01*
X019713Y015014D01*
X019713Y015164D01*
X019655Y015304D01*
X019549Y015410D01*
X019410Y015468D01*
X019259Y015468D01*
X019120Y015410D01*
X019079Y015369D01*
X016950Y015369D01*
X016739Y015580D01*
X016739Y015933D01*
X016764Y015875D01*
X016870Y015768D01*
X017009Y015711D01*
X017160Y015711D01*
X017299Y015768D01*
X017339Y015809D01*
X021343Y015809D01*
X022124Y015028D01*
X022124Y014774D01*
X022394Y014504D01*
X022775Y014504D01*
X023044Y014774D01*
X023044Y015155D01*
X022775Y015424D01*
X022520Y015424D01*
X021697Y016248D01*
X021618Y016327D01*
X021515Y016369D01*
X017339Y016369D01*
X017299Y016410D01*
X017160Y016468D01*
X017009Y016468D01*
X016870Y016410D01*
X016764Y016304D01*
X016739Y016245D01*
X016739Y017933D01*
X016764Y017875D01*
X016870Y017768D01*
X017009Y017711D01*
X017160Y017711D01*
X017299Y017768D01*
X017405Y017875D01*
X017463Y018014D01*
X017463Y018072D01*
X018575Y019184D01*
X021140Y019184D01*
X021243Y019227D01*
X021322Y019306D01*
X022520Y020504D01*
X022775Y020504D01*
X023044Y020774D01*
X023044Y021155D01*
X022775Y021424D01*
X022394Y021424D01*
X022124Y021155D01*
X022124Y020900D01*
X020968Y019744D01*
X018404Y019744D01*
X018301Y019702D01*
X017067Y018468D01*
X017009Y018468D01*
X016870Y018410D01*
X016764Y018304D01*
X016739Y018245D01*
X016739Y018584D01*
X016780Y018625D01*
X016838Y018764D01*
X016838Y018914D01*
X016780Y019054D01*
X016674Y019160D01*
X016535Y019218D01*
X016384Y019218D01*
X016245Y019160D01*
X016204Y019119D01*
X015565Y019119D01*
X015877Y019407D01*
X016091Y019801D01*
X016165Y020244D01*
X016091Y020686D01*
X016091Y020686D01*
X015877Y021081D01*
X015547Y021384D01*
X015136Y021565D01*
X015547Y021384D02*
X015547Y021384D01*
X015570Y021363D02*
X022333Y021363D01*
X022174Y021205D02*
X015742Y021205D01*
X015877Y021081D02*
X015877Y021081D01*
X015896Y021046D02*
X022124Y021046D01*
X022112Y020888D02*
X015982Y020888D01*
X016067Y020729D02*
X021953Y020729D01*
X021795Y020571D02*
X016110Y020571D01*
X016136Y020412D02*
X021636Y020412D01*
X021478Y020254D02*
X016163Y020254D01*
X016140Y020095D02*
X021319Y020095D01*
X021161Y019937D02*
X016113Y019937D01*
X016091Y019801D02*
X016091Y019801D01*
X016078Y019778D02*
X021002Y019778D01*
X021084Y019464D02*
X018459Y019464D01*
X017084Y018089D01*
X016812Y018352D02*
X016739Y018352D01*
X016739Y018510D02*
X017109Y018510D01*
X017268Y018669D02*
X016798Y018669D01*
X016838Y018827D02*
X017426Y018827D01*
X017585Y018986D02*
X016808Y018986D01*
X016689Y019144D02*
X017743Y019144D01*
X017902Y019303D02*
X015764Y019303D01*
X015877Y019407D02*
X015877Y019407D01*
X015907Y019461D02*
X018060Y019461D01*
X018219Y019620D02*
X015992Y019620D01*
X016229Y019144D02*
X015592Y019144D01*
X015959Y018487D02*
X015959Y018089D01*
X015959Y018089D01*
X015959Y018487D01*
X015959Y018352D02*
X015959Y018352D01*
X015959Y018193D02*
X015959Y018193D01*
X015959Y018035D02*
X015959Y018035D01*
X015959Y017876D02*
X015959Y017876D01*
X015959Y017718D02*
X015959Y017718D01*
X015768Y017718D02*
X015179Y017718D01*
X015133Y017671D02*
X015377Y017916D01*
X015377Y018262D01*
X015133Y018507D01*
X014786Y018507D01*
X014541Y018262D01*
X014541Y017916D01*
X014786Y017671D01*
X015133Y017671D01*
X015338Y017876D02*
X015609Y017876D01*
X015561Y018035D02*
X015377Y018035D01*
X015377Y018193D02*
X015561Y018193D01*
X015659Y018352D02*
X015288Y018352D01*
X014776Y018510D02*
X016179Y018510D01*
X016459Y018839D02*
X016459Y015464D01*
X016834Y015089D01*
X019334Y015089D01*
X019618Y015340D02*
X021812Y015340D01*
X021654Y015499D02*
X016821Y015499D01*
X016739Y015657D02*
X021495Y015657D01*
X021459Y016089D02*
X017084Y016089D01*
X016823Y015816D02*
X016739Y015816D01*
X016739Y016291D02*
X016758Y016291D01*
X016739Y016450D02*
X016966Y016450D01*
X017203Y016450D02*
X024164Y016450D01*
X024164Y016608D02*
X023879Y016608D01*
X023775Y016504D02*
X024044Y016774D01*
X024044Y017155D01*
X023775Y017424D01*
X023394Y017424D01*
X023124Y017155D01*
X023124Y016774D01*
X023394Y016504D01*
X023775Y016504D01*
X024037Y016767D02*
X024164Y016767D01*
X024164Y016925D02*
X024044Y016925D01*
X024044Y017084D02*
X024164Y017084D01*
X024164Y017242D02*
X023957Y017242D01*
X023798Y017401D02*
X024164Y017401D01*
X024164Y017559D02*
X016739Y017559D01*
X016739Y017401D02*
X022370Y017401D01*
X022394Y017424D02*
X022124Y017155D01*
X022124Y016774D01*
X022394Y016504D01*
X022775Y016504D01*
X023044Y016774D01*
X023044Y017155D01*
X022775Y017424D01*
X022394Y017424D01*
X022212Y017242D02*
X016739Y017242D01*
X016739Y017084D02*
X022124Y017084D01*
X022124Y016925D02*
X016739Y016925D01*
X016739Y016767D02*
X022131Y016767D01*
X022290Y016608D02*
X016739Y016608D01*
X016179Y016608D02*
X014239Y016608D01*
X014239Y016450D02*
X014729Y016450D01*
X014570Y016291D02*
X014349Y016291D01*
X014377Y016133D02*
X014541Y016133D01*
X014541Y015974D02*
X014377Y015974D01*
X014277Y015816D02*
X014642Y015816D01*
X014679Y015657D02*
X014239Y015657D01*
X014239Y015499D02*
X014679Y015499D01*
X014679Y015340D02*
X014239Y015340D01*
X014239Y015182D02*
X014679Y015182D01*
X014679Y015023D02*
X014239Y015023D01*
X014239Y014865D02*
X014589Y014865D01*
X014430Y014706D02*
X014239Y014706D01*
X014239Y014548D02*
X014272Y014548D01*
X014459Y014339D02*
X014459Y013589D01*
X013459Y012589D01*
X013459Y009714D01*
X014209Y008964D01*
X015459Y008964D01*
X015959Y009464D01*
X019084Y009464D01*
X019433Y009317D02*
X021679Y009317D01*
X021679Y009159D02*
X019425Y009159D01*
X019552Y009000D02*
X021679Y009000D01*
X021679Y008842D02*
X019588Y008842D01*
X019554Y008683D02*
X021679Y008683D01*
X021679Y008580D02*
X020968Y007869D01*
X016964Y007869D01*
X016924Y007910D01*
X016785Y007968D01*
X016634Y007968D01*
X016495Y007910D01*
X016389Y007804D01*
X016331Y007664D01*
X016331Y007514D01*
X016389Y007375D01*
X016495Y007268D01*
X016634Y007211D01*
X016785Y007211D01*
X016924Y007268D01*
X016964Y007309D01*
X021140Y007309D01*
X021243Y007352D01*
X022118Y008227D01*
X022188Y008296D01*
X022235Y008181D01*
X022376Y008040D01*
X022560Y007964D01*
X023359Y007964D01*
X023543Y008040D01*
X023683Y008181D01*
X023759Y008365D01*
X023759Y008564D01*
X023683Y008747D01*
X023543Y008888D01*
X023359Y008964D01*
X022560Y008964D01*
X022376Y008888D01*
X022239Y008751D01*
X022239Y009455D01*
X022249Y009436D01*
X022293Y009375D01*
X022347Y009321D01*
X022408Y009277D01*
X022475Y009243D01*
X022547Y009219D01*
X022622Y009208D01*
X022939Y009208D01*
X022939Y009668D01*
X022979Y009668D01*
X022979Y009708D01*
X022939Y009708D01*
X022939Y010168D01*
X022622Y010168D01*
X022547Y010156D01*
X022475Y010132D01*
X022408Y010098D01*
X022347Y010054D01*
X022293Y010000D01*
X022249Y009939D01*
X022239Y009921D01*
X022239Y010223D01*
X022328Y010312D01*
X022376Y010264D01*
X022560Y010188D01*
X023359Y010188D01*
X023543Y010264D01*
X023683Y010404D01*
X023759Y010588D01*
X023759Y010787D01*
X023683Y010971D01*
X023543Y011111D01*
X023359Y011188D01*
X022560Y011188D01*
X022376Y011111D01*
X022235Y010971D01*
X022230Y010959D01*
X022149Y010925D01*
X021722Y010498D01*
X021679Y010395D01*
X021679Y008580D01*
X021624Y008525D02*
X019430Y008525D01*
X019209Y008839D02*
X015709Y008839D01*
X015459Y008589D01*
X014209Y008589D01*
X013084Y009714D01*
X013084Y012964D01*
X012706Y012963D02*
X012229Y012963D01*
X012387Y013121D02*
X012740Y013121D01*
X012764Y013179D02*
X012706Y013039D01*
X012706Y012889D01*
X012764Y012750D01*
X012804Y012709D01*
X012804Y012251D01*
X012668Y012388D01*
X012484Y012464D01*
X011730Y012464D01*
X013075Y013809D01*
X013648Y013809D01*
X013786Y013671D01*
X014133Y013671D01*
X014179Y013718D01*
X014179Y013705D01*
X013463Y012989D01*
X013463Y013039D01*
X013405Y013179D01*
X013299Y013285D01*
X013160Y013343D01*
X013009Y013343D01*
X012870Y013285D01*
X012764Y013179D01*
X012865Y013280D02*
X012546Y013280D01*
X012704Y013438D02*
X013912Y013438D01*
X013754Y013280D02*
X013304Y013280D01*
X013429Y013121D02*
X013595Y013121D01*
X013834Y012589D02*
X013834Y012089D01*
X014084Y011839D01*
X017209Y011839D01*
X017584Y011464D01*
X017206Y011447D02*
X017206Y011389D01*
X017264Y011250D01*
X017269Y011244D01*
X017154Y011244D01*
X017051Y011202D01*
X016676Y010827D01*
X016597Y010748D01*
X016554Y010645D01*
X016554Y010283D01*
X016597Y010181D01*
X016972Y009806D01*
X017033Y009744D01*
X015975Y009744D01*
X016091Y009959D01*
X016165Y010401D01*
X016091Y010844D01*
X015877Y011238D01*
X015547Y011542D01*
X015508Y011559D01*
X017093Y011559D01*
X017206Y011447D01*
X017211Y011378D02*
X015726Y011378D01*
X015877Y011238D02*
X015877Y011238D01*
X015887Y011219D02*
X017093Y011219D01*
X016910Y011061D02*
X015973Y011061D01*
X016059Y010902D02*
X016751Y010902D01*
X016595Y010744D02*
X016107Y010744D01*
X016091Y010844D02*
X016091Y010844D01*
X016134Y010585D02*
X016554Y010585D01*
X016554Y010427D02*
X016160Y010427D01*
X016142Y010268D02*
X016561Y010268D01*
X016668Y010110D02*
X016116Y010110D01*
X016091Y009959D02*
X016091Y009959D01*
X016087Y009951D02*
X016826Y009951D01*
X016985Y009793D02*
X016001Y009793D01*
X016834Y010339D02*
X017209Y009964D01*
X019334Y009964D01*
X019959Y010589D01*
X019959Y011714D01*
X021156Y012911D01*
X022959Y012911D01*
X022939Y012391D02*
X022622Y012391D01*
X022547Y012379D01*
X022475Y012356D01*
X022408Y012322D01*
X022347Y012277D01*
X022293Y012224D01*
X022249Y012163D01*
X022214Y012095D01*
X022191Y012023D01*
X022179Y011949D01*
X022179Y011931D01*
X022939Y011931D01*
X022939Y012391D01*
X022939Y012329D02*
X022979Y012329D01*
X022979Y012170D02*
X022939Y012170D01*
X022939Y012012D02*
X022979Y012012D01*
X022979Y011853D02*
X022939Y011853D01*
X022939Y011695D02*
X022979Y011695D01*
X022979Y011536D02*
X022939Y011536D01*
X022359Y011536D02*
X020239Y011536D01*
X020239Y011378D02*
X024164Y011378D01*
X024164Y011536D02*
X023560Y011536D01*
X023688Y011695D02*
X024164Y011695D01*
X024164Y011853D02*
X023736Y011853D01*
X023729Y012012D02*
X024164Y012012D01*
X024164Y012170D02*
X023664Y012170D01*
X023691Y012646D02*
X024164Y012646D01*
X024164Y012804D02*
X023756Y012804D01*
X023759Y012963D02*
X024164Y012963D01*
X024164Y013121D02*
X023713Y013121D01*
X023598Y013280D02*
X024164Y013280D01*
X024164Y013438D02*
X019114Y013438D01*
X019114Y013280D02*
X022321Y013280D01*
X022376Y012487D02*
X021128Y012487D01*
X020970Y012329D02*
X022422Y012329D01*
X022254Y012170D02*
X020811Y012170D01*
X020653Y012012D02*
X022189Y012012D01*
X022182Y011853D02*
X020494Y011853D01*
X020336Y011695D02*
X022231Y011695D01*
X022325Y011061D02*
X020239Y011061D01*
X020239Y011219D02*
X024164Y011219D01*
X024164Y011061D02*
X023593Y011061D01*
X023712Y010902D02*
X024164Y010902D01*
X024164Y010744D02*
X023759Y010744D01*
X023758Y010585D02*
X024164Y010585D01*
X024164Y010427D02*
X023692Y010427D01*
X023547Y010268D02*
X024164Y010268D01*
X024164Y010110D02*
X023488Y010110D01*
X023511Y010098D02*
X023444Y010132D01*
X023372Y010156D01*
X023297Y010168D01*
X022979Y010168D01*
X022979Y009708D01*
X023739Y009708D01*
X023739Y009725D01*
X023727Y009800D01*
X023704Y009872D01*
X023670Y009939D01*
X023625Y010000D01*
X023572Y010054D01*
X023511Y010098D01*
X023661Y009951D02*
X024164Y009951D01*
X024164Y009793D02*
X023729Y009793D01*
X023739Y009668D02*
X022979Y009668D01*
X022979Y009208D01*
X023297Y009208D01*
X023372Y009219D01*
X023444Y009243D01*
X023511Y009277D01*
X023572Y009321D01*
X023625Y009375D01*
X023670Y009436D01*
X023704Y009503D01*
X023727Y009575D01*
X023739Y009650D01*
X023739Y009668D01*
X023737Y009634D02*
X024164Y009634D01*
X024164Y009476D02*
X023690Y009476D01*
X023566Y009317D02*
X024164Y009317D01*
X024164Y009159D02*
X022239Y009159D01*
X022239Y009317D02*
X022353Y009317D01*
X022239Y009000D02*
X024164Y009000D01*
X024164Y008842D02*
X023589Y008842D01*
X023710Y008683D02*
X024164Y008683D01*
X024164Y008525D02*
X023759Y008525D01*
X023759Y008366D02*
X024164Y008366D01*
X024164Y008208D02*
X023694Y008208D01*
X023551Y008049D02*
X024164Y008049D01*
X024164Y007891D02*
X023480Y007891D01*
X023511Y007875D02*
X023444Y007909D01*
X023372Y007932D01*
X023297Y007944D01*
X022979Y007944D01*
X022979Y007484D01*
X022939Y007484D01*
X022939Y007444D01*
X022179Y007444D01*
X022179Y007426D01*
X022191Y007352D01*
X022214Y007280D01*
X022249Y007213D01*
X022293Y007151D01*
X022347Y007098D01*
X022408Y007054D01*
X022475Y007019D01*
X022547Y006996D01*
X022622Y006984D01*
X022939Y006984D01*
X022939Y007444D01*
X022979Y007444D01*
X022979Y006984D01*
X023297Y006984D01*
X023372Y006996D01*
X023444Y007019D01*
X023511Y007054D01*
X023572Y007098D01*
X023625Y007151D01*
X023670Y007213D01*
X023704Y007280D01*
X023727Y007352D01*
X023739Y007426D01*
X023739Y007444D01*
X022979Y007444D01*
X022979Y007484D01*
X023739Y007484D01*
X023739Y007502D01*
X023727Y007577D01*
X023704Y007648D01*
X023670Y007716D01*
X023625Y007777D01*
X023572Y007830D01*
X023511Y007875D01*
X023658Y007732D02*
X024164Y007732D01*
X024164Y007574D02*
X023728Y007574D01*
X023738Y007415D02*
X024164Y007415D01*
X024164Y007257D02*
X023692Y007257D01*
X023572Y007098D02*
X024164Y007098D01*
X022979Y007098D02*
X022939Y007098D01*
X022939Y007257D02*
X022979Y007257D01*
X022979Y007415D02*
X022939Y007415D01*
X022939Y007484D02*
X022179Y007484D01*
X022179Y007502D01*
X022191Y007577D01*
X022214Y007648D01*
X022249Y007716D01*
X022293Y007777D01*
X022347Y007830D01*
X022408Y007875D01*
X022475Y007909D01*
X022547Y007932D01*
X022622Y007944D01*
X022939Y007944D01*
X022939Y007484D01*
X022939Y007574D02*
X022979Y007574D01*
X022979Y007732D02*
X022939Y007732D01*
X022939Y007891D02*
X022979Y007891D01*
X022439Y007891D02*
X021782Y007891D01*
X021940Y008049D02*
X022367Y008049D01*
X022224Y008208D02*
X022099Y008208D01*
X022261Y007732D02*
X021623Y007732D01*
X021465Y007574D02*
X022191Y007574D01*
X022181Y007415D02*
X021306Y007415D01*
X021084Y007589D02*
X021959Y008464D01*
X021959Y010339D01*
X022308Y010688D01*
X022959Y010688D01*
X022939Y010110D02*
X022979Y010110D01*
X022979Y009951D02*
X022939Y009951D01*
X022939Y009793D02*
X022979Y009793D01*
X022979Y009634D02*
X022939Y009634D01*
X022939Y009476D02*
X022979Y009476D01*
X022979Y009317D02*
X022939Y009317D01*
X022330Y008842D02*
X022239Y008842D01*
X021465Y008366D02*
X015632Y008366D01*
X015791Y008525D02*
X018989Y008525D01*
X018928Y009119D02*
X016010Y009119D01*
X016075Y009184D01*
X018829Y009184D01*
X018870Y009143D01*
X018928Y009119D01*
X018855Y009159D02*
X016050Y009159D01*
X016476Y007891D02*
X005439Y007891D01*
X005439Y008049D02*
X021148Y008049D01*
X020990Y007891D02*
X016943Y007891D01*
X016709Y007589D02*
X021084Y007589D01*
X021307Y008208D02*
X005439Y008208D01*
X005439Y008366D02*
X014036Y008366D01*
X013878Y008525D02*
X005439Y008525D01*
X005439Y008683D02*
X013719Y008683D01*
X013561Y008842D02*
X005439Y008842D01*
X005439Y009000D02*
X013402Y009000D01*
X013244Y009159D02*
X005439Y009159D01*
X005439Y009317D02*
X013085Y009317D01*
X012927Y009476D02*
X012512Y009476D01*
X012761Y009634D02*
X012814Y009634D01*
X012084Y009964D02*
X010959Y009964D01*
X009897Y011027D01*
X012959Y014089D01*
X013959Y014089D01*
X013959Y016089D01*
X013959Y018089D01*
X014709Y018839D01*
X016459Y018839D01*
X017463Y018035D02*
X024164Y018035D01*
X024164Y018193D02*
X017584Y018193D01*
X017743Y018352D02*
X024164Y018352D01*
X024164Y018510D02*
X023781Y018510D01*
X023775Y018504D02*
X024044Y018774D01*
X024044Y019155D01*
X023775Y019424D01*
X023394Y019424D01*
X023124Y019155D01*
X023124Y018774D01*
X023394Y018504D01*
X023775Y018504D01*
X023939Y018669D02*
X024164Y018669D01*
X024164Y018827D02*
X024044Y018827D01*
X024044Y018986D02*
X024164Y018986D01*
X024164Y019144D02*
X024044Y019144D01*
X024164Y019303D02*
X023896Y019303D01*
X024164Y019461D02*
X021477Y019461D01*
X021319Y019303D02*
X022272Y019303D01*
X022394Y019424D02*
X022124Y019155D01*
X022124Y018774D01*
X022394Y018504D01*
X022775Y018504D01*
X023044Y018774D01*
X023044Y019155D01*
X022775Y019424D01*
X022394Y019424D01*
X022896Y019303D02*
X023272Y019303D01*
X023124Y019144D02*
X023044Y019144D01*
X023044Y018986D02*
X023124Y018986D01*
X023124Y018827D02*
X023044Y018827D01*
X022939Y018669D02*
X023229Y018669D01*
X023388Y018510D02*
X022781Y018510D01*
X022388Y018510D02*
X017901Y018510D01*
X018060Y018669D02*
X022229Y018669D01*
X022124Y018827D02*
X018218Y018827D01*
X018377Y018986D02*
X022124Y018986D01*
X022124Y019144D02*
X018535Y019144D01*
X017406Y017876D02*
X024164Y017876D01*
X024164Y017718D02*
X017176Y017718D01*
X016992Y017718D02*
X016739Y017718D01*
X016739Y017876D02*
X016763Y017876D01*
X016179Y017718D02*
X016151Y017718D01*
X016179Y017559D02*
X014239Y017559D01*
X014239Y017401D02*
X016179Y017401D01*
X016179Y017242D02*
X014239Y017242D01*
X014239Y017084D02*
X016179Y017084D01*
X016179Y016925D02*
X014239Y016925D01*
X014239Y016767D02*
X016179Y016767D01*
X016162Y016450D02*
X016179Y016450D01*
X015959Y016450D02*
X015959Y016450D01*
X015959Y016487D02*
X015959Y016089D01*
X015959Y016487D01*
X015959Y016291D02*
X015959Y016291D01*
X015959Y016133D02*
X015959Y016133D01*
X015959Y016089D02*
X015959Y016089D01*
X015959Y015974D02*
X015959Y015974D01*
X015959Y015816D02*
X015959Y015816D01*
X016179Y015657D02*
X015239Y015657D01*
X015239Y015499D02*
X016179Y015499D01*
X016208Y015340D02*
X015239Y015340D01*
X015239Y015182D02*
X016346Y015182D01*
X016504Y015023D02*
X015239Y015023D01*
X015239Y014865D02*
X016663Y014865D01*
X016222Y014389D02*
X018456Y014389D01*
X018470Y014231D02*
X016357Y014231D01*
X016357Y014254D02*
X016124Y014487D01*
X015959Y014487D01*
X015794Y014487D01*
X015561Y014254D01*
X015561Y014089D01*
X015561Y013924D01*
X015794Y013691D01*
X015959Y013691D01*
X015959Y014089D01*
X015561Y014089D01*
X015959Y014089D01*
X015959Y014089D01*
X015959Y014089D01*
X015959Y013691D01*
X016124Y013691D01*
X016357Y013924D01*
X016357Y014089D01*
X015959Y014089D01*
X015959Y014487D01*
X015959Y014089D01*
X015959Y014089D01*
X015959Y014089D01*
X016357Y014089D01*
X016357Y014254D01*
X016357Y014072D02*
X018554Y014072D01*
X018554Y013914D02*
X016347Y013914D01*
X016188Y013755D02*
X018554Y013755D01*
X018554Y013597D02*
X014739Y013597D01*
X014700Y013438D02*
X018554Y013438D01*
X018554Y013280D02*
X014804Y013280D01*
X014929Y013121D02*
X018554Y013121D01*
X018554Y012963D02*
X014963Y012963D01*
X014928Y012804D02*
X018554Y012804D01*
X018554Y012646D02*
X014801Y012646D01*
X014584Y012964D02*
X014209Y012964D01*
X013834Y012589D01*
X014209Y012339D02*
X017334Y012339D01*
X018084Y011589D01*
X018084Y011339D01*
X017709Y010964D01*
X017209Y010964D01*
X016834Y010589D01*
X016834Y010339D01*
X017334Y010464D02*
X018209Y010464D01*
X018834Y011089D01*
X018834Y014339D01*
X019199Y014231D02*
X024164Y014231D01*
X024164Y014389D02*
X019213Y014389D01*
X019158Y014548D02*
X022350Y014548D01*
X022192Y014706D02*
X018937Y014706D01*
X018731Y014706D02*
X015207Y014706D01*
X015064Y014548D02*
X018511Y014548D01*
X019114Y014072D02*
X024164Y014072D01*
X024164Y013914D02*
X019114Y013914D01*
X019114Y013755D02*
X024164Y013755D01*
X024164Y013597D02*
X019114Y013597D01*
X019114Y013121D02*
X020970Y013121D01*
X020812Y012963D02*
X019114Y012963D01*
X019114Y012804D02*
X020653Y012804D01*
X020495Y012646D02*
X019114Y012646D01*
X019114Y012487D02*
X020336Y012487D01*
X020178Y012329D02*
X019114Y012329D01*
X019114Y012170D02*
X020019Y012170D01*
X019861Y012012D02*
X019114Y012012D01*
X019114Y011853D02*
X019714Y011853D01*
X019679Y011695D02*
X019639Y011695D01*
X019334Y011464D02*
X019334Y010714D01*
X019084Y010464D01*
X018724Y010583D02*
X018706Y010539D01*
X018706Y010389D01*
X018764Y010250D01*
X018769Y010244D01*
X018385Y010244D01*
X018447Y010306D01*
X018724Y010583D01*
X018706Y010427D02*
X018568Y010427D01*
X018447Y010306D02*
X018447Y010306D01*
X018409Y010268D02*
X018756Y010268D01*
X018966Y010825D02*
X018993Y010852D01*
X019054Y010913D01*
X019054Y010843D01*
X019009Y010843D01*
X018966Y010825D01*
X018993Y010852D02*
X018993Y010852D01*
X019043Y010902D02*
X019054Y010902D01*
X019614Y010658D02*
X019601Y010627D01*
X019679Y010705D01*
X019679Y011308D01*
X019655Y011250D01*
X019614Y011209D01*
X019614Y010658D01*
X019614Y010744D02*
X019679Y010744D01*
X019679Y010902D02*
X019614Y010902D01*
X019614Y011061D02*
X019679Y011061D01*
X019679Y011219D02*
X019624Y011219D01*
X020239Y010902D02*
X022126Y010902D01*
X021968Y010744D02*
X020239Y010744D01*
X020239Y010585D02*
X021809Y010585D01*
X021692Y010427D02*
X020193Y010427D01*
X020034Y010268D02*
X021679Y010268D01*
X021679Y010110D02*
X019876Y010110D01*
X019717Y009951D02*
X021679Y009951D01*
X021679Y009793D02*
X019559Y009793D01*
X019424Y009634D02*
X021679Y009634D01*
X021679Y009476D02*
X019463Y009476D01*
X018251Y010902D02*
X018043Y010902D01*
X018202Y011061D02*
X018410Y011061D01*
X018338Y011219D02*
X018554Y011219D01*
X018554Y011378D02*
X018364Y011378D01*
X018364Y011536D02*
X018554Y011536D01*
X018554Y011695D02*
X018344Y011695D01*
X018216Y011853D02*
X018554Y011853D01*
X018554Y012012D02*
X018058Y012012D01*
X017899Y012170D02*
X018554Y012170D01*
X018554Y012329D02*
X017741Y012329D01*
X017582Y012487D02*
X018554Y012487D01*
X017116Y011536D02*
X015553Y011536D01*
X014117Y011559D02*
X013879Y011404D01*
X013879Y011404D01*
X013879Y011404D01*
X013739Y011224D01*
X013739Y011788D01*
X013847Y011681D01*
X013926Y011602D01*
X014029Y011559D01*
X014117Y011559D01*
X014082Y011536D02*
X013739Y011536D01*
X013739Y011378D02*
X013859Y011378D01*
X013833Y011695D02*
X013739Y011695D01*
X012804Y011677D02*
X012804Y011197D01*
X012795Y011216D01*
X012750Y011277D01*
X012697Y011330D01*
X012636Y011375D01*
X012569Y011409D01*
X012497Y011432D01*
X012422Y011444D01*
X012104Y011444D01*
X012104Y010984D01*
X012064Y010984D01*
X012064Y010944D01*
X011304Y010944D01*
X011304Y010926D01*
X011316Y010852D01*
X011339Y010780D01*
X011374Y010713D01*
X011418Y010651D01*
X011472Y010598D01*
X011533Y010554D01*
X011600Y010519D01*
X011672Y010496D01*
X011747Y010484D01*
X012064Y010484D01*
X012064Y010944D01*
X012104Y010944D01*
X012104Y010484D01*
X012422Y010484D01*
X012497Y010496D01*
X012569Y010519D01*
X012636Y010554D01*
X012697Y010598D01*
X012750Y010651D01*
X012795Y010713D01*
X012804Y010731D01*
X012804Y010251D01*
X012668Y010388D01*
X012484Y010464D01*
X011685Y010464D01*
X011501Y010388D01*
X011360Y010247D01*
X011359Y010244D01*
X011075Y010244D01*
X010293Y011027D01*
X011284Y012018D01*
X011284Y011865D01*
X011360Y011681D01*
X011501Y011540D01*
X011685Y011464D01*
X012484Y011464D01*
X012668Y011540D01*
X012804Y011677D01*
X012804Y011536D02*
X012658Y011536D01*
X012630Y011378D02*
X012804Y011378D01*
X012792Y011219D02*
X012804Y011219D01*
X012104Y011219D02*
X012064Y011219D01*
X012064Y011061D02*
X012104Y011061D01*
X012064Y010984D02*
X012064Y011444D01*
X011747Y011444D01*
X011672Y011432D01*
X011600Y011409D01*
X011533Y011375D01*
X011472Y011330D01*
X011418Y011277D01*
X011374Y011216D01*
X011339Y011148D01*
X011316Y011077D01*
X011304Y011002D01*
X011304Y010984D01*
X012064Y010984D01*
X012064Y010902D02*
X012104Y010902D01*
X012104Y010744D02*
X012064Y010744D01*
X012064Y010585D02*
X012104Y010585D01*
X012574Y010427D02*
X012804Y010427D01*
X012804Y010585D02*
X012679Y010585D01*
X012787Y010268D02*
X012804Y010268D01*
X011594Y010427D02*
X010893Y010427D01*
X010734Y010585D02*
X011489Y010585D01*
X011358Y010744D02*
X010576Y010744D01*
X010417Y010902D02*
X011308Y010902D01*
X011314Y011061D02*
X010327Y011061D01*
X010485Y011219D02*
X011376Y011219D01*
X011539Y011378D02*
X010644Y011378D01*
X010802Y011536D02*
X011511Y011536D01*
X011355Y011695D02*
X010961Y011695D01*
X011119Y011853D02*
X011289Y011853D01*
X011278Y012012D02*
X011284Y012012D01*
X010953Y012479D02*
X009897Y011423D01*
X009114Y012205D01*
X009114Y013834D01*
X009155Y013875D01*
X009213Y014014D01*
X009213Y014164D01*
X009180Y014243D01*
X009259Y014211D01*
X009317Y014211D01*
X010502Y013026D01*
X010456Y012914D01*
X010456Y012764D01*
X010514Y012625D01*
X010620Y012518D01*
X010759Y012461D01*
X010910Y012461D01*
X010953Y012479D01*
X010803Y012329D02*
X009114Y012329D01*
X009114Y012487D02*
X010695Y012487D01*
X010505Y012646D02*
X009114Y012646D01*
X009114Y012804D02*
X010456Y012804D01*
X010476Y012963D02*
X009114Y012963D01*
X009114Y013121D02*
X010406Y013121D01*
X010248Y013280D02*
X009114Y013280D01*
X009114Y013438D02*
X010089Y013438D01*
X009931Y013597D02*
X009114Y013597D01*
X009114Y013755D02*
X009772Y013755D01*
X009614Y013914D02*
X009171Y013914D01*
X009213Y014072D02*
X009455Y014072D01*
X009211Y014231D02*
X009185Y014231D01*
X008834Y014089D02*
X008834Y012089D01*
X009897Y011027D01*
X009659Y010868D02*
X009659Y010868D01*
X009625Y010902D02*
X007278Y010902D01*
X007308Y010872D02*
X007168Y011013D01*
X006984Y011089D01*
X006185Y011089D01*
X006001Y011013D01*
X005860Y010872D01*
X005784Y010689D01*
X005784Y010490D01*
X005860Y010306D01*
X006001Y010165D01*
X006185Y010089D01*
X006984Y010089D01*
X007168Y010165D01*
X007308Y010306D01*
X007384Y010490D01*
X007384Y010689D01*
X007308Y010872D01*
X007362Y010744D02*
X009784Y010744D01*
X009942Y010585D02*
X007384Y010585D01*
X007358Y010427D02*
X010101Y010427D01*
X010259Y010268D02*
X007270Y010268D01*
X007033Y010110D02*
X010418Y010110D01*
X010576Y009951D02*
X005439Y009951D01*
X005439Y009793D02*
X010735Y009793D01*
X011051Y010268D02*
X011381Y010268D01*
X011407Y009634D02*
X005439Y009634D01*
X005439Y009476D02*
X011657Y009476D01*
X012064Y011378D02*
X012104Y011378D01*
X012727Y012329D02*
X012804Y012329D01*
X012804Y012487D02*
X011753Y012487D01*
X011912Y012646D02*
X012804Y012646D01*
X012741Y012804D02*
X012070Y012804D01*
X011595Y013121D02*
X011114Y013121D01*
X011040Y013280D02*
X011754Y013280D01*
X011912Y013438D02*
X010881Y013438D01*
X010723Y013597D02*
X012071Y013597D01*
X012229Y013755D02*
X010564Y013755D01*
X010406Y013914D02*
X012388Y013914D01*
X012546Y014072D02*
X010247Y014072D01*
X010089Y014231D02*
X012705Y014231D01*
X012894Y014504D02*
X013275Y014504D01*
X013544Y014774D01*
X013544Y015155D01*
X013275Y015424D01*
X012894Y015424D01*
X012624Y015155D01*
X012624Y014774D01*
X012894Y014504D01*
X012850Y014548D02*
X012318Y014548D01*
X012477Y014706D02*
X012692Y014706D01*
X012624Y014865D02*
X012544Y014865D01*
X012544Y015023D02*
X012624Y015023D01*
X012651Y015182D02*
X012517Y015182D01*
X012359Y015340D02*
X012810Y015340D01*
X013359Y015340D02*
X013679Y015340D01*
X013679Y015182D02*
X013517Y015182D01*
X013544Y015023D02*
X013679Y015023D01*
X013679Y014865D02*
X013544Y014865D01*
X013477Y014706D02*
X013679Y014706D01*
X013679Y014548D02*
X013318Y014548D01*
X013668Y014389D02*
X009930Y014389D01*
X009772Y014548D02*
X011850Y014548D01*
X011692Y014706D02*
X009695Y014706D01*
X009594Y014865D02*
X011624Y014865D01*
X011624Y015023D02*
X008296Y015023D01*
X008138Y015182D02*
X011471Y015182D01*
X011312Y015340D02*
X007960Y015340D01*
X007834Y015089D02*
X008834Y014089D01*
X008455Y014072D02*
X005439Y014072D01*
X005439Y013914D02*
X008497Y013914D01*
X008554Y013755D02*
X005439Y013755D01*
X005439Y013597D02*
X008554Y013597D01*
X008554Y013438D02*
X005439Y013438D01*
X005439Y013280D02*
X008554Y013280D01*
X008554Y013121D02*
X005439Y013121D01*
X005439Y012963D02*
X008554Y012963D01*
X008554Y012804D02*
X005439Y012804D01*
X005439Y012646D02*
X008554Y012646D01*
X008554Y012487D02*
X005439Y012487D01*
X005439Y012329D02*
X008554Y012329D01*
X008554Y012170D02*
X005439Y012170D01*
X005439Y012012D02*
X006056Y012012D01*
X006033Y012000D02*
X005972Y011955D01*
X005918Y011902D01*
X005874Y011841D01*
X005839Y011773D01*
X005816Y011702D01*
X005804Y011627D01*
X005804Y011609D01*
X006564Y011609D01*
X006564Y011569D01*
X005804Y011569D01*
X005804Y011551D01*
X005816Y011477D01*
X005839Y011405D01*
X005874Y011338D01*
X005918Y011276D01*
X005972Y011223D01*
X006033Y011179D01*
X006100Y011144D01*
X006172Y011121D01*
X006247Y011109D01*
X006564Y011109D01*
X006564Y011569D01*
X006604Y011569D01*
X006604Y011109D01*
X006922Y011109D01*
X006997Y011121D01*
X007069Y011144D01*
X007136Y011179D01*
X007197Y011223D01*
X007250Y011276D01*
X007295Y011338D01*
X007329Y011405D01*
X007352Y011477D01*
X007364Y011551D01*
X007364Y011569D01*
X006604Y011569D01*
X006604Y011609D01*
X006564Y011609D01*
X006564Y012069D01*
X006247Y012069D01*
X006172Y012057D01*
X006100Y012034D01*
X006033Y012000D01*
X005883Y011853D02*
X005439Y011853D01*
X005439Y011695D02*
X005815Y011695D01*
X005807Y011536D02*
X005439Y011536D01*
X005439Y011378D02*
X005853Y011378D01*
X005977Y011219D02*
X005439Y011219D01*
X005439Y011061D02*
X006116Y011061D01*
X005890Y010902D02*
X005439Y010902D01*
X005439Y010744D02*
X005807Y010744D01*
X005784Y010585D02*
X005439Y010585D01*
X005439Y010427D02*
X005810Y010427D01*
X005898Y010268D02*
X005439Y010268D01*
X005439Y010110D02*
X006135Y010110D01*
X007053Y011061D02*
X009467Y011061D01*
X009308Y011219D02*
X007192Y011219D01*
X007315Y011378D02*
X009150Y011378D01*
X008991Y011536D02*
X007362Y011536D01*
X007364Y011609D02*
X007364Y011627D01*
X007352Y011702D01*
X007329Y011773D01*
X007295Y011841D01*
X007250Y011902D01*
X007197Y011955D01*
X007136Y012000D01*
X007069Y012034D01*
X006997Y012057D01*
X006922Y012069D01*
X006604Y012069D01*
X006604Y011609D01*
X007364Y011609D01*
X007354Y011695D02*
X008833Y011695D01*
X008674Y011853D02*
X007286Y011853D01*
X007112Y012012D02*
X008563Y012012D01*
X009149Y012170D02*
X010644Y012170D01*
X010486Y012012D02*
X009308Y012012D01*
X009466Y011853D02*
X010327Y011853D01*
X010169Y011695D02*
X009625Y011695D01*
X009783Y011536D02*
X010010Y011536D01*
X010834Y012839D02*
X010834Y013089D01*
X009334Y014589D01*
X009075Y014865D02*
X008455Y014865D01*
X008613Y014706D02*
X008973Y014706D01*
X008956Y014548D02*
X008772Y014548D01*
X008297Y014231D02*
X005439Y014231D01*
X005439Y014389D02*
X008138Y014389D01*
X007980Y014548D02*
X005439Y014548D01*
X005439Y014706D02*
X007821Y014706D01*
X007834Y015089D02*
X006209Y015089D01*
X005959Y015339D01*
X005959Y016589D01*
X006084Y016714D01*
X006355Y016450D02*
X006466Y016450D01*
X006450Y016608D02*
X011790Y016608D01*
X011894Y016504D02*
X012275Y016504D01*
X012544Y016774D01*
X012544Y017155D01*
X012275Y017424D01*
X011894Y017424D01*
X011624Y017155D01*
X011624Y016774D01*
X011894Y016504D01*
X011631Y016767D02*
X006463Y016767D01*
X006407Y016925D02*
X011624Y016925D01*
X011624Y017084D02*
X006181Y017084D01*
X005988Y017084D02*
X005439Y017084D01*
X005439Y017242D02*
X011712Y017242D01*
X011870Y017401D02*
X005439Y017401D01*
X005439Y017559D02*
X013679Y017559D01*
X013679Y017401D02*
X013298Y017401D01*
X013275Y017424D02*
X013544Y017155D01*
X013544Y016774D01*
X013275Y016504D01*
X012894Y016504D01*
X012624Y016774D01*
X012624Y017155D01*
X012894Y017424D01*
X013275Y017424D01*
X013457Y017242D02*
X013679Y017242D01*
X013679Y017084D02*
X013544Y017084D01*
X013544Y016925D02*
X013679Y016925D01*
X013679Y016767D02*
X013537Y016767D01*
X013679Y016608D02*
X013379Y016608D01*
X013679Y016450D02*
X006703Y016450D01*
X006584Y016089D02*
X010959Y016089D01*
X012084Y014964D01*
X011946Y015499D02*
X013679Y015499D01*
X013679Y015657D02*
X011787Y015657D01*
X011629Y015816D02*
X013642Y015816D01*
X013541Y015974D02*
X011470Y015974D01*
X011312Y016133D02*
X013541Y016133D01*
X013570Y016291D02*
X011153Y016291D01*
X010995Y015657D02*
X006239Y015657D01*
X006239Y015499D02*
X011154Y015499D01*
X012379Y016608D02*
X012790Y016608D01*
X012631Y016767D02*
X012537Y016767D01*
X012544Y016925D02*
X012624Y016925D01*
X012624Y017084D02*
X012544Y017084D01*
X012457Y017242D02*
X012712Y017242D01*
X012870Y017401D02*
X012298Y017401D01*
X013541Y018035D02*
X006963Y018035D01*
X006963Y018014D02*
X006963Y018072D01*
X008075Y019184D01*
X010640Y019184D01*
X010743Y019227D01*
X010822Y019306D01*
X012020Y020504D01*
X012275Y020504D01*
X012544Y020774D01*
X012544Y021155D01*
X012275Y021424D01*
X011894Y021424D01*
X011624Y021155D01*
X011624Y020900D01*
X010468Y019744D01*
X007904Y019744D01*
X007801Y019702D01*
X006567Y018468D01*
X006509Y018468D01*
X006370Y018410D01*
X006264Y018304D01*
X006206Y018164D01*
X006206Y018014D01*
X006264Y017875D01*
X006370Y017768D01*
X006509Y017711D01*
X006660Y017711D01*
X006799Y017768D01*
X006905Y017875D01*
X006963Y018014D01*
X006906Y017876D02*
X013581Y017876D01*
X013679Y017718D02*
X006676Y017718D01*
X006492Y017718D02*
X005439Y017718D01*
X005439Y017876D02*
X006263Y017876D01*
X006206Y018035D02*
X005439Y018035D01*
X005439Y018193D02*
X006218Y018193D01*
X006312Y018352D02*
X005439Y018352D01*
X005439Y018510D02*
X006609Y018510D01*
X006768Y018669D02*
X005439Y018669D01*
X005439Y018827D02*
X006926Y018827D01*
X007085Y018986D02*
X005439Y018986D01*
X005439Y019144D02*
X007243Y019144D01*
X007402Y019303D02*
X005439Y019303D01*
X005439Y019461D02*
X007560Y019461D01*
X007719Y019620D02*
X005439Y019620D01*
X005439Y019778D02*
X010502Y019778D01*
X010661Y019937D02*
X005439Y019937D01*
X005439Y020095D02*
X010819Y020095D01*
X010978Y020254D02*
X005439Y020254D01*
X005439Y020412D02*
X011136Y020412D01*
X011295Y020571D02*
X005439Y020571D01*
X005439Y020729D02*
X011453Y020729D01*
X011612Y020888D02*
X005439Y020888D01*
X005439Y021046D02*
X011624Y021046D01*
X011674Y021205D02*
X005439Y021205D01*
X005439Y021363D02*
X011833Y021363D01*
X012084Y020964D02*
X010584Y019464D01*
X007959Y019464D01*
X006584Y018089D01*
X007084Y018193D02*
X013541Y018193D01*
X013631Y018352D02*
X007243Y018352D01*
X007401Y018510D02*
X011888Y018510D01*
X011894Y018504D02*
X012275Y018504D01*
X012544Y018774D01*
X012544Y019155D01*
X012275Y019424D01*
X011894Y019424D01*
X011624Y019155D01*
X011624Y018774D01*
X011894Y018504D01*
X011729Y018669D02*
X007560Y018669D01*
X007718Y018827D02*
X011624Y018827D01*
X011624Y018986D02*
X007877Y018986D01*
X008035Y019144D02*
X011624Y019144D01*
X011772Y019303D02*
X010819Y019303D01*
X010977Y019461D02*
X013708Y019461D01*
X013603Y019595D02*
X013603Y019595D01*
X013595Y019620D02*
X011136Y019620D01*
X011294Y019778D02*
X013541Y019778D01*
X013486Y019937D02*
X011453Y019937D01*
X011611Y020095D02*
X013458Y020095D01*
X013458Y020254D02*
X011770Y020254D01*
X011928Y020412D02*
X013458Y020412D01*
X013493Y020571D02*
X013341Y020571D01*
X013275Y020504D02*
X013544Y020774D01*
X013544Y021155D01*
X013275Y021424D01*
X012894Y021424D01*
X012624Y021155D01*
X012624Y020774D01*
X012894Y020504D01*
X013275Y020504D01*
X013500Y020729D02*
X013547Y020729D01*
X013544Y020888D02*
X013602Y020888D01*
X013603Y020892D02*
X013603Y020892D01*
X013544Y021046D02*
X013723Y021046D01*
X013847Y021205D02*
X013494Y021205D01*
X013336Y021363D02*
X014058Y021363D01*
X013879Y021246D02*
X013879Y021246D01*
X013879Y021246D01*
X014254Y021492D02*
X014254Y021492D01*
X014373Y021522D02*
X005439Y021522D01*
X005439Y016925D02*
X005762Y016925D01*
X005706Y016767D02*
X005439Y016767D01*
X005439Y016608D02*
X005679Y016608D01*
X005679Y016450D02*
X005439Y016450D01*
X005439Y016291D02*
X005679Y016291D01*
X005679Y016133D02*
X005439Y016133D01*
X005439Y015974D02*
X005679Y015974D01*
X005679Y015816D02*
X005439Y015816D01*
X005439Y015657D02*
X005679Y015657D01*
X005679Y015499D02*
X005439Y015499D01*
X005439Y015340D02*
X005679Y015340D01*
X005721Y015182D02*
X005439Y015182D01*
X005439Y015023D02*
X005879Y015023D01*
X006038Y014865D02*
X005439Y014865D01*
X006239Y015816D02*
X006323Y015816D01*
X006258Y016291D02*
X006239Y016291D01*
X006564Y012012D02*
X006604Y012012D01*
X006604Y011853D02*
X006564Y011853D01*
X006564Y011695D02*
X006604Y011695D01*
X006604Y011536D02*
X006564Y011536D01*
X006564Y011378D02*
X006604Y011378D01*
X006604Y011219D02*
X006564Y011219D01*
X005439Y007732D02*
X016359Y007732D01*
X016331Y007574D02*
X005439Y007574D01*
X005439Y007415D02*
X016372Y007415D01*
X016523Y007257D02*
X005439Y007257D01*
X005439Y007098D02*
X022346Y007098D01*
X022226Y007257D02*
X016895Y007257D01*
X022239Y009951D02*
X022258Y009951D01*
X022239Y010110D02*
X022430Y010110D01*
X022372Y010268D02*
X022284Y010268D01*
X022818Y014548D02*
X023350Y014548D01*
X023394Y014504D02*
X023775Y014504D01*
X024044Y014774D01*
X024044Y015155D01*
X023775Y015424D01*
X023394Y015424D01*
X023124Y015155D01*
X023124Y014774D01*
X023394Y014504D01*
X023192Y014706D02*
X022977Y014706D01*
X023044Y014865D02*
X023124Y014865D01*
X023124Y015023D02*
X023044Y015023D01*
X023017Y015182D02*
X023151Y015182D01*
X023310Y015340D02*
X022859Y015340D01*
X022446Y015499D02*
X024164Y015499D01*
X024164Y015657D02*
X022287Y015657D01*
X022129Y015816D02*
X024164Y015816D01*
X024164Y015974D02*
X021970Y015974D01*
X021812Y016133D02*
X024164Y016133D01*
X024164Y016291D02*
X021653Y016291D01*
X021459Y016089D02*
X022584Y014964D01*
X022124Y015023D02*
X019713Y015023D01*
X019706Y015182D02*
X021971Y015182D01*
X022124Y014865D02*
X019645Y014865D01*
X022879Y016608D02*
X023290Y016608D01*
X023131Y016767D02*
X023037Y016767D01*
X023044Y016925D02*
X023124Y016925D01*
X023124Y017084D02*
X023044Y017084D01*
X022957Y017242D02*
X023212Y017242D01*
X023370Y017401D02*
X022798Y017401D01*
X023859Y015340D02*
X024164Y015340D01*
X024164Y015182D02*
X024017Y015182D01*
X024044Y015023D02*
X024164Y015023D01*
X024164Y014865D02*
X024044Y014865D01*
X023977Y014706D02*
X024164Y014706D01*
X024164Y014548D02*
X023818Y014548D01*
X024164Y019620D02*
X021636Y019620D01*
X021794Y019778D02*
X024164Y019778D01*
X024164Y019937D02*
X021953Y019937D01*
X022111Y020095D02*
X024164Y020095D01*
X024164Y020254D02*
X022270Y020254D01*
X022428Y020412D02*
X024164Y020412D01*
X024164Y020571D02*
X023841Y020571D01*
X023775Y020504D02*
X024044Y020774D01*
X024044Y021155D01*
X023775Y021424D01*
X023394Y021424D01*
X023124Y021155D01*
X023124Y020774D01*
X023394Y020504D01*
X023775Y020504D01*
X024000Y020729D02*
X024164Y020729D01*
X024164Y020888D02*
X024044Y020888D01*
X024044Y021046D02*
X024164Y021046D01*
X024164Y021205D02*
X023994Y021205D01*
X023836Y021363D02*
X024164Y021363D01*
X023333Y021363D02*
X022836Y021363D01*
X022994Y021205D02*
X023174Y021205D01*
X023124Y021046D02*
X023044Y021046D01*
X023044Y020888D02*
X023124Y020888D01*
X023169Y020729D02*
X023000Y020729D01*
X022841Y020571D02*
X023327Y020571D01*
X022584Y020964D02*
X021084Y019464D01*
X015757Y016450D02*
X015190Y016450D01*
X015349Y016291D02*
X015598Y016291D01*
X015561Y016133D02*
X015377Y016133D01*
X015377Y015974D02*
X015561Y015974D01*
X015670Y015816D02*
X015277Y015816D01*
X014959Y016089D02*
X014959Y014839D01*
X014459Y014339D01*
X013702Y013755D02*
X013021Y013755D01*
X012863Y013597D02*
X014071Y013597D01*
X015217Y013755D02*
X015730Y013755D01*
X015572Y013914D02*
X015375Y013914D01*
X015377Y014072D02*
X015561Y014072D01*
X015561Y014231D02*
X015377Y014231D01*
X015251Y014389D02*
X015696Y014389D01*
X015959Y014389D02*
X015959Y014389D01*
X015959Y014231D02*
X015959Y014231D01*
X015959Y014072D02*
X015959Y014072D01*
X015959Y013914D02*
X015959Y013914D01*
X015959Y013755D02*
X015959Y013755D01*
X011437Y012963D02*
X011193Y012963D01*
X011213Y012804D02*
X011278Y012804D01*
X014239Y017718D02*
X014740Y017718D01*
X014581Y017876D02*
X014338Y017876D01*
X014377Y018035D02*
X014541Y018035D01*
X014541Y018193D02*
X014459Y018193D01*
X014618Y018352D02*
X014631Y018352D01*
X014301Y018827D02*
X013544Y018827D01*
X013544Y018774D02*
X013275Y018504D01*
X012894Y018504D01*
X012624Y018774D01*
X012624Y019155D01*
X012894Y019424D01*
X013275Y019424D01*
X013544Y019155D01*
X013544Y018774D01*
X013439Y018669D02*
X014143Y018669D01*
X013984Y018510D02*
X013281Y018510D01*
X012888Y018510D02*
X012281Y018510D01*
X012439Y018669D02*
X012729Y018669D01*
X012624Y018827D02*
X012544Y018827D01*
X012544Y018986D02*
X012624Y018986D01*
X012624Y019144D02*
X012544Y019144D01*
X012396Y019303D02*
X012772Y019303D01*
X013396Y019303D02*
X013831Y019303D01*
X013879Y019241D02*
X013879Y019241D01*
X014027Y019144D02*
X013544Y019144D01*
X013544Y018986D02*
X014294Y018986D01*
X012827Y020571D02*
X012341Y020571D01*
X012500Y020729D02*
X012669Y020729D01*
X012624Y020888D02*
X012544Y020888D01*
X012544Y021046D02*
X012624Y021046D01*
X012674Y021205D02*
X012494Y021205D01*
X012336Y021363D02*
X012833Y021363D01*
X014689Y021602D02*
X014689Y021602D01*
D14*
X016459Y018839D03*
X017084Y018089D03*
X017084Y016089D03*
X018834Y014339D03*
X019334Y015089D03*
X021584Y017464D03*
X019334Y018964D03*
X014584Y012964D03*
X014209Y012339D03*
X013084Y012964D03*
X010834Y012839D03*
X008834Y014089D03*
X009334Y014589D03*
X006584Y016089D03*
X006084Y016714D03*
X006584Y018089D03*
X008834Y018964D03*
X011084Y017464D03*
X017584Y011464D03*
X017334Y010464D03*
X019084Y010464D03*
X019084Y009464D03*
X019209Y008839D03*
X016709Y007589D03*
X019334Y011464D03*
D15*
X014802Y010401D03*
X014802Y020244D03*
M02*
