G75*
G70*
%OFA0B0*%
%FSLAX24Y24*%
%IPPOS*%
%LPD*%
%AMOC8*
5,1,8,0,0,1.08239X$1,22.5*
%
%ADD10C,0.0060*%
%ADD11OC8,0.0600*%
%ADD12C,0.0680*%
%ADD13OC8,0.0516*%
%ADD14C,0.0437*%
%ADD15C,0.1740*%
D10*
X006228Y007494D02*
X006442Y007494D01*
X006548Y007601D01*
X006121Y008028D01*
X006121Y007601D01*
X006228Y007494D01*
X006548Y007601D02*
X006548Y008028D01*
X006442Y008135D01*
X006228Y008135D01*
X006121Y008028D01*
X006766Y008028D02*
X006766Y007921D01*
X006873Y007814D01*
X007086Y007814D01*
X007193Y007921D01*
X007193Y008028D01*
X007086Y008135D01*
X006873Y008135D01*
X006766Y008028D01*
X006873Y007814D02*
X006766Y007708D01*
X006766Y007601D01*
X006873Y007494D01*
X007086Y007494D01*
X007193Y007601D01*
X007193Y007708D01*
X007086Y007814D01*
X007408Y007601D02*
X007408Y007494D01*
X007515Y007494D01*
X007515Y007601D01*
X007408Y007601D01*
X007733Y007601D02*
X007839Y007494D01*
X008053Y007494D01*
X008160Y007601D01*
X008377Y007494D02*
X008377Y008135D01*
X008591Y007921D01*
X008804Y008135D01*
X008804Y007494D01*
X008160Y008028D02*
X008053Y008135D01*
X007839Y008135D01*
X007733Y008028D01*
X007733Y007921D01*
X007839Y007814D01*
X007733Y007708D01*
X007733Y007601D01*
X007839Y007814D02*
X007946Y007814D01*
D11*
X012084Y014964D03*
X013084Y014964D03*
X013084Y016964D03*
X012084Y016964D03*
X012084Y018964D03*
X013084Y018964D03*
X013084Y020964D03*
X012084Y020964D03*
X022584Y020964D03*
X023584Y020964D03*
X023584Y018964D03*
X022584Y018964D03*
X022584Y016964D03*
X023584Y016964D03*
X023584Y014964D03*
X022584Y014964D03*
D12*
X022659Y012911D02*
X023259Y012911D01*
X023259Y011911D02*
X022659Y011911D01*
X022659Y010688D02*
X023259Y010688D01*
X023259Y009688D02*
X022659Y009688D01*
X022659Y008464D02*
X023259Y008464D01*
X023259Y007464D02*
X022659Y007464D01*
X012384Y009964D02*
X011784Y009964D01*
X011784Y010964D02*
X012384Y010964D01*
X012384Y011964D02*
X011784Y011964D01*
X006884Y011589D02*
X006284Y011589D01*
X006284Y010589D02*
X006884Y010589D01*
D13*
X013959Y014089D03*
X014959Y014089D03*
X015959Y014089D03*
X015959Y016089D03*
X014959Y016089D03*
X013959Y016089D03*
X013959Y018089D03*
X014959Y018089D03*
X015959Y018089D03*
D14*
X016459Y018839D03*
X017084Y018089D03*
X017084Y016089D03*
X018834Y014339D03*
X019334Y015089D03*
X021584Y017464D03*
X019334Y018964D03*
X014584Y012964D03*
X014209Y012339D03*
X013084Y012964D03*
X010834Y012839D03*
X008834Y014089D03*
X009334Y014589D03*
X006584Y016089D03*
X006084Y016714D03*
X006584Y018089D03*
X008834Y018964D03*
X011084Y017464D03*
X017584Y011464D03*
X017334Y010464D03*
X019084Y010464D03*
X019084Y009464D03*
X019209Y008839D03*
X016709Y007589D03*
X019334Y011464D03*
D15*
X014802Y010401D03*
X014802Y020244D03*
M02*
